%TF.GenerationSoftware,KiCad,Pcbnew,7.0.8-7.0.8~ubuntu22.04.1*%
%TF.CreationDate,2023-10-19T14:38:34-05:00*%
%TF.ProjectId,rm3100Remote,726d3331-3030-4526-956d-6f74652e6b69,0.0.5*%
%TF.SameCoordinates,Original*%
%TF.FileFunction,Legend,Top*%
%TF.FilePolarity,Positive*%
%FSLAX46Y46*%
G04 Gerber Fmt 4.6, Leading zero omitted, Abs format (unit mm)*
G04 Created by KiCad (PCBNEW 7.0.8-7.0.8~ubuntu22.04.1) date 2023-10-19 14:38:34*
%MOMM*%
%LPD*%
G01*
G04 APERTURE LIST*
G04 Aperture macros list*
%AMRoundRect*
0 Rectangle with rounded corners*
0 $1 Rounding radius*
0 $2 $3 $4 $5 $6 $7 $8 $9 X,Y pos of 4 corners*
0 Add a 4 corners polygon primitive as box body*
4,1,4,$2,$3,$4,$5,$6,$7,$8,$9,$2,$3,0*
0 Add four circle primitives for the rounded corners*
1,1,$1+$1,$2,$3*
1,1,$1+$1,$4,$5*
1,1,$1+$1,$6,$7*
1,1,$1+$1,$8,$9*
0 Add four rect primitives between the rounded corners*
20,1,$1+$1,$2,$3,$4,$5,0*
20,1,$1+$1,$4,$5,$6,$7,0*
20,1,$1+$1,$6,$7,$8,$9,0*
20,1,$1+$1,$8,$9,$2,$3,0*%
%AMFreePoly0*
4,1,19,0.500000,-0.750000,0.000000,-0.750000,0.000000,-0.744911,-0.071157,-0.744911,-0.207708,-0.704816,-0.327430,-0.627875,-0.420627,-0.520320,-0.479746,-0.390866,-0.500000,-0.250000,-0.500000,0.250000,-0.479746,0.390866,-0.420627,0.520320,-0.327430,0.627875,-0.207708,0.704816,-0.071157,0.744911,0.000000,0.744911,0.000000,0.750000,0.500000,0.750000,0.500000,-0.750000,0.500000,-0.750000,
$1*%
%AMFreePoly1*
4,1,19,0.000000,0.744911,0.071157,0.744911,0.207708,0.704816,0.327430,0.627875,0.420627,0.520320,0.479746,0.390866,0.500000,0.250000,0.500000,-0.250000,0.479746,-0.390866,0.420627,-0.520320,0.327430,-0.627875,0.207708,-0.704816,0.071157,-0.744911,0.000000,-0.744911,0.000000,-0.750000,-0.500000,-0.750000,-0.500000,0.750000,0.000000,0.750000,0.000000,0.744911,0.000000,0.744911,
$1*%
G04 Aperture macros list end*
%ADD10C,0.150000*%
%ADD11C,0.125000*%
%ADD12C,0.120000*%
%ADD13C,0.127000*%
%ADD14RoundRect,0.200000X-0.275000X0.200000X-0.275000X-0.200000X0.275000X-0.200000X0.275000X0.200000X0*%
%ADD15C,2.500000*%
%ADD16R,1.700000X1.700000*%
%ADD17O,1.700000X1.700000*%
%ADD18RoundRect,0.150000X-0.625000X0.150000X-0.625000X-0.150000X0.625000X-0.150000X0.625000X0.150000X0*%
%ADD19RoundRect,0.250000X-0.650000X0.350000X-0.650000X-0.350000X0.650000X-0.350000X0.650000X0.350000X0*%
%ADD20FreePoly0,270.000000*%
%ADD21FreePoly1,270.000000*%
%ADD22RoundRect,0.200000X-0.200000X-0.275000X0.200000X-0.275000X0.200000X0.275000X-0.200000X0.275000X0*%
%ADD23RoundRect,0.225000X0.225000X0.250000X-0.225000X0.250000X-0.225000X-0.250000X0.225000X-0.250000X0*%
%ADD24RoundRect,0.225000X0.250000X-0.225000X0.250000X0.225000X-0.250000X0.225000X-0.250000X-0.225000X0*%
%ADD25RoundRect,0.225000X-0.250000X0.225000X-0.250000X-0.225000X0.250000X-0.225000X0.250000X0.225000X0*%
%ADD26RoundRect,0.150000X-0.150000X-0.200000X0.150000X-0.200000X0.150000X0.200000X-0.150000X0.200000X0*%
%ADD27RoundRect,0.243750X-0.456250X0.243750X-0.456250X-0.243750X0.456250X-0.243750X0.456250X0.243750X0*%
%ADD28R,0.800000X0.600000*%
%ADD29C,3.250000*%
%ADD30R,1.500000X1.500000*%
%ADD31C,1.500000*%
%ADD32C,2.300000*%
%ADD33RoundRect,0.100000X-0.712500X-0.100000X0.712500X-0.100000X0.712500X0.100000X-0.712500X0.100000X0*%
%ADD34R,1.100000X0.250000*%
%ADD35R,2.000000X1.500000*%
%ADD36R,2.000000X3.800000*%
%ADD37RoundRect,0.225000X-0.225000X-0.250000X0.225000X-0.250000X0.225000X0.250000X-0.225000X0.250000X0*%
%ADD38R,1.050000X0.600000*%
%ADD39R,1.500000X1.000000*%
%ADD40FreePoly0,180.000000*%
%ADD41FreePoly1,180.000000*%
G04 APERTURE END LIST*
D10*
X-70075898Y55439839D02*
X-70075898Y55501744D01*
X-70075898Y55501744D02*
X-70044946Y55559779D01*
X-70044946Y55559779D02*
X-70013993Y55586863D01*
X-70013993Y55586863D02*
X-69952089Y55610077D01*
X-69952089Y55610077D02*
X-69828279Y55625553D01*
X-69828279Y55625553D02*
X-69673517Y55606208D01*
X-69673517Y55606208D02*
X-69549708Y55559779D01*
X-69549708Y55559779D02*
X-69487803Y55521089D01*
X-69487803Y55521089D02*
X-69456850Y55486267D01*
X-69456850Y55486267D02*
X-69425898Y55420494D01*
X-69425898Y55420494D02*
X-69425898Y55358589D01*
X-69425898Y55358589D02*
X-69456850Y55300553D01*
X-69456850Y55300553D02*
X-69487803Y55273470D01*
X-69487803Y55273470D02*
X-69549708Y55250256D01*
X-69549708Y55250256D02*
X-69673517Y55234779D01*
X-69673517Y55234779D02*
X-69828279Y55254125D01*
X-69828279Y55254125D02*
X-69952089Y55300553D01*
X-69952089Y55300553D02*
X-70013993Y55339244D01*
X-70013993Y55339244D02*
X-70044946Y55374065D01*
X-70044946Y55374065D02*
X-70075898Y55439839D01*
X-69425898Y55791923D02*
X-69859231Y56186565D01*
X-69859231Y55846089D02*
X-69425898Y56132399D01*
X-69425898Y56720494D02*
X-69425898Y56349065D01*
X-69425898Y56534779D02*
X-70075898Y56616029D01*
X-70075898Y56616029D02*
X-69983041Y56542517D01*
X-69983041Y56542517D02*
X-69921136Y56472874D01*
X-69921136Y56472874D02*
X-69890184Y56407101D01*
X-69425898Y57030018D02*
X-69425898Y57153827D01*
X-69425898Y57153827D02*
X-69456850Y57219601D01*
X-69456850Y57219601D02*
X-69487803Y57254422D01*
X-69487803Y57254422D02*
X-69580660Y57327934D01*
X-69580660Y57327934D02*
X-69704470Y57374363D01*
X-69704470Y57374363D02*
X-69952089Y57405315D01*
X-69952089Y57405315D02*
X-70013993Y57382101D01*
X-70013993Y57382101D02*
X-70044946Y57355018D01*
X-70044946Y57355018D02*
X-70075898Y57296982D01*
X-70075898Y57296982D02*
X-70075898Y57173172D01*
X-70075898Y57173172D02*
X-70044946Y57107399D01*
X-70044946Y57107399D02*
X-70013993Y57072577D01*
X-70013993Y57072577D02*
X-69952089Y57033887D01*
X-69952089Y57033887D02*
X-69797327Y57014542D01*
X-69797327Y57014542D02*
X-69735422Y57037756D01*
X-69735422Y57037756D02*
X-69704470Y57064839D01*
X-69704470Y57064839D02*
X-69673517Y57122875D01*
X-69673517Y57122875D02*
X-69673517Y57246684D01*
X-69673517Y57246684D02*
X-69704470Y57312458D01*
X-69704470Y57312458D02*
X-69735422Y57347280D01*
X-69735422Y57347280D02*
X-69797327Y57385970D01*
X-69425898Y57618113D02*
X-70075898Y57699363D01*
X-69425898Y57896685D02*
X-69766374Y57939244D01*
X-69766374Y57939244D02*
X-69828279Y57916030D01*
X-69828279Y57916030D02*
X-69859231Y57857994D01*
X-69859231Y57857994D02*
X-69859231Y57765137D01*
X-69859231Y57765137D02*
X-69828279Y57699363D01*
X-69828279Y57699363D02*
X-69797327Y57664542D01*
D11*
X-70074598Y52039839D02*
X-70074598Y52101744D01*
X-70074598Y52101744D02*
X-70043646Y52159779D01*
X-70043646Y52159779D02*
X-70012693Y52186863D01*
X-70012693Y52186863D02*
X-69950789Y52210077D01*
X-69950789Y52210077D02*
X-69826979Y52225553D01*
X-69826979Y52225553D02*
X-69672217Y52206208D01*
X-69672217Y52206208D02*
X-69548408Y52159779D01*
X-69548408Y52159779D02*
X-69486503Y52121089D01*
X-69486503Y52121089D02*
X-69455550Y52086267D01*
X-69455550Y52086267D02*
X-69424598Y52020494D01*
X-69424598Y52020494D02*
X-69424598Y51958589D01*
X-69424598Y51958589D02*
X-69455550Y51900553D01*
X-69455550Y51900553D02*
X-69486503Y51873470D01*
X-69486503Y51873470D02*
X-69548408Y51850256D01*
X-69548408Y51850256D02*
X-69672217Y51834779D01*
X-69672217Y51834779D02*
X-69826979Y51854125D01*
X-69826979Y51854125D02*
X-69950789Y51900553D01*
X-69950789Y51900553D02*
X-70012693Y51939244D01*
X-70012693Y51939244D02*
X-70043646Y51974065D01*
X-70043646Y51974065D02*
X-70074598Y52039839D01*
X-69424598Y52391923D02*
X-69857931Y52786565D01*
X-69857931Y52446089D02*
X-69424598Y52732399D01*
X-69424598Y53320494D02*
X-69424598Y52949065D01*
X-69424598Y53134779D02*
X-70074598Y53216029D01*
X-70074598Y53216029D02*
X-69981741Y53142517D01*
X-69981741Y53142517D02*
X-69919836Y53072874D01*
X-69919836Y53072874D02*
X-69888884Y53007101D01*
X-69796027Y53738351D02*
X-69826979Y53680315D01*
X-69826979Y53680315D02*
X-69857931Y53653232D01*
X-69857931Y53653232D02*
X-69919836Y53630018D01*
X-69919836Y53630018D02*
X-69950789Y53633887D01*
X-69950789Y53633887D02*
X-70012693Y53672577D01*
X-70012693Y53672577D02*
X-70043646Y53707399D01*
X-70043646Y53707399D02*
X-70074598Y53773172D01*
X-70074598Y53773172D02*
X-70074598Y53896982D01*
X-70074598Y53896982D02*
X-70043646Y53955018D01*
X-70043646Y53955018D02*
X-70012693Y53982101D01*
X-70012693Y53982101D02*
X-69950789Y54005315D01*
X-69950789Y54005315D02*
X-69919836Y54001446D01*
X-69919836Y54001446D02*
X-69857931Y53962756D01*
X-69857931Y53962756D02*
X-69826979Y53927934D01*
X-69826979Y53927934D02*
X-69796027Y53862161D01*
X-69796027Y53862161D02*
X-69796027Y53738351D01*
X-69796027Y53738351D02*
X-69765074Y53672577D01*
X-69765074Y53672577D02*
X-69734122Y53637756D01*
X-69734122Y53637756D02*
X-69672217Y53599065D01*
X-69672217Y53599065D02*
X-69548408Y53583589D01*
X-69548408Y53583589D02*
X-69486503Y53606803D01*
X-69486503Y53606803D02*
X-69455550Y53633887D01*
X-69455550Y53633887D02*
X-69424598Y53691922D01*
X-69424598Y53691922D02*
X-69424598Y53815732D01*
X-69424598Y53815732D02*
X-69455550Y53881506D01*
X-69455550Y53881506D02*
X-69486503Y53916327D01*
X-69486503Y53916327D02*
X-69548408Y53955018D01*
X-69548408Y53955018D02*
X-69672217Y53970494D01*
X-69672217Y53970494D02*
X-69734122Y53947280D01*
X-69734122Y53947280D02*
X-69765074Y53920196D01*
X-69765074Y53920196D02*
X-69796027Y53862161D01*
X-69424598Y54218113D02*
X-70074598Y54299363D01*
X-69424598Y54496685D02*
X-69765074Y54539244D01*
X-69765074Y54539244D02*
X-69826979Y54516030D01*
X-69826979Y54516030D02*
X-69857931Y54457994D01*
X-69857931Y54457994D02*
X-69857931Y54365137D01*
X-69857931Y54365137D02*
X-69826979Y54299363D01*
X-69826979Y54299363D02*
X-69796027Y54264542D01*
X-69510312Y59205315D02*
X-69510312Y59514839D01*
X-69324598Y59143410D02*
X-69974598Y59360077D01*
X-69974598Y59360077D02*
X-69324598Y59576744D01*
X-69974598Y59917220D02*
X-69974598Y59979125D01*
X-69974598Y59979125D02*
X-69943646Y60041029D01*
X-69943646Y60041029D02*
X-69912693Y60071982D01*
X-69912693Y60071982D02*
X-69850789Y60102934D01*
X-69850789Y60102934D02*
X-69726979Y60133887D01*
X-69726979Y60133887D02*
X-69572217Y60133887D01*
X-69572217Y60133887D02*
X-69448408Y60102934D01*
X-69448408Y60102934D02*
X-69386503Y60071982D01*
X-69386503Y60071982D02*
X-69355550Y60041029D01*
X-69355550Y60041029D02*
X-69324598Y59979125D01*
X-69324598Y59979125D02*
X-69324598Y59917220D01*
X-69324598Y59917220D02*
X-69355550Y59855315D01*
X-69355550Y59855315D02*
X-69386503Y59824363D01*
X-69386503Y59824363D02*
X-69448408Y59793410D01*
X-69448408Y59793410D02*
X-69572217Y59762458D01*
X-69572217Y59762458D02*
X-69726979Y59762458D01*
X-69726979Y59762458D02*
X-69850789Y59793410D01*
X-69850789Y59793410D02*
X-69912693Y59824363D01*
X-69912693Y59824363D02*
X-69943646Y59855315D01*
X-69943646Y59855315D02*
X-69974598Y59917220D01*
X-51024598Y58970790D02*
X-51674598Y58970790D01*
X-51674598Y58970790D02*
X-51210312Y59187457D01*
X-51210312Y59187457D02*
X-51674598Y59404124D01*
X-51674598Y59404124D02*
X-51024598Y59404124D01*
X-51086503Y60085076D02*
X-51055550Y60054124D01*
X-51055550Y60054124D02*
X-51024598Y59961266D01*
X-51024598Y59961266D02*
X-51024598Y59899362D01*
X-51024598Y59899362D02*
X-51055550Y59806505D01*
X-51055550Y59806505D02*
X-51117455Y59744600D01*
X-51117455Y59744600D02*
X-51179360Y59713647D01*
X-51179360Y59713647D02*
X-51303170Y59682695D01*
X-51303170Y59682695D02*
X-51396027Y59682695D01*
X-51396027Y59682695D02*
X-51519836Y59713647D01*
X-51519836Y59713647D02*
X-51581741Y59744600D01*
X-51581741Y59744600D02*
X-51643646Y59806505D01*
X-51643646Y59806505D02*
X-51674598Y59899362D01*
X-51674598Y59899362D02*
X-51674598Y59961266D01*
X-51674598Y59961266D02*
X-51643646Y60054124D01*
X-51643646Y60054124D02*
X-51612693Y60085076D01*
X-51024598Y60363647D02*
X-51674598Y60363647D01*
X-51674598Y60363647D02*
X-51674598Y60611266D01*
X-51674598Y60611266D02*
X-51643646Y60673171D01*
X-51643646Y60673171D02*
X-51612693Y60704124D01*
X-51612693Y60704124D02*
X-51550789Y60735076D01*
X-51550789Y60735076D02*
X-51457931Y60735076D01*
X-51457931Y60735076D02*
X-51396027Y60704124D01*
X-51396027Y60704124D02*
X-51365074Y60673171D01*
X-51365074Y60673171D02*
X-51334122Y60611266D01*
X-51334122Y60611266D02*
X-51334122Y60363647D01*
X-51024598Y61044600D02*
X-51024598Y61168409D01*
X-51024598Y61168409D02*
X-51055550Y61230314D01*
X-51055550Y61230314D02*
X-51086503Y61261266D01*
X-51086503Y61261266D02*
X-51179360Y61323171D01*
X-51179360Y61323171D02*
X-51303170Y61354124D01*
X-51303170Y61354124D02*
X-51550789Y61354124D01*
X-51550789Y61354124D02*
X-51612693Y61323171D01*
X-51612693Y61323171D02*
X-51643646Y61292219D01*
X-51643646Y61292219D02*
X-51674598Y61230314D01*
X-51674598Y61230314D02*
X-51674598Y61106505D01*
X-51674598Y61106505D02*
X-51643646Y61044600D01*
X-51643646Y61044600D02*
X-51612693Y61013647D01*
X-51612693Y61013647D02*
X-51550789Y60982695D01*
X-51550789Y60982695D02*
X-51396027Y60982695D01*
X-51396027Y60982695D02*
X-51334122Y61013647D01*
X-51334122Y61013647D02*
X-51303170Y61044600D01*
X-51303170Y61044600D02*
X-51272217Y61106505D01*
X-51272217Y61106505D02*
X-51272217Y61230314D01*
X-51272217Y61230314D02*
X-51303170Y61292219D01*
X-51303170Y61292219D02*
X-51334122Y61323171D01*
X-51334122Y61323171D02*
X-51396027Y61354124D01*
X-51396027Y61725553D02*
X-51426979Y61663648D01*
X-51426979Y61663648D02*
X-51457931Y61632695D01*
X-51457931Y61632695D02*
X-51519836Y61601743D01*
X-51519836Y61601743D02*
X-51550789Y61601743D01*
X-51550789Y61601743D02*
X-51612693Y61632695D01*
X-51612693Y61632695D02*
X-51643646Y61663648D01*
X-51643646Y61663648D02*
X-51674598Y61725553D01*
X-51674598Y61725553D02*
X-51674598Y61849362D01*
X-51674598Y61849362D02*
X-51643646Y61911267D01*
X-51643646Y61911267D02*
X-51612693Y61942219D01*
X-51612693Y61942219D02*
X-51550789Y61973172D01*
X-51550789Y61973172D02*
X-51519836Y61973172D01*
X-51519836Y61973172D02*
X-51457931Y61942219D01*
X-51457931Y61942219D02*
X-51426979Y61911267D01*
X-51426979Y61911267D02*
X-51396027Y61849362D01*
X-51396027Y61849362D02*
X-51396027Y61725553D01*
X-51396027Y61725553D02*
X-51365074Y61663648D01*
X-51365074Y61663648D02*
X-51334122Y61632695D01*
X-51334122Y61632695D02*
X-51272217Y61601743D01*
X-51272217Y61601743D02*
X-51148408Y61601743D01*
X-51148408Y61601743D02*
X-51086503Y61632695D01*
X-51086503Y61632695D02*
X-51055550Y61663648D01*
X-51055550Y61663648D02*
X-51024598Y61725553D01*
X-51024598Y61725553D02*
X-51024598Y61849362D01*
X-51024598Y61849362D02*
X-51055550Y61911267D01*
X-51055550Y61911267D02*
X-51086503Y61942219D01*
X-51086503Y61942219D02*
X-51148408Y61973172D01*
X-51148408Y61973172D02*
X-51272217Y61973172D01*
X-51272217Y61973172D02*
X-51334122Y61942219D01*
X-51334122Y61942219D02*
X-51365074Y61911267D01*
X-51365074Y61911267D02*
X-51396027Y61849362D01*
X-51674598Y62375553D02*
X-51674598Y62437458D01*
X-51674598Y62437458D02*
X-51643646Y62499362D01*
X-51643646Y62499362D02*
X-51612693Y62530315D01*
X-51612693Y62530315D02*
X-51550789Y62561267D01*
X-51550789Y62561267D02*
X-51426979Y62592220D01*
X-51426979Y62592220D02*
X-51272217Y62592220D01*
X-51272217Y62592220D02*
X-51148408Y62561267D01*
X-51148408Y62561267D02*
X-51086503Y62530315D01*
X-51086503Y62530315D02*
X-51055550Y62499362D01*
X-51055550Y62499362D02*
X-51024598Y62437458D01*
X-51024598Y62437458D02*
X-51024598Y62375553D01*
X-51024598Y62375553D02*
X-51055550Y62313648D01*
X-51055550Y62313648D02*
X-51086503Y62282696D01*
X-51086503Y62282696D02*
X-51148408Y62251743D01*
X-51148408Y62251743D02*
X-51272217Y62220791D01*
X-51272217Y62220791D02*
X-51426979Y62220791D01*
X-51426979Y62220791D02*
X-51550789Y62251743D01*
X-51550789Y62251743D02*
X-51612693Y62282696D01*
X-51612693Y62282696D02*
X-51643646Y62313648D01*
X-51643646Y62313648D02*
X-51674598Y62375553D01*
X-51396027Y62963649D02*
X-51426979Y62901744D01*
X-51426979Y62901744D02*
X-51457931Y62870791D01*
X-51457931Y62870791D02*
X-51519836Y62839839D01*
X-51519836Y62839839D02*
X-51550789Y62839839D01*
X-51550789Y62839839D02*
X-51612693Y62870791D01*
X-51612693Y62870791D02*
X-51643646Y62901744D01*
X-51643646Y62901744D02*
X-51674598Y62963649D01*
X-51674598Y62963649D02*
X-51674598Y63087458D01*
X-51674598Y63087458D02*
X-51643646Y63149363D01*
X-51643646Y63149363D02*
X-51612693Y63180315D01*
X-51612693Y63180315D02*
X-51550789Y63211268D01*
X-51550789Y63211268D02*
X-51519836Y63211268D01*
X-51519836Y63211268D02*
X-51457931Y63180315D01*
X-51457931Y63180315D02*
X-51426979Y63149363D01*
X-51426979Y63149363D02*
X-51396027Y63087458D01*
X-51396027Y63087458D02*
X-51396027Y62963649D01*
X-51396027Y62963649D02*
X-51365074Y62901744D01*
X-51365074Y62901744D02*
X-51334122Y62870791D01*
X-51334122Y62870791D02*
X-51272217Y62839839D01*
X-51272217Y62839839D02*
X-51148408Y62839839D01*
X-51148408Y62839839D02*
X-51086503Y62870791D01*
X-51086503Y62870791D02*
X-51055550Y62901744D01*
X-51055550Y62901744D02*
X-51024598Y62963649D01*
X-51024598Y62963649D02*
X-51024598Y63087458D01*
X-51024598Y63087458D02*
X-51055550Y63149363D01*
X-51055550Y63149363D02*
X-51086503Y63180315D01*
X-51086503Y63180315D02*
X-51148408Y63211268D01*
X-51148408Y63211268D02*
X-51272217Y63211268D01*
X-51272217Y63211268D02*
X-51334122Y63180315D01*
X-51334122Y63180315D02*
X-51365074Y63149363D01*
X-51365074Y63149363D02*
X-51396027Y63087458D01*
X-50962693Y63335077D02*
X-50962693Y63830316D01*
X-51024598Y63985077D02*
X-51674598Y63985077D01*
X-51674598Y63985077D02*
X-51210312Y64201744D01*
X-51210312Y64201744D02*
X-51674598Y64418411D01*
X-51674598Y64418411D02*
X-51024598Y64418411D01*
X-51055550Y64696982D02*
X-51024598Y64789839D01*
X-51024598Y64789839D02*
X-51024598Y64944601D01*
X-51024598Y64944601D02*
X-51055550Y65006506D01*
X-51055550Y65006506D02*
X-51086503Y65037458D01*
X-51086503Y65037458D02*
X-51148408Y65068411D01*
X-51148408Y65068411D02*
X-51210312Y65068411D01*
X-51210312Y65068411D02*
X-51272217Y65037458D01*
X-51272217Y65037458D02*
X-51303170Y65006506D01*
X-51303170Y65006506D02*
X-51334122Y64944601D01*
X-51334122Y64944601D02*
X-51365074Y64820792D01*
X-51365074Y64820792D02*
X-51396027Y64758887D01*
X-51396027Y64758887D02*
X-51426979Y64727934D01*
X-51426979Y64727934D02*
X-51488884Y64696982D01*
X-51488884Y64696982D02*
X-51550789Y64696982D01*
X-51550789Y64696982D02*
X-51612693Y64727934D01*
X-51612693Y64727934D02*
X-51643646Y64758887D01*
X-51643646Y64758887D02*
X-51674598Y64820792D01*
X-51674598Y64820792D02*
X-51674598Y64975553D01*
X-51674598Y64975553D02*
X-51643646Y65068411D01*
X-51674598Y65470792D02*
X-51674598Y65594601D01*
X-51674598Y65594601D02*
X-51643646Y65656506D01*
X-51643646Y65656506D02*
X-51581741Y65718411D01*
X-51581741Y65718411D02*
X-51457931Y65749363D01*
X-51457931Y65749363D02*
X-51241265Y65749363D01*
X-51241265Y65749363D02*
X-51117455Y65718411D01*
X-51117455Y65718411D02*
X-51055550Y65656506D01*
X-51055550Y65656506D02*
X-51024598Y65594601D01*
X-51024598Y65594601D02*
X-51024598Y65470792D01*
X-51024598Y65470792D02*
X-51055550Y65408887D01*
X-51055550Y65408887D02*
X-51117455Y65346982D01*
X-51117455Y65346982D02*
X-51241265Y65316030D01*
X-51241265Y65316030D02*
X-51457931Y65316030D01*
X-51457931Y65316030D02*
X-51581741Y65346982D01*
X-51581741Y65346982D02*
X-51643646Y65408887D01*
X-51643646Y65408887D02*
X-51674598Y65470792D01*
X-51024598Y66027934D02*
X-51674598Y66027934D01*
X-51674598Y66027934D02*
X-51674598Y66275553D01*
X-51674598Y66275553D02*
X-51643646Y66337458D01*
X-51643646Y66337458D02*
X-51612693Y66368411D01*
X-51612693Y66368411D02*
X-51550789Y66399363D01*
X-51550789Y66399363D02*
X-51457931Y66399363D01*
X-51457931Y66399363D02*
X-51396027Y66368411D01*
X-51396027Y66368411D02*
X-51365074Y66337458D01*
X-51365074Y66337458D02*
X-51334122Y66275553D01*
X-51334122Y66275553D02*
X-51334122Y66027934D01*
X-50924598Y50560076D02*
X-51574598Y50560076D01*
X-51574598Y50560076D02*
X-51574598Y50807695D01*
X-51574598Y50807695D02*
X-51543646Y50869600D01*
X-51543646Y50869600D02*
X-51512693Y50900553D01*
X-51512693Y50900553D02*
X-51450789Y50931505D01*
X-51450789Y50931505D02*
X-51357931Y50931505D01*
X-51357931Y50931505D02*
X-51296027Y50900553D01*
X-51296027Y50900553D02*
X-51265074Y50869600D01*
X-51265074Y50869600D02*
X-51234122Y50807695D01*
X-51234122Y50807695D02*
X-51234122Y50560076D01*
X-50986503Y51581505D02*
X-50955550Y51550553D01*
X-50955550Y51550553D02*
X-50924598Y51457695D01*
X-50924598Y51457695D02*
X-50924598Y51395791D01*
X-50924598Y51395791D02*
X-50955550Y51302934D01*
X-50955550Y51302934D02*
X-51017455Y51241029D01*
X-51017455Y51241029D02*
X-51079360Y51210076D01*
X-51079360Y51210076D02*
X-51203170Y51179124D01*
X-51203170Y51179124D02*
X-51296027Y51179124D01*
X-51296027Y51179124D02*
X-51419836Y51210076D01*
X-51419836Y51210076D02*
X-51481741Y51241029D01*
X-51481741Y51241029D02*
X-51543646Y51302934D01*
X-51543646Y51302934D02*
X-51574598Y51395791D01*
X-51574598Y51395791D02*
X-51574598Y51457695D01*
X-51574598Y51457695D02*
X-51543646Y51550553D01*
X-51543646Y51550553D02*
X-51512693Y51581505D01*
X-51110312Y51829124D02*
X-51110312Y52138648D01*
X-50924598Y51767219D02*
X-51574598Y51983886D01*
X-51574598Y51983886D02*
X-50924598Y52200553D01*
X-50924598Y52448172D02*
X-50924598Y52571981D01*
X-50924598Y52571981D02*
X-50955550Y52633886D01*
X-50955550Y52633886D02*
X-50986503Y52664838D01*
X-50986503Y52664838D02*
X-51079360Y52726743D01*
X-51079360Y52726743D02*
X-51203170Y52757696D01*
X-51203170Y52757696D02*
X-51450789Y52757696D01*
X-51450789Y52757696D02*
X-51512693Y52726743D01*
X-51512693Y52726743D02*
X-51543646Y52695791D01*
X-51543646Y52695791D02*
X-51574598Y52633886D01*
X-51574598Y52633886D02*
X-51574598Y52510077D01*
X-51574598Y52510077D02*
X-51543646Y52448172D01*
X-51543646Y52448172D02*
X-51512693Y52417219D01*
X-51512693Y52417219D02*
X-51450789Y52386267D01*
X-51450789Y52386267D02*
X-51296027Y52386267D01*
X-51296027Y52386267D02*
X-51234122Y52417219D01*
X-51234122Y52417219D02*
X-51203170Y52448172D01*
X-51203170Y52448172D02*
X-51172217Y52510077D01*
X-51172217Y52510077D02*
X-51172217Y52633886D01*
X-51172217Y52633886D02*
X-51203170Y52695791D01*
X-51203170Y52695791D02*
X-51234122Y52726743D01*
X-51234122Y52726743D02*
X-51296027Y52757696D01*
X-51574598Y53314839D02*
X-51574598Y53191029D01*
X-51574598Y53191029D02*
X-51543646Y53129125D01*
X-51543646Y53129125D02*
X-51512693Y53098172D01*
X-51512693Y53098172D02*
X-51419836Y53036267D01*
X-51419836Y53036267D02*
X-51296027Y53005315D01*
X-51296027Y53005315D02*
X-51048408Y53005315D01*
X-51048408Y53005315D02*
X-50986503Y53036267D01*
X-50986503Y53036267D02*
X-50955550Y53067220D01*
X-50955550Y53067220D02*
X-50924598Y53129125D01*
X-50924598Y53129125D02*
X-50924598Y53252934D01*
X-50924598Y53252934D02*
X-50955550Y53314839D01*
X-50955550Y53314839D02*
X-50986503Y53345791D01*
X-50986503Y53345791D02*
X-51048408Y53376744D01*
X-51048408Y53376744D02*
X-51203170Y53376744D01*
X-51203170Y53376744D02*
X-51265074Y53345791D01*
X-51265074Y53345791D02*
X-51296027Y53314839D01*
X-51296027Y53314839D02*
X-51326979Y53252934D01*
X-51326979Y53252934D02*
X-51326979Y53129125D01*
X-51326979Y53129125D02*
X-51296027Y53067220D01*
X-51296027Y53067220D02*
X-51265074Y53036267D01*
X-51265074Y53036267D02*
X-51203170Y53005315D01*
X-50924598Y53995792D02*
X-50924598Y53624363D01*
X-50924598Y53810077D02*
X-51574598Y53810077D01*
X-51574598Y53810077D02*
X-51481741Y53748173D01*
X-51481741Y53748173D02*
X-51419836Y53686268D01*
X-51419836Y53686268D02*
X-51388884Y53624363D01*
X-51574598Y54583887D02*
X-51574598Y54274363D01*
X-51574598Y54274363D02*
X-51265074Y54243411D01*
X-51265074Y54243411D02*
X-51296027Y54274363D01*
X-51296027Y54274363D02*
X-51326979Y54336268D01*
X-51326979Y54336268D02*
X-51326979Y54491030D01*
X-51326979Y54491030D02*
X-51296027Y54552935D01*
X-51296027Y54552935D02*
X-51265074Y54583887D01*
X-51265074Y54583887D02*
X-51203170Y54614840D01*
X-51203170Y54614840D02*
X-51048408Y54614840D01*
X-51048408Y54614840D02*
X-50986503Y54583887D01*
X-50986503Y54583887D02*
X-50955550Y54552935D01*
X-50955550Y54552935D02*
X-50924598Y54491030D01*
X-50924598Y54491030D02*
X-50924598Y54336268D01*
X-50924598Y54336268D02*
X-50955550Y54274363D01*
X-50955550Y54274363D02*
X-50986503Y54243411D01*
X-50924598Y54893411D02*
X-51574598Y54893411D01*
X-51574598Y54893411D02*
X-51574598Y55048173D01*
X-51574598Y55048173D02*
X-51543646Y55141030D01*
X-51543646Y55141030D02*
X-51481741Y55202935D01*
X-51481741Y55202935D02*
X-51419836Y55233888D01*
X-51419836Y55233888D02*
X-51296027Y55264840D01*
X-51296027Y55264840D02*
X-51203170Y55264840D01*
X-51203170Y55264840D02*
X-51079360Y55233888D01*
X-51079360Y55233888D02*
X-51017455Y55202935D01*
X-51017455Y55202935D02*
X-50955550Y55141030D01*
X-50955550Y55141030D02*
X-50924598Y55048173D01*
X-50924598Y55048173D02*
X-50924598Y54893411D01*
X-50924598Y55543411D02*
X-51574598Y55543411D01*
X-51574598Y55543411D02*
X-51574598Y55791030D01*
X-51574598Y55791030D02*
X-51543646Y55852935D01*
X-51543646Y55852935D02*
X-51512693Y55883888D01*
X-51512693Y55883888D02*
X-51450789Y55914840D01*
X-51450789Y55914840D02*
X-51357931Y55914840D01*
X-51357931Y55914840D02*
X-51296027Y55883888D01*
X-51296027Y55883888D02*
X-51265074Y55852935D01*
X-51265074Y55852935D02*
X-51234122Y55791030D01*
X-51234122Y55791030D02*
X-51234122Y55543411D01*
X-51574598Y56379126D02*
X-51110312Y56379126D01*
X-51110312Y56379126D02*
X-51017455Y56348173D01*
X-51017455Y56348173D02*
X-50955550Y56286269D01*
X-50955550Y56286269D02*
X-50924598Y56193411D01*
X-50924598Y56193411D02*
X-50924598Y56131507D01*
X-63900125Y40671798D02*
X-64209649Y40671798D01*
X-64209649Y40671798D02*
X-64209649Y41321798D01*
X-63683459Y40671798D02*
X-63683459Y41321798D01*
X-63683459Y41321798D02*
X-63466792Y40857512D01*
X-63466792Y40857512D02*
X-63250125Y41321798D01*
X-63250125Y41321798D02*
X-63250125Y40671798D01*
X-62600125Y40671798D02*
X-62971554Y40671798D01*
X-62785840Y40671798D02*
X-62785840Y41321798D01*
X-62785840Y41321798D02*
X-62847744Y41228941D01*
X-62847744Y41228941D02*
X-62909649Y41167036D01*
X-62909649Y41167036D02*
X-62971554Y41136084D01*
X-61981077Y40671798D02*
X-62352506Y40671798D01*
X-62166792Y40671798D02*
X-62166792Y41321798D01*
X-62166792Y41321798D02*
X-62228696Y41228941D01*
X-62228696Y41228941D02*
X-62290601Y41167036D01*
X-62290601Y41167036D02*
X-62352506Y41136084D01*
X-61362029Y40671798D02*
X-61733458Y40671798D01*
X-61547744Y40671798D02*
X-61547744Y41321798D01*
X-61547744Y41321798D02*
X-61609648Y41228941D01*
X-61609648Y41228941D02*
X-61671553Y41167036D01*
X-61671553Y41167036D02*
X-61733458Y41136084D01*
X-61145362Y41321798D02*
X-60712029Y41321798D01*
X-60712029Y41321798D02*
X-60990600Y40671798D01*
X-60464410Y40919417D02*
X-59969171Y40919417D01*
X-59721552Y41321798D02*
X-59319171Y41321798D01*
X-59319171Y41321798D02*
X-59535838Y41074179D01*
X-59535838Y41074179D02*
X-59442981Y41074179D01*
X-59442981Y41074179D02*
X-59381076Y41043227D01*
X-59381076Y41043227D02*
X-59350124Y41012274D01*
X-59350124Y41012274D02*
X-59319171Y40950370D01*
X-59319171Y40950370D02*
X-59319171Y40795608D01*
X-59319171Y40795608D02*
X-59350124Y40733703D01*
X-59350124Y40733703D02*
X-59381076Y40702750D01*
X-59381076Y40702750D02*
X-59442981Y40671798D01*
X-59442981Y40671798D02*
X-59628695Y40671798D01*
X-59628695Y40671798D02*
X-59690600Y40702750D01*
X-59690600Y40702750D02*
X-59721552Y40733703D01*
X-59040600Y40733703D02*
X-59009647Y40702750D01*
X-59009647Y40702750D02*
X-59040600Y40671798D01*
X-59040600Y40671798D02*
X-59071552Y40702750D01*
X-59071552Y40702750D02*
X-59040600Y40733703D01*
X-59040600Y40733703D02*
X-59040600Y40671798D01*
X-58792980Y41321798D02*
X-58390599Y41321798D01*
X-58390599Y41321798D02*
X-58607266Y41074179D01*
X-58607266Y41074179D02*
X-58514409Y41074179D01*
X-58514409Y41074179D02*
X-58452504Y41043227D01*
X-58452504Y41043227D02*
X-58421552Y41012274D01*
X-58421552Y41012274D02*
X-58390599Y40950370D01*
X-58390599Y40950370D02*
X-58390599Y40795608D01*
X-58390599Y40795608D02*
X-58421552Y40733703D01*
X-58421552Y40733703D02*
X-58452504Y40702750D01*
X-58452504Y40702750D02*
X-58514409Y40671798D01*
X-58514409Y40671798D02*
X-58700123Y40671798D01*
X-58700123Y40671798D02*
X-58762028Y40702750D01*
X-58762028Y40702750D02*
X-58792980Y40733703D01*
X-53453325Y40561112D02*
X-53143801Y40561112D01*
X-53515230Y40375398D02*
X-53298563Y41025398D01*
X-53298563Y41025398D02*
X-53081896Y40375398D01*
X-52865230Y40375398D02*
X-52865230Y41025398D01*
X-52865230Y41025398D02*
X-52617611Y41025398D01*
X-52617611Y41025398D02*
X-52555706Y40994446D01*
X-52555706Y40994446D02*
X-52524753Y40963493D01*
X-52524753Y40963493D02*
X-52493801Y40901589D01*
X-52493801Y40901589D02*
X-52493801Y40808731D01*
X-52493801Y40808731D02*
X-52524753Y40746827D01*
X-52524753Y40746827D02*
X-52555706Y40715874D01*
X-52555706Y40715874D02*
X-52617611Y40684922D01*
X-52617611Y40684922D02*
X-52865230Y40684922D01*
X-52246182Y40963493D02*
X-52215230Y40994446D01*
X-52215230Y40994446D02*
X-52153325Y41025398D01*
X-52153325Y41025398D02*
X-51998563Y41025398D01*
X-51998563Y41025398D02*
X-51936658Y40994446D01*
X-51936658Y40994446D02*
X-51905706Y40963493D01*
X-51905706Y40963493D02*
X-51874753Y40901589D01*
X-51874753Y40901589D02*
X-51874753Y40839684D01*
X-51874753Y40839684D02*
X-51905706Y40746827D01*
X-51905706Y40746827D02*
X-52277134Y40375398D01*
X-52277134Y40375398D02*
X-51874753Y40375398D01*
X-51627134Y40963493D02*
X-51596182Y40994446D01*
X-51596182Y40994446D02*
X-51534277Y41025398D01*
X-51534277Y41025398D02*
X-51379515Y41025398D01*
X-51379515Y41025398D02*
X-51317610Y40994446D01*
X-51317610Y40994446D02*
X-51286658Y40963493D01*
X-51286658Y40963493D02*
X-51255705Y40901589D01*
X-51255705Y40901589D02*
X-51255705Y40839684D01*
X-51255705Y40839684D02*
X-51286658Y40746827D01*
X-51286658Y40746827D02*
X-51658086Y40375398D01*
X-51658086Y40375398D02*
X-51255705Y40375398D01*
X-50636657Y40375398D02*
X-51008086Y40375398D01*
X-50822372Y40375398D02*
X-50822372Y41025398D01*
X-50822372Y41025398D02*
X-50884276Y40932541D01*
X-50884276Y40932541D02*
X-50946181Y40870636D01*
X-50946181Y40870636D02*
X-51008086Y40839684D01*
X-50234276Y41025398D02*
X-50172371Y41025398D01*
X-50172371Y41025398D02*
X-50110467Y40994446D01*
X-50110467Y40994446D02*
X-50079514Y40963493D01*
X-50079514Y40963493D02*
X-50048562Y40901589D01*
X-50048562Y40901589D02*
X-50017609Y40777779D01*
X-50017609Y40777779D02*
X-50017609Y40623017D01*
X-50017609Y40623017D02*
X-50048562Y40499208D01*
X-50048562Y40499208D02*
X-50079514Y40437303D01*
X-50079514Y40437303D02*
X-50110467Y40406350D01*
X-50110467Y40406350D02*
X-50172371Y40375398D01*
X-50172371Y40375398D02*
X-50234276Y40375398D01*
X-50234276Y40375398D02*
X-50296181Y40406350D01*
X-50296181Y40406350D02*
X-50327133Y40437303D01*
X-50327133Y40437303D02*
X-50358086Y40499208D01*
X-50358086Y40499208D02*
X-50389038Y40623017D01*
X-50389038Y40623017D02*
X-50389038Y40777779D01*
X-50389038Y40777779D02*
X-50358086Y40901589D01*
X-50358086Y40901589D02*
X-50327133Y40963493D01*
X-50327133Y40963493D02*
X-50296181Y40994446D01*
X-50296181Y40994446D02*
X-50234276Y41025398D01*
X-49739038Y40375398D02*
X-49739038Y41025398D01*
X-49739038Y41025398D02*
X-49367609Y40375398D01*
X-49367609Y40375398D02*
X-49367609Y41025398D01*
X-49058086Y40623017D02*
X-48562847Y40623017D01*
X-48315228Y41025398D02*
X-47912847Y41025398D01*
X-47912847Y41025398D02*
X-48129514Y40777779D01*
X-48129514Y40777779D02*
X-48036657Y40777779D01*
X-48036657Y40777779D02*
X-47974752Y40746827D01*
X-47974752Y40746827D02*
X-47943800Y40715874D01*
X-47943800Y40715874D02*
X-47912847Y40653970D01*
X-47912847Y40653970D02*
X-47912847Y40499208D01*
X-47912847Y40499208D02*
X-47943800Y40437303D01*
X-47943800Y40437303D02*
X-47974752Y40406350D01*
X-47974752Y40406350D02*
X-48036657Y40375398D01*
X-48036657Y40375398D02*
X-48222371Y40375398D01*
X-48222371Y40375398D02*
X-48284276Y40406350D01*
X-48284276Y40406350D02*
X-48315228Y40437303D01*
X-47634276Y40437303D02*
X-47603323Y40406350D01*
X-47603323Y40406350D02*
X-47634276Y40375398D01*
X-47634276Y40375398D02*
X-47665228Y40406350D01*
X-47665228Y40406350D02*
X-47634276Y40437303D01*
X-47634276Y40437303D02*
X-47634276Y40375398D01*
X-47200942Y41025398D02*
X-47139037Y41025398D01*
X-47139037Y41025398D02*
X-47077133Y40994446D01*
X-47077133Y40994446D02*
X-47046180Y40963493D01*
X-47046180Y40963493D02*
X-47015228Y40901589D01*
X-47015228Y40901589D02*
X-46984275Y40777779D01*
X-46984275Y40777779D02*
X-46984275Y40623017D01*
X-46984275Y40623017D02*
X-47015228Y40499208D01*
X-47015228Y40499208D02*
X-47046180Y40437303D01*
X-47046180Y40437303D02*
X-47077133Y40406350D01*
X-47077133Y40406350D02*
X-47139037Y40375398D01*
X-47139037Y40375398D02*
X-47200942Y40375398D01*
X-47200942Y40375398D02*
X-47262847Y40406350D01*
X-47262847Y40406350D02*
X-47293799Y40437303D01*
X-47293799Y40437303D02*
X-47324752Y40499208D01*
X-47324752Y40499208D02*
X-47355704Y40623017D01*
X-47355704Y40623017D02*
X-47355704Y40777779D01*
X-47355704Y40777779D02*
X-47324752Y40901589D01*
X-47324752Y40901589D02*
X-47293799Y40963493D01*
X-47293799Y40963493D02*
X-47262847Y40994446D01*
X-47262847Y40994446D02*
X-47200942Y41025398D01*
D12*
%TO.C,R7*%
X-74305900Y64397658D02*
X-74305900Y63923142D01*
X-75350900Y64397658D02*
X-75350900Y63923142D01*
%TO.C,J3*%
X-68640000Y61020000D02*
X-67310000Y61020000D01*
X-68640000Y59690000D02*
X-68640000Y61020000D01*
X-68640000Y58420000D02*
X-68640000Y53280000D01*
X-68640000Y58420000D02*
X-65980000Y58420000D01*
X-68640000Y53280000D02*
X-65980000Y53280000D01*
X-65980000Y58420000D02*
X-65980000Y53280000D01*
%TO.C,J6*%
X-90874200Y59498000D02*
X-90874200Y58448000D01*
X-93374200Y59498000D02*
X-90874200Y59498000D01*
X-90874200Y58448000D02*
X-89884200Y58448000D01*
X-95344200Y58328000D02*
X-95344200Y54448000D01*
X-90874200Y53278000D02*
X-90874200Y54328000D01*
X-93374200Y53278000D02*
X-90874200Y53278000D01*
%TO.C,R10*%
X-60437500Y53577258D02*
X-60437500Y53102742D01*
X-61482500Y53577258D02*
X-61482500Y53102742D01*
%TO.C,R11*%
X-62875900Y53526458D02*
X-62875900Y53051942D01*
X-63920900Y53526458D02*
X-63920900Y53051942D01*
%TO.C,JP2*%
X-75026800Y61659200D02*
X-74426800Y61659200D01*
X-73726800Y60959200D02*
X-73726800Y59559200D01*
X-75726800Y59559200D02*
X-75726800Y60959200D01*
X-74426800Y58859200D02*
X-75026800Y58859200D01*
X-73726800Y60959200D02*
G75*
G03*
X-74426800Y61659200I-699999J1D01*
G01*
X-75026800Y61659200D02*
G75*
G03*
X-75726800Y60959200I-1J-699999D01*
G01*
X-74426800Y58859200D02*
G75*
G03*
X-73726800Y59559200I0J700000D01*
G01*
X-75726800Y59559200D02*
G75*
G03*
X-75026800Y58859200I700000J0D01*
G01*
%TO.C,JP3*%
X-71818800Y61669600D02*
X-71218800Y61669600D01*
X-70518800Y60969600D02*
X-70518800Y59569600D01*
X-72518800Y59569600D02*
X-72518800Y60969600D01*
X-71218800Y58869600D02*
X-71818800Y58869600D01*
X-70518800Y60969600D02*
G75*
G03*
X-71218800Y61669600I-699999J1D01*
G01*
X-71818800Y61669600D02*
G75*
G03*
X-72518800Y60969600I-1J-699999D01*
G01*
X-71218800Y58869600D02*
G75*
G03*
X-70518800Y59569600I0J700000D01*
G01*
X-72518800Y59569600D02*
G75*
G03*
X-71818800Y58869600I700000J0D01*
G01*
%TO.C,JP4*%
X-80208400Y50777600D02*
X-79608400Y50777600D01*
X-78908400Y50077600D02*
X-78908400Y48677600D01*
X-80908400Y48677600D02*
X-80908400Y50077600D01*
X-79608400Y47977600D02*
X-80208400Y47977600D01*
X-78908400Y50077600D02*
G75*
G03*
X-79608400Y50777600I-699999J1D01*
G01*
X-80208400Y50777600D02*
G75*
G03*
X-80908400Y50077600I-1J-699999D01*
G01*
X-79608400Y47977600D02*
G75*
G03*
X-78908400Y48677600I0J700000D01*
G01*
X-80908400Y48677600D02*
G75*
G03*
X-80208400Y47977600I700000J0D01*
G01*
%TO.C,JP5*%
X-85491600Y50726800D02*
X-84891600Y50726800D01*
X-84191600Y50026800D02*
X-84191600Y48626800D01*
X-86191600Y48626800D02*
X-86191600Y50026800D01*
X-84891600Y47926800D02*
X-85491600Y47926800D01*
X-84191600Y50026800D02*
G75*
G03*
X-84891600Y50726800I-699999J1D01*
G01*
X-85491600Y50726800D02*
G75*
G03*
X-86191600Y50026800I-1J-699999D01*
G01*
X-84891600Y47926800D02*
G75*
G03*
X-84191600Y48626800I0J700000D01*
G01*
X-86191600Y48626800D02*
G75*
G03*
X-85491600Y47926800I700000J0D01*
G01*
%TO.C,R8*%
X-66533500Y64550058D02*
X-66533500Y64075542D01*
X-67578500Y64550058D02*
X-67578500Y64075542D01*
%TO.C,R9*%
X-71105500Y64397658D02*
X-71105500Y63923142D01*
X-72150500Y64397658D02*
X-72150500Y63923142D01*
%TO.C,R12*%
X-81119858Y42737300D02*
X-80645342Y42737300D01*
X-81119858Y41692300D02*
X-80645342Y41692300D01*
%TO.C,R13*%
X-87054458Y42635700D02*
X-86579942Y42635700D01*
X-87054458Y41590700D02*
X-86579942Y41590700D01*
%TO.C,C1*%
X-54672620Y56233600D02*
X-54953780Y56233600D01*
X-54672620Y57253600D02*
X-54953780Y57253600D01*
%TO.C,C2*%
X-51078800Y71329020D02*
X-51078800Y71610180D01*
X-50058800Y71329020D02*
X-50058800Y71610180D01*
%TO.C,C3*%
X-53748800Y71299020D02*
X-53748800Y71580180D01*
X-52728800Y71299020D02*
X-52728800Y71580180D01*
%TO.C,C4*%
X-67816000Y71666980D02*
X-67816000Y71385820D01*
X-68836000Y71666980D02*
X-68836000Y71385820D01*
%TO.C,C5*%
X-65849950Y71716980D02*
X-65849950Y71435820D01*
X-66869950Y71716980D02*
X-66869950Y71435820D01*
%TO.C,C6*%
X-63788800Y71690180D02*
X-63788800Y71409020D01*
X-64808800Y71690180D02*
X-64808800Y71409020D01*
%TO.C,C7*%
X-46022800Y68415780D02*
X-46022800Y68134620D01*
X-47042800Y68415780D02*
X-47042800Y68134620D01*
%TO.C,D1*%
X-53628800Y58769600D02*
X-53628800Y59969600D01*
X-55588800Y58769600D02*
X-53628800Y58769600D01*
X-55588800Y59969600D02*
X-53628800Y59969600D01*
%TO.C,F1*%
X-58248800Y71398178D02*
X-58248800Y70881022D01*
X-59668800Y71398178D02*
X-59668800Y70881022D01*
%TO.C,FB1*%
X-48028800Y71259600D02*
X-48028800Y71859600D01*
X-47428800Y71259600D02*
X-47428800Y71859600D01*
%TO.C,J1*%
X-37665200Y65088400D02*
X-38165200Y64588400D01*
X-38665200Y65088400D02*
X-37665200Y65088400D01*
X-38165200Y64588400D02*
X-38665200Y65088400D01*
X-30755200Y64393400D02*
X-38365200Y64393400D01*
X-46725200Y64393400D02*
X-41165200Y64393400D01*
X-30755200Y64348400D02*
X-30755200Y47708400D01*
X-46725200Y64348400D02*
X-46725200Y47663400D01*
X-30755200Y47663400D02*
X-38365200Y47663400D01*
X-46725200Y47663400D02*
X-41165200Y47663400D01*
%TO.C,R1*%
X-42879100Y72424058D02*
X-42879100Y71949542D01*
X-43924100Y72424058D02*
X-43924100Y71949542D01*
%TO.C,R2*%
X-39965100Y72424058D02*
X-39965100Y71949542D01*
X-41010100Y72424058D02*
X-41010100Y71949542D01*
%TO.C,R3*%
X-37396300Y72506858D02*
X-37396300Y72032342D01*
X-38441300Y72506858D02*
X-38441300Y72032342D01*
%TO.C,R4*%
X-42962300Y68512458D02*
X-42962300Y68037942D01*
X-44007300Y68512458D02*
X-44007300Y68037942D01*
%TO.C,R5*%
X-40066700Y68401858D02*
X-40066700Y67927342D01*
X-41111700Y68401858D02*
X-41111700Y67927342D01*
%TO.C,R6*%
X-37396300Y68606858D02*
X-37396300Y68132342D01*
X-38441300Y68606858D02*
X-38441300Y68132342D01*
%TO.C,U1*%
X-55067200Y64348000D02*
X-57992200Y64348000D01*
X-55067200Y64348000D02*
X-53567200Y64348000D01*
X-55067200Y61128000D02*
X-56567200Y61128000D01*
X-55067200Y61128000D02*
X-53567200Y61128000D01*
D10*
%TO.C,U2*%
X-56692200Y55371400D02*
X-56692200Y55196400D01*
X-56692200Y55371400D02*
X-53442200Y55371400D01*
X-56692200Y55196400D02*
X-57767200Y55196400D01*
X-56692200Y52121400D02*
X-56692200Y52396400D01*
X-56692200Y52121400D02*
X-53442200Y52121400D01*
X-53442200Y55371400D02*
X-53442200Y55096400D01*
X-53442200Y52121400D02*
X-53442200Y52396400D01*
D12*
%TO.C,U4*%
X-65415600Y48876000D02*
X-59405600Y48876000D01*
X-63165600Y42056000D02*
X-59405600Y42056000D01*
X-59405600Y48876000D02*
X-59405600Y47616000D01*
X-59405600Y42056000D02*
X-59405600Y43316000D01*
%TO.C,C9*%
X-68194420Y46226000D02*
X-68475580Y46226000D01*
X-68194420Y47246000D02*
X-68475580Y47246000D01*
%TO.C,C8*%
X-68083820Y42466800D02*
X-68364980Y42466800D01*
X-68083820Y43486800D02*
X-68364980Y43486800D01*
%TO.C,C10*%
X-42507780Y45366400D02*
X-42226620Y45366400D01*
X-42507780Y44346400D02*
X-42226620Y44346400D01*
%TO.C,C11*%
X-42559380Y42079600D02*
X-42278220Y42079600D01*
X-42559380Y41059600D02*
X-42278220Y41059600D01*
D13*
%TO.C,U5*%
X-52642800Y43672000D02*
G75*
G03*
X-52642800Y43672000I-100000J0D01*
G01*
X-52542800Y43672000D02*
G75*
G03*
X-52542800Y43672000I-100000J0D01*
G01*
X-52501381Y43672000D02*
G75*
G03*
X-52501381Y43672000I-141419J0D01*
G01*
X-52419194Y43672000D02*
G75*
G03*
X-52419194Y43672000I-223606J0D01*
G01*
D12*
%TO.C,U3*%
X-86388800Y44043200D02*
X-71088800Y44043200D01*
X-86388800Y44043200D02*
X-86388800Y46703200D01*
X-71088800Y44043200D02*
X-71088800Y46703200D01*
X-88988800Y45373200D02*
X-88988800Y46703200D01*
X-88988800Y46703200D02*
X-87658800Y46703200D01*
X-86388800Y46703200D02*
X-71088800Y46703200D01*
X-71088800Y67093200D02*
X-71088800Y69753200D01*
X-89090500Y67094100D02*
X-71088800Y67093200D01*
X-89090500Y67094100D02*
X-89090500Y69735700D01*
X-89090500Y69748400D02*
X-71088800Y69753200D01*
%TO.C,J4*%
X-50648800Y68399600D02*
X-49318800Y68399600D01*
X-50648800Y67069600D02*
X-50648800Y68399600D01*
X-50648800Y65799600D02*
X-50648800Y45419600D01*
X-50648800Y65799600D02*
X-47988800Y65799600D01*
X-50648800Y45419600D02*
X-47988800Y45419600D01*
X-47988800Y65799600D02*
X-47988800Y45419600D01*
%TO.C,JP6*%
X-53711600Y43818000D02*
X-53711600Y41018000D01*
X-55711600Y43818000D02*
X-53711600Y43818000D01*
X-53711600Y41018000D02*
X-55711600Y41018000D01*
X-55711600Y41018000D02*
X-55711600Y43818000D01*
%TO.C,JP7*%
X-55711600Y44777200D02*
X-55711600Y47577200D01*
X-53711600Y44777200D02*
X-55711600Y44777200D01*
X-55711600Y47577200D02*
X-53711600Y47577200D01*
X-53711600Y47577200D02*
X-53711600Y44777200D01*
%TO.C,JP8*%
X-44218800Y45169600D02*
X-44218800Y44569600D01*
X-44918800Y43869600D02*
X-46318800Y43869600D01*
X-46318800Y45869600D02*
X-44918800Y45869600D01*
X-47018800Y44569600D02*
X-47018800Y45169600D01*
X-44918800Y43869600D02*
G75*
G03*
X-44218800Y44569600I1J699999D01*
G01*
X-44218800Y45169600D02*
G75*
G03*
X-44918800Y45869600I-699999J1D01*
G01*
X-47018800Y44569600D02*
G75*
G03*
X-46318800Y43869600I700000J0D01*
G01*
X-46318800Y45869600D02*
G75*
G03*
X-47018800Y45169600I0J-700000D01*
G01*
%TO.C,JP9*%
X-44218800Y42169600D02*
X-44218800Y41569600D01*
X-44918800Y40869600D02*
X-46318800Y40869600D01*
X-46318800Y42869600D02*
X-44918800Y42869600D01*
X-47018800Y41569600D02*
X-47018800Y42169600D01*
X-44918800Y40869600D02*
G75*
G03*
X-44218800Y41569600I1J699999D01*
G01*
X-44218800Y42169600D02*
G75*
G03*
X-44918800Y42869600I-699999J1D01*
G01*
X-47018800Y41569600D02*
G75*
G03*
X-46318800Y40869600I700000J0D01*
G01*
X-46318800Y42869600D02*
G75*
G03*
X-47018800Y42169600I0J-700000D01*
G01*
%TO.C,JP10*%
X-38400000Y45769600D02*
X-37800000Y45769600D01*
X-37100000Y45069600D02*
X-37100000Y43669600D01*
X-39100000Y43669600D02*
X-39100000Y45069600D01*
X-37800000Y42969600D02*
X-38400000Y42969600D01*
X-37100000Y45069600D02*
G75*
G03*
X-37800000Y45769600I-699999J1D01*
G01*
X-38400000Y45769600D02*
G75*
G03*
X-39100000Y45069600I-1J-699999D01*
G01*
X-37800000Y42969600D02*
G75*
G03*
X-37100000Y43669600I0J700000D01*
G01*
X-39100000Y43669600D02*
G75*
G03*
X-38400000Y42969600I700000J0D01*
G01*
%TO.C,JP1*%
X-62618800Y58669600D02*
X-62018800Y58669600D01*
X-61318800Y57969600D02*
X-61318800Y56569600D01*
X-63318800Y56569600D02*
X-63318800Y57969600D01*
X-62018800Y55869600D02*
X-62618800Y55869600D01*
X-61318800Y57969600D02*
G75*
G03*
X-62018800Y58669600I-699999J1D01*
G01*
X-62618800Y58669600D02*
G75*
G03*
X-63318800Y57969600I-1J-699999D01*
G01*
X-62018800Y55869600D02*
G75*
G03*
X-61318800Y56569600I0J700000D01*
G01*
X-63318800Y56569600D02*
G75*
G03*
X-62618800Y55869600I700000J0D01*
G01*
%TD*%
%LPC*%
D14*
%TO.C,R7*%
X-74828400Y64985400D03*
X-74828400Y63335400D03*
%TD*%
D15*
%TO.C,MK1*%
X-92648800Y72029600D03*
%TD*%
%TO.C,MK2*%
X-33628800Y71749600D03*
%TD*%
D16*
%TO.C,J3*%
X-67310000Y59690000D03*
D17*
X-67310000Y57150000D03*
X-67310000Y54610000D03*
%TD*%
D18*
%TO.C,J6*%
X-90659200Y57888000D03*
X-90659200Y56888000D03*
X-90659200Y55888000D03*
X-90659200Y54888000D03*
D19*
X-94534200Y59188000D03*
X-94534200Y53588000D03*
%TD*%
D14*
%TO.C,R10*%
X-60960000Y54165000D03*
X-60960000Y52515000D03*
%TD*%
%TO.C,R11*%
X-63398400Y54114200D03*
X-63398400Y52464200D03*
%TD*%
D20*
%TO.C,JP2*%
X-74726800Y60909200D03*
D21*
X-74726800Y59609200D03*
%TD*%
D20*
%TO.C,JP3*%
X-71518800Y60919600D03*
D21*
X-71518800Y59619600D03*
%TD*%
D20*
%TO.C,JP4*%
X-79908400Y50027600D03*
D21*
X-79908400Y48727600D03*
%TD*%
D20*
%TO.C,JP5*%
X-85191600Y49976800D03*
D21*
X-85191600Y48676800D03*
%TD*%
D14*
%TO.C,R8*%
X-67056000Y65137800D03*
X-67056000Y63487800D03*
%TD*%
%TO.C,R9*%
X-71628000Y64985400D03*
X-71628000Y63335400D03*
%TD*%
D22*
%TO.C,R12*%
X-81707600Y42214800D03*
X-80057600Y42214800D03*
%TD*%
%TO.C,R13*%
X-87642200Y42113200D03*
X-85992200Y42113200D03*
%TD*%
D23*
%TO.C,C1*%
X-54038200Y56743600D03*
X-55588200Y56743600D03*
%TD*%
D24*
%TO.C,C2*%
X-50568800Y70694600D03*
X-50568800Y72244600D03*
%TD*%
%TO.C,C3*%
X-53238800Y70664600D03*
X-53238800Y72214600D03*
%TD*%
D25*
%TO.C,C4*%
X-68326000Y72301400D03*
X-68326000Y70751400D03*
%TD*%
%TO.C,C5*%
X-66359950Y72351400D03*
X-66359950Y70801400D03*
%TD*%
%TO.C,C6*%
X-64298800Y72324600D03*
X-64298800Y70774600D03*
%TD*%
%TO.C,C7*%
X-46532800Y69050200D03*
X-46532800Y67500200D03*
%TD*%
D26*
%TO.C,D1*%
X-54188800Y59369600D03*
X-55588800Y59369600D03*
%TD*%
D27*
%TO.C,F1*%
X-58958800Y72077100D03*
X-58958800Y70202100D03*
%TD*%
D28*
%TO.C,FB1*%
X-47728800Y70859600D03*
X-47728800Y72259600D03*
%TD*%
D29*
%TO.C,J1*%
X-36325200Y62378400D03*
X-36325200Y49678400D03*
D30*
X-38865200Y59588400D03*
D31*
X-40645200Y58572400D03*
X-38865200Y57556400D03*
X-40645200Y56540400D03*
X-38865200Y55524400D03*
X-40645200Y54508400D03*
X-38865200Y53492400D03*
X-40645200Y52476400D03*
D32*
X-39755200Y64158400D03*
X-39755200Y47898400D03*
%TD*%
D14*
%TO.C,R1*%
X-43401600Y73011800D03*
X-43401600Y71361800D03*
%TD*%
%TO.C,R2*%
X-40487600Y73011800D03*
X-40487600Y71361800D03*
%TD*%
%TO.C,R3*%
X-37918800Y73094600D03*
X-37918800Y71444600D03*
%TD*%
%TO.C,R4*%
X-43484800Y69100200D03*
X-43484800Y67450200D03*
%TD*%
%TO.C,R5*%
X-40589200Y68989600D03*
X-40589200Y67339600D03*
%TD*%
%TO.C,R6*%
X-37918800Y69194600D03*
X-37918800Y67544600D03*
%TD*%
D33*
%TO.C,U1*%
X-57179700Y63713000D03*
X-57179700Y63063000D03*
X-57179700Y62413000D03*
X-57179700Y61763000D03*
X-52954700Y61763000D03*
X-52954700Y62413000D03*
X-52954700Y63063000D03*
X-52954700Y63713000D03*
%TD*%
D34*
%TO.C,U2*%
X-57217200Y54746400D03*
X-57217200Y54246400D03*
X-57217200Y53746400D03*
X-57217200Y53246400D03*
X-57217200Y52746400D03*
X-52917200Y52746400D03*
X-52917200Y53246400D03*
X-52917200Y53746400D03*
X-52917200Y54246400D03*
X-52917200Y54746400D03*
%TD*%
D15*
%TO.C,MK4*%
X-33678800Y42519600D03*
%TD*%
%TO.C,MK3*%
X-92398800Y42469600D03*
%TD*%
D35*
%TO.C,U4*%
X-64465600Y47766000D03*
X-64465600Y45466000D03*
D36*
X-58165600Y45466000D03*
D35*
X-64465600Y43166000D03*
%TD*%
D23*
%TO.C,C9*%
X-67560000Y46736000D03*
X-69110000Y46736000D03*
%TD*%
%TO.C,C8*%
X-67449400Y42976800D03*
X-68999400Y42976800D03*
%TD*%
D37*
%TO.C,C10*%
X-43142200Y44856400D03*
X-41592200Y44856400D03*
%TD*%
%TO.C,C11*%
X-43193800Y41569600D03*
X-41643800Y41569600D03*
%TD*%
D38*
%TO.C,U5*%
X-51642800Y43622000D03*
X-51642800Y41722000D03*
X-49042800Y42672000D03*
%TD*%
D16*
%TO.C,U3*%
X-87658800Y45373200D03*
D17*
X-85118800Y45373200D03*
X-82578800Y45373200D03*
X-80038800Y45373200D03*
X-77498800Y45373200D03*
X-74958800Y45373200D03*
X-72418800Y45373200D03*
X-72418800Y68423200D03*
X-74958800Y68423200D03*
X-77498800Y68423200D03*
X-80038800Y68423200D03*
X-82578800Y68423200D03*
X-85118800Y68423200D03*
X-87579200Y68382000D03*
%TD*%
D16*
%TO.C,J4*%
X-49318800Y67069600D03*
D17*
X-49318800Y64529600D03*
X-49318800Y61989600D03*
X-49318800Y59449600D03*
X-49318800Y56909600D03*
X-49318800Y54369600D03*
X-49318800Y51829600D03*
X-49318800Y49289600D03*
X-49318800Y46749600D03*
%TD*%
D39*
%TO.C,JP6*%
X-54711600Y43068000D03*
X-54711600Y41768000D03*
%TD*%
%TO.C,JP7*%
X-54711600Y45527200D03*
X-54711600Y46827200D03*
%TD*%
D40*
%TO.C,JP8*%
X-44968800Y44869600D03*
D41*
X-46268800Y44869600D03*
%TD*%
D40*
%TO.C,JP9*%
X-44968800Y41869600D03*
D41*
X-46268800Y41869600D03*
%TD*%
D20*
%TO.C,JP10*%
X-38100000Y45019600D03*
D21*
X-38100000Y43719600D03*
%TD*%
D20*
%TO.C,JP1*%
X-62318800Y57919600D03*
D21*
X-62318800Y56619600D03*
%TD*%
%LPD*%
M02*
