M48
; DRILL file {KiCad 7.0.8-7.0.8~ubuntu22.04.1} date Thu 19 Oct 2023 02:38:34 PM CDT
; FORMAT={-:-/ absolute / inch / decimal}
; #@! TF.CreationDate,2023-10-19T14:38:34-05:00
; #@! TF.GenerationSoftware,Kicad,Pcbnew,7.0.8-7.0.8~ubuntu22.04.1
; #@! TF.FileFunction,Plated,1,2,PTH
FMAT,2
INCH
; #@! TA.AperFunction,Plated,PTH,ViaDrill
T1C0.0236
; #@! TA.AperFunction,Plated,PTH,ComponentDrill
T2C0.0350
; #@! TA.AperFunction,Plated,PTH,ComponentDrill
T3C0.0394
; #@! TA.AperFunction,Plated,PTH,ComponentDrill
T4C0.0618
%
G90
G05
T1
X-3.716Y2.022
X-3.65Y2.054
X-3.648Y1.918
X-3.614Y2.094
X-3.434Y1.916
X-3.064Y1.916
X-2.746Y2.532
X-2.7392Y2.463
X-2.6842Y2.7342
X-2.65Y2.0255
X-2.5788Y2.4923
X-2.4799Y2.8455
X-2.4653Y2.4909
X-2.448Y2.002
X-2.426Y2.442
X-2.35Y2.474
X-2.3348Y2.1327
X-2.3205Y2.4161
X-2.3039Y2.0963
X-2.2758Y2.2929
X-2.2606Y2.3334
X-2.222Y2.5543
X-2.1897Y2.4319
X-2.178Y2.172
X-2.1613Y2.5535
X-2.118Y2.2
X-2.1031Y1.7468
X-2.0969Y2.0444
X-2.0795Y2.2941
X-2.0775Y2.5972
X-2.0437Y2.7823
X-2.0204Y2.5382
X-2.0078Y2.1161
X-1.82Y2.846
X-1.796Y2.613
X-1.7881Y2.109
X-1.7645Y2.8752
X-1.7291Y1.8295
X-1.727Y2.3945
X-1.68Y2.1958
X-1.594Y2.424
X-1.5283Y2.7862
X-1.5244Y2.6287
T2
X-1.6002Y2.306
X-1.6002Y2.226
X-1.6002Y2.146
X-1.6002Y2.066
X-1.5301Y2.346
X-1.5301Y2.266
X-1.5301Y2.186
X-1.5301Y2.106
T3
X-3.4511Y1.7863
X-3.448Y2.6922
X-3.3511Y2.6938
X-3.3511Y1.7863
X-3.2511Y2.6938
X-3.2511Y1.7863
X-3.1511Y2.6938
X-3.1511Y1.7863
X-3.0511Y2.6938
X-3.0511Y1.7863
X-2.9511Y2.6938
X-2.9511Y1.7863
X-2.8511Y2.6938
X-2.8511Y1.7863
X-2.65Y2.35
X-2.65Y2.25
X-2.65Y2.15
X-1.9417Y2.6405
X-1.9417Y2.5405
X-1.9417Y2.4405
X-1.9417Y2.3405
X-1.9417Y2.2405
X-1.9417Y2.1405
X-1.9417Y2.0405
X-1.9417Y1.9405
X-1.9417Y1.8405
T4
X-1.5652Y2.5259
X-1.5652Y1.8858
T0
M30
