%TF.GenerationSoftware,KiCad,Pcbnew,7.0.8-7.0.8~ubuntu22.04.1*%
%TF.CreationDate,2023-10-19T14:38:34-05:00*%
%TF.ProjectId,rm3100Remote,726d3331-3030-4526-956d-6f74652e6b69,0.0.5*%
%TF.SameCoordinates,Original*%
%TF.FileFunction,Soldermask,Top*%
%TF.FilePolarity,Negative*%
%FSLAX46Y46*%
G04 Gerber Fmt 4.6, Leading zero omitted, Abs format (unit mm)*
G04 Created by KiCad (PCBNEW 7.0.8-7.0.8~ubuntu22.04.1) date 2023-10-19 14:38:34*
%MOMM*%
%LPD*%
G01*
G04 APERTURE LIST*
G04 Aperture macros list*
%AMRoundRect*
0 Rectangle with rounded corners*
0 $1 Rounding radius*
0 $2 $3 $4 $5 $6 $7 $8 $9 X,Y pos of 4 corners*
0 Add a 4 corners polygon primitive as box body*
4,1,4,$2,$3,$4,$5,$6,$7,$8,$9,$2,$3,0*
0 Add four circle primitives for the rounded corners*
1,1,$1+$1,$2,$3*
1,1,$1+$1,$4,$5*
1,1,$1+$1,$6,$7*
1,1,$1+$1,$8,$9*
0 Add four rect primitives between the rounded corners*
20,1,$1+$1,$2,$3,$4,$5,0*
20,1,$1+$1,$4,$5,$6,$7,0*
20,1,$1+$1,$6,$7,$8,$9,0*
20,1,$1+$1,$8,$9,$2,$3,0*%
%AMFreePoly0*
4,1,19,0.500000,-0.750000,0.000000,-0.750000,0.000000,-0.744911,-0.071157,-0.744911,-0.207708,-0.704816,-0.327430,-0.627875,-0.420627,-0.520320,-0.479746,-0.390866,-0.500000,-0.250000,-0.500000,0.250000,-0.479746,0.390866,-0.420627,0.520320,-0.327430,0.627875,-0.207708,0.704816,-0.071157,0.744911,0.000000,0.744911,0.000000,0.750000,0.500000,0.750000,0.500000,-0.750000,0.500000,-0.750000,
$1*%
%AMFreePoly1*
4,1,19,0.000000,0.744911,0.071157,0.744911,0.207708,0.704816,0.327430,0.627875,0.420627,0.520320,0.479746,0.390866,0.500000,0.250000,0.500000,-0.250000,0.479746,-0.390866,0.420627,-0.520320,0.327430,-0.627875,0.207708,-0.704816,0.071157,-0.744911,0.000000,-0.744911,0.000000,-0.750000,-0.500000,-0.750000,-0.500000,0.750000,0.000000,0.750000,0.000000,0.744911,0.000000,0.744911,
$1*%
G04 Aperture macros list end*
%ADD10RoundRect,0.200000X-0.275000X0.200000X-0.275000X-0.200000X0.275000X-0.200000X0.275000X0.200000X0*%
%ADD11C,2.500000*%
%ADD12R,1.700000X1.700000*%
%ADD13O,1.700000X1.700000*%
%ADD14RoundRect,0.150000X-0.625000X0.150000X-0.625000X-0.150000X0.625000X-0.150000X0.625000X0.150000X0*%
%ADD15RoundRect,0.250000X-0.650000X0.350000X-0.650000X-0.350000X0.650000X-0.350000X0.650000X0.350000X0*%
%ADD16FreePoly0,270.000000*%
%ADD17FreePoly1,270.000000*%
%ADD18RoundRect,0.200000X-0.200000X-0.275000X0.200000X-0.275000X0.200000X0.275000X-0.200000X0.275000X0*%
%ADD19RoundRect,0.225000X0.225000X0.250000X-0.225000X0.250000X-0.225000X-0.250000X0.225000X-0.250000X0*%
%ADD20RoundRect,0.225000X0.250000X-0.225000X0.250000X0.225000X-0.250000X0.225000X-0.250000X-0.225000X0*%
%ADD21RoundRect,0.225000X-0.250000X0.225000X-0.250000X-0.225000X0.250000X-0.225000X0.250000X0.225000X0*%
%ADD22RoundRect,0.150000X-0.150000X-0.200000X0.150000X-0.200000X0.150000X0.200000X-0.150000X0.200000X0*%
%ADD23RoundRect,0.243750X-0.456250X0.243750X-0.456250X-0.243750X0.456250X-0.243750X0.456250X0.243750X0*%
%ADD24R,0.800000X0.600000*%
%ADD25C,3.250000*%
%ADD26R,1.500000X1.500000*%
%ADD27C,1.500000*%
%ADD28C,2.300000*%
%ADD29RoundRect,0.100000X-0.712500X-0.100000X0.712500X-0.100000X0.712500X0.100000X-0.712500X0.100000X0*%
%ADD30R,1.100000X0.250000*%
%ADD31R,2.000000X1.500000*%
%ADD32R,2.000000X3.800000*%
%ADD33RoundRect,0.225000X-0.225000X-0.250000X0.225000X-0.250000X0.225000X0.250000X-0.225000X0.250000X0*%
%ADD34R,1.050000X0.600000*%
%ADD35R,1.500000X1.000000*%
%ADD36FreePoly0,180.000000*%
%ADD37FreePoly1,180.000000*%
G04 APERTURE END LIST*
D10*
%TO.C,R7*%
X-74828400Y64985400D03*
X-74828400Y63335400D03*
%TD*%
D11*
%TO.C,MK1*%
X-92648800Y72029600D03*
%TD*%
%TO.C,MK2*%
X-33628800Y71749600D03*
%TD*%
D12*
%TO.C,J3*%
X-67310000Y59690000D03*
D13*
X-67310000Y57150000D03*
X-67310000Y54610000D03*
%TD*%
D14*
%TO.C,J6*%
X-90659200Y57888000D03*
X-90659200Y56888000D03*
X-90659200Y55888000D03*
X-90659200Y54888000D03*
D15*
X-94534200Y59188000D03*
X-94534200Y53588000D03*
%TD*%
D10*
%TO.C,R10*%
X-60960000Y54165000D03*
X-60960000Y52515000D03*
%TD*%
%TO.C,R11*%
X-63398400Y54114200D03*
X-63398400Y52464200D03*
%TD*%
D16*
%TO.C,JP2*%
X-74726800Y60909200D03*
D17*
X-74726800Y59609200D03*
%TD*%
D16*
%TO.C,JP3*%
X-71518800Y60919600D03*
D17*
X-71518800Y59619600D03*
%TD*%
D16*
%TO.C,JP4*%
X-79908400Y50027600D03*
D17*
X-79908400Y48727600D03*
%TD*%
D16*
%TO.C,JP5*%
X-85191600Y49976800D03*
D17*
X-85191600Y48676800D03*
%TD*%
D10*
%TO.C,R8*%
X-67056000Y65137800D03*
X-67056000Y63487800D03*
%TD*%
%TO.C,R9*%
X-71628000Y64985400D03*
X-71628000Y63335400D03*
%TD*%
D18*
%TO.C,R12*%
X-81707600Y42214800D03*
X-80057600Y42214800D03*
%TD*%
%TO.C,R13*%
X-87642200Y42113200D03*
X-85992200Y42113200D03*
%TD*%
D19*
%TO.C,C1*%
X-54038200Y56743600D03*
X-55588200Y56743600D03*
%TD*%
D20*
%TO.C,C2*%
X-50568800Y70694600D03*
X-50568800Y72244600D03*
%TD*%
%TO.C,C3*%
X-53238800Y70664600D03*
X-53238800Y72214600D03*
%TD*%
D21*
%TO.C,C4*%
X-68326000Y72301400D03*
X-68326000Y70751400D03*
%TD*%
%TO.C,C5*%
X-66359950Y72351400D03*
X-66359950Y70801400D03*
%TD*%
%TO.C,C6*%
X-64298800Y72324600D03*
X-64298800Y70774600D03*
%TD*%
%TO.C,C7*%
X-46532800Y69050200D03*
X-46532800Y67500200D03*
%TD*%
D22*
%TO.C,D1*%
X-54188800Y59369600D03*
X-55588800Y59369600D03*
%TD*%
D23*
%TO.C,F1*%
X-58958800Y72077100D03*
X-58958800Y70202100D03*
%TD*%
D24*
%TO.C,FB1*%
X-47728800Y70859600D03*
X-47728800Y72259600D03*
%TD*%
D25*
%TO.C,J1*%
X-36325200Y62378400D03*
X-36325200Y49678400D03*
D26*
X-38865200Y59588400D03*
D27*
X-40645200Y58572400D03*
X-38865200Y57556400D03*
X-40645200Y56540400D03*
X-38865200Y55524400D03*
X-40645200Y54508400D03*
X-38865200Y53492400D03*
X-40645200Y52476400D03*
D28*
X-39755200Y64158400D03*
X-39755200Y47898400D03*
%TD*%
D10*
%TO.C,R1*%
X-43401600Y73011800D03*
X-43401600Y71361800D03*
%TD*%
%TO.C,R2*%
X-40487600Y73011800D03*
X-40487600Y71361800D03*
%TD*%
%TO.C,R3*%
X-37918800Y73094600D03*
X-37918800Y71444600D03*
%TD*%
%TO.C,R4*%
X-43484800Y69100200D03*
X-43484800Y67450200D03*
%TD*%
%TO.C,R5*%
X-40589200Y68989600D03*
X-40589200Y67339600D03*
%TD*%
%TO.C,R6*%
X-37918800Y69194600D03*
X-37918800Y67544600D03*
%TD*%
D29*
%TO.C,U1*%
X-57179700Y63713000D03*
X-57179700Y63063000D03*
X-57179700Y62413000D03*
X-57179700Y61763000D03*
X-52954700Y61763000D03*
X-52954700Y62413000D03*
X-52954700Y63063000D03*
X-52954700Y63713000D03*
%TD*%
D30*
%TO.C,U2*%
X-57217200Y54746400D03*
X-57217200Y54246400D03*
X-57217200Y53746400D03*
X-57217200Y53246400D03*
X-57217200Y52746400D03*
X-52917200Y52746400D03*
X-52917200Y53246400D03*
X-52917200Y53746400D03*
X-52917200Y54246400D03*
X-52917200Y54746400D03*
%TD*%
D11*
%TO.C,MK4*%
X-33678800Y42519600D03*
%TD*%
%TO.C,MK3*%
X-92398800Y42469600D03*
%TD*%
D31*
%TO.C,U4*%
X-64465600Y47766000D03*
X-64465600Y45466000D03*
D32*
X-58165600Y45466000D03*
D31*
X-64465600Y43166000D03*
%TD*%
D19*
%TO.C,C9*%
X-67560000Y46736000D03*
X-69110000Y46736000D03*
%TD*%
%TO.C,C8*%
X-67449400Y42976800D03*
X-68999400Y42976800D03*
%TD*%
D33*
%TO.C,C10*%
X-43142200Y44856400D03*
X-41592200Y44856400D03*
%TD*%
%TO.C,C11*%
X-43193800Y41569600D03*
X-41643800Y41569600D03*
%TD*%
D34*
%TO.C,U5*%
X-51642800Y43622000D03*
X-51642800Y41722000D03*
X-49042800Y42672000D03*
%TD*%
D12*
%TO.C,U3*%
X-87658800Y45373200D03*
D13*
X-85118800Y45373200D03*
X-82578800Y45373200D03*
X-80038800Y45373200D03*
X-77498800Y45373200D03*
X-74958800Y45373200D03*
X-72418800Y45373200D03*
X-72418800Y68423200D03*
X-74958800Y68423200D03*
X-77498800Y68423200D03*
X-80038800Y68423200D03*
X-82578800Y68423200D03*
X-85118800Y68423200D03*
X-87579200Y68382000D03*
%TD*%
D12*
%TO.C,J4*%
X-49318800Y67069600D03*
D13*
X-49318800Y64529600D03*
X-49318800Y61989600D03*
X-49318800Y59449600D03*
X-49318800Y56909600D03*
X-49318800Y54369600D03*
X-49318800Y51829600D03*
X-49318800Y49289600D03*
X-49318800Y46749600D03*
%TD*%
D35*
%TO.C,JP6*%
X-54711600Y43068000D03*
X-54711600Y41768000D03*
%TD*%
%TO.C,JP7*%
X-54711600Y45527200D03*
X-54711600Y46827200D03*
%TD*%
D36*
%TO.C,JP8*%
X-44968800Y44869600D03*
D37*
X-46268800Y44869600D03*
%TD*%
D36*
%TO.C,JP9*%
X-44968800Y41869600D03*
D37*
X-46268800Y41869600D03*
%TD*%
D16*
%TO.C,JP10*%
X-38100000Y45019600D03*
D17*
X-38100000Y43719600D03*
%TD*%
D16*
%TO.C,JP1*%
X-62318800Y57919600D03*
D17*
X-62318800Y56619600D03*
%TD*%
M02*
