%TF.GenerationSoftware,KiCad,Pcbnew,7.0.8-7.0.8~ubuntu22.04.1*%
%TF.CreationDate,2023-10-19T14:38:34-05:00*%
%TF.ProjectId,rm3100Remote,726d3331-3030-4526-956d-6f74652e6b69,0.0.5*%
%TF.SameCoordinates,Original*%
%TF.FileFunction,Copper,L2,Bot*%
%TF.FilePolarity,Positive*%
%FSLAX46Y46*%
G04 Gerber Fmt 4.6, Leading zero omitted, Abs format (unit mm)*
G04 Created by KiCad (PCBNEW 7.0.8-7.0.8~ubuntu22.04.1) date 2023-10-19 14:38:34*
%MOMM*%
%LPD*%
G01*
G04 APERTURE LIST*
%ADD10C,0.125000*%
%TA.AperFunction,NonConductor*%
%ADD11C,0.125000*%
%TD*%
%TA.AperFunction,ComponentPad*%
%ADD12R,1.700000X1.700000*%
%TD*%
%TA.AperFunction,ComponentPad*%
%ADD13O,1.700000X1.700000*%
%TD*%
%TA.AperFunction,ComponentPad*%
%ADD14R,1.500000X1.500000*%
%TD*%
%TA.AperFunction,ComponentPad*%
%ADD15C,1.500000*%
%TD*%
%TA.AperFunction,ComponentPad*%
%ADD16C,2.300000*%
%TD*%
%TA.AperFunction,ViaPad*%
%ADD17C,0.900000*%
%TD*%
%TA.AperFunction,Conductor*%
%ADD18C,0.200000*%
%TD*%
G04 APERTURE END LIST*
D10*
D11*
X-54047372Y42913481D02*
X-54047372Y43580148D01*
X-54047372Y43389672D02*
X-54094991Y43484910D01*
X-54094991Y43484910D02*
X-54142610Y43532529D01*
X-54142610Y43532529D02*
X-54237848Y43580148D01*
X-54237848Y43580148D02*
X-54333086Y43580148D01*
X-54666420Y42913481D02*
X-54666420Y43580148D01*
X-54666420Y43484910D02*
X-54714039Y43532529D01*
X-54714039Y43532529D02*
X-54809277Y43580148D01*
X-54809277Y43580148D02*
X-54952134Y43580148D01*
X-54952134Y43580148D02*
X-55047372Y43532529D01*
X-55047372Y43532529D02*
X-55094991Y43437291D01*
X-55094991Y43437291D02*
X-55094991Y42913481D01*
X-55094991Y43437291D02*
X-55142610Y43532529D01*
X-55142610Y43532529D02*
X-55237848Y43580148D01*
X-55237848Y43580148D02*
X-55380705Y43580148D01*
X-55380705Y43580148D02*
X-55475944Y43532529D01*
X-55475944Y43532529D02*
X-55523563Y43437291D01*
X-55523563Y43437291D02*
X-55523563Y42913481D01*
X-55904515Y43913481D02*
X-56523562Y43913481D01*
X-56523562Y43913481D02*
X-56190229Y43532529D01*
X-56190229Y43532529D02*
X-56333086Y43532529D01*
X-56333086Y43532529D02*
X-56428324Y43484910D01*
X-56428324Y43484910D02*
X-56475943Y43437291D01*
X-56475943Y43437291D02*
X-56523562Y43342053D01*
X-56523562Y43342053D02*
X-56523562Y43103958D01*
X-56523562Y43103958D02*
X-56475943Y43008720D01*
X-56475943Y43008720D02*
X-56428324Y42961100D01*
X-56428324Y42961100D02*
X-56333086Y42913481D01*
X-56333086Y42913481D02*
X-56047372Y42913481D01*
X-56047372Y42913481D02*
X-55952134Y42961100D01*
X-55952134Y42961100D02*
X-55904515Y43008720D01*
X-57475943Y42913481D02*
X-56904515Y42913481D01*
X-57190229Y42913481D02*
X-57190229Y43913481D01*
X-57190229Y43913481D02*
X-57094991Y43770624D01*
X-57094991Y43770624D02*
X-56999753Y43675386D01*
X-56999753Y43675386D02*
X-56904515Y43627767D01*
X-58094991Y43913481D02*
X-58190229Y43913481D01*
X-58190229Y43913481D02*
X-58285467Y43865862D01*
X-58285467Y43865862D02*
X-58333086Y43818243D01*
X-58333086Y43818243D02*
X-58380705Y43723005D01*
X-58380705Y43723005D02*
X-58428324Y43532529D01*
X-58428324Y43532529D02*
X-58428324Y43294434D01*
X-58428324Y43294434D02*
X-58380705Y43103958D01*
X-58380705Y43103958D02*
X-58333086Y43008720D01*
X-58333086Y43008720D02*
X-58285467Y42961100D01*
X-58285467Y42961100D02*
X-58190229Y42913481D01*
X-58190229Y42913481D02*
X-58094991Y42913481D01*
X-58094991Y42913481D02*
X-57999753Y42961100D01*
X-57999753Y42961100D02*
X-57952134Y43008720D01*
X-57952134Y43008720D02*
X-57904515Y43103958D01*
X-57904515Y43103958D02*
X-57856896Y43294434D01*
X-57856896Y43294434D02*
X-57856896Y43532529D01*
X-57856896Y43532529D02*
X-57904515Y43723005D01*
X-57904515Y43723005D02*
X-57952134Y43818243D01*
X-57952134Y43818243D02*
X-57999753Y43865862D01*
X-57999753Y43865862D02*
X-58094991Y43913481D01*
X-59047372Y43913481D02*
X-59142610Y43913481D01*
X-59142610Y43913481D02*
X-59237848Y43865862D01*
X-59237848Y43865862D02*
X-59285467Y43818243D01*
X-59285467Y43818243D02*
X-59333086Y43723005D01*
X-59333086Y43723005D02*
X-59380705Y43532529D01*
X-59380705Y43532529D02*
X-59380705Y43294434D01*
X-59380705Y43294434D02*
X-59333086Y43103958D01*
X-59333086Y43103958D02*
X-59285467Y43008720D01*
X-59285467Y43008720D02*
X-59237848Y42961100D01*
X-59237848Y42961100D02*
X-59142610Y42913481D01*
X-59142610Y42913481D02*
X-59047372Y42913481D01*
X-59047372Y42913481D02*
X-58952134Y42961100D01*
X-58952134Y42961100D02*
X-58904515Y43008720D01*
X-58904515Y43008720D02*
X-58856896Y43103958D01*
X-58856896Y43103958D02*
X-58809277Y43294434D01*
X-58809277Y43294434D02*
X-58809277Y43532529D01*
X-58809277Y43532529D02*
X-58856896Y43723005D01*
X-58856896Y43723005D02*
X-58904515Y43818243D01*
X-58904515Y43818243D02*
X-58952134Y43865862D01*
X-58952134Y43865862D02*
X-59047372Y43913481D01*
X-60380705Y42913481D02*
X-60047372Y43389672D01*
X-59809277Y42913481D02*
X-59809277Y43913481D01*
X-59809277Y43913481D02*
X-60190229Y43913481D01*
X-60190229Y43913481D02*
X-60285467Y43865862D01*
X-60285467Y43865862D02*
X-60333086Y43818243D01*
X-60333086Y43818243D02*
X-60380705Y43723005D01*
X-60380705Y43723005D02*
X-60380705Y43580148D01*
X-60380705Y43580148D02*
X-60333086Y43484910D01*
X-60333086Y43484910D02*
X-60285467Y43437291D01*
X-60285467Y43437291D02*
X-60190229Y43389672D01*
X-60190229Y43389672D02*
X-59809277Y43389672D01*
X-61190229Y42961100D02*
X-61094991Y42913481D01*
X-61094991Y42913481D02*
X-60904515Y42913481D01*
X-60904515Y42913481D02*
X-60809277Y42961100D01*
X-60809277Y42961100D02*
X-60761658Y43056339D01*
X-60761658Y43056339D02*
X-60761658Y43437291D01*
X-60761658Y43437291D02*
X-60809277Y43532529D01*
X-60809277Y43532529D02*
X-60904515Y43580148D01*
X-60904515Y43580148D02*
X-61094991Y43580148D01*
X-61094991Y43580148D02*
X-61190229Y43532529D01*
X-61190229Y43532529D02*
X-61237848Y43437291D01*
X-61237848Y43437291D02*
X-61237848Y43342053D01*
X-61237848Y43342053D02*
X-60761658Y43246815D01*
X-61666420Y42913481D02*
X-61666420Y43580148D01*
X-61666420Y43484910D02*
X-61714039Y43532529D01*
X-61714039Y43532529D02*
X-61809277Y43580148D01*
X-61809277Y43580148D02*
X-61952134Y43580148D01*
X-61952134Y43580148D02*
X-62047372Y43532529D01*
X-62047372Y43532529D02*
X-62094991Y43437291D01*
X-62094991Y43437291D02*
X-62094991Y42913481D01*
X-62094991Y43437291D02*
X-62142610Y43532529D01*
X-62142610Y43532529D02*
X-62237848Y43580148D01*
X-62237848Y43580148D02*
X-62380705Y43580148D01*
X-62380705Y43580148D02*
X-62475944Y43532529D01*
X-62475944Y43532529D02*
X-62523563Y43437291D01*
X-62523563Y43437291D02*
X-62523563Y42913481D01*
X-63142610Y42913481D02*
X-63047372Y42961100D01*
X-63047372Y42961100D02*
X-62999753Y43008720D01*
X-62999753Y43008720D02*
X-62952134Y43103958D01*
X-62952134Y43103958D02*
X-62952134Y43389672D01*
X-62952134Y43389672D02*
X-62999753Y43484910D01*
X-62999753Y43484910D02*
X-63047372Y43532529D01*
X-63047372Y43532529D02*
X-63142610Y43580148D01*
X-63142610Y43580148D02*
X-63285467Y43580148D01*
X-63285467Y43580148D02*
X-63380705Y43532529D01*
X-63380705Y43532529D02*
X-63428324Y43484910D01*
X-63428324Y43484910D02*
X-63475943Y43389672D01*
X-63475943Y43389672D02*
X-63475943Y43103958D01*
X-63475943Y43103958D02*
X-63428324Y43008720D01*
X-63428324Y43008720D02*
X-63380705Y42961100D01*
X-63380705Y42961100D02*
X-63285467Y42913481D01*
X-63285467Y42913481D02*
X-63142610Y42913481D01*
X-63761658Y43580148D02*
X-64142610Y43580148D01*
X-63904515Y43913481D02*
X-63904515Y43056339D01*
X-63904515Y43056339D02*
X-63952134Y42961100D01*
X-63952134Y42961100D02*
X-64047372Y42913481D01*
X-64047372Y42913481D02*
X-64142610Y42913481D01*
X-64856896Y42961100D02*
X-64761658Y42913481D01*
X-64761658Y42913481D02*
X-64571182Y42913481D01*
X-64571182Y42913481D02*
X-64475944Y42961100D01*
X-64475944Y42961100D02*
X-64428325Y43056339D01*
X-64428325Y43056339D02*
X-64428325Y43437291D01*
X-64428325Y43437291D02*
X-64475944Y43532529D01*
X-64475944Y43532529D02*
X-64571182Y43580148D01*
X-64571182Y43580148D02*
X-64761658Y43580148D01*
X-64761658Y43580148D02*
X-64856896Y43532529D01*
X-64856896Y43532529D02*
X-64904515Y43437291D01*
X-64904515Y43437291D02*
X-64904515Y43342053D01*
X-64904515Y43342053D02*
X-64428325Y43246815D01*
X-65999754Y43580148D02*
X-66237849Y42913481D01*
X-66237849Y42913481D02*
X-66475944Y43580148D01*
X-67047373Y43913481D02*
X-67142611Y43913481D01*
X-67142611Y43913481D02*
X-67237849Y43865862D01*
X-67237849Y43865862D02*
X-67285468Y43818243D01*
X-67285468Y43818243D02*
X-67333087Y43723005D01*
X-67333087Y43723005D02*
X-67380706Y43532529D01*
X-67380706Y43532529D02*
X-67380706Y43294434D01*
X-67380706Y43294434D02*
X-67333087Y43103958D01*
X-67333087Y43103958D02*
X-67285468Y43008720D01*
X-67285468Y43008720D02*
X-67237849Y42961100D01*
X-67237849Y42961100D02*
X-67142611Y42913481D01*
X-67142611Y42913481D02*
X-67047373Y42913481D01*
X-67047373Y42913481D02*
X-66952135Y42961100D01*
X-66952135Y42961100D02*
X-66904516Y43008720D01*
X-66904516Y43008720D02*
X-66856897Y43103958D01*
X-66856897Y43103958D02*
X-66809278Y43294434D01*
X-66809278Y43294434D02*
X-66809278Y43532529D01*
X-66809278Y43532529D02*
X-66856897Y43723005D01*
X-66856897Y43723005D02*
X-66904516Y43818243D01*
X-66904516Y43818243D02*
X-66952135Y43865862D01*
X-66952135Y43865862D02*
X-67047373Y43913481D01*
X-67809278Y43008720D02*
X-67856897Y42961100D01*
X-67856897Y42961100D02*
X-67809278Y42913481D01*
X-67809278Y42913481D02*
X-67761659Y42961100D01*
X-67761659Y42961100D02*
X-67809278Y43008720D01*
X-67809278Y43008720D02*
X-67809278Y42913481D01*
X-68475944Y43913481D02*
X-68571182Y43913481D01*
X-68571182Y43913481D02*
X-68666420Y43865862D01*
X-68666420Y43865862D02*
X-68714039Y43818243D01*
X-68714039Y43818243D02*
X-68761658Y43723005D01*
X-68761658Y43723005D02*
X-68809277Y43532529D01*
X-68809277Y43532529D02*
X-68809277Y43294434D01*
X-68809277Y43294434D02*
X-68761658Y43103958D01*
X-68761658Y43103958D02*
X-68714039Y43008720D01*
X-68714039Y43008720D02*
X-68666420Y42961100D01*
X-68666420Y42961100D02*
X-68571182Y42913481D01*
X-68571182Y42913481D02*
X-68475944Y42913481D01*
X-68475944Y42913481D02*
X-68380706Y42961100D01*
X-68380706Y42961100D02*
X-68333087Y43008720D01*
X-68333087Y43008720D02*
X-68285468Y43103958D01*
X-68285468Y43103958D02*
X-68237849Y43294434D01*
X-68237849Y43294434D02*
X-68237849Y43532529D01*
X-68237849Y43532529D02*
X-68285468Y43723005D01*
X-68285468Y43723005D02*
X-68333087Y43818243D01*
X-68333087Y43818243D02*
X-68380706Y43865862D01*
X-68380706Y43865862D02*
X-68475944Y43913481D01*
X-69237849Y43008720D02*
X-69285468Y42961100D01*
X-69285468Y42961100D02*
X-69237849Y42913481D01*
X-69237849Y42913481D02*
X-69190230Y42961100D01*
X-69190230Y42961100D02*
X-69237849Y43008720D01*
X-69237849Y43008720D02*
X-69237849Y42913481D01*
X-70190229Y43913481D02*
X-69714039Y43913481D01*
X-69714039Y43913481D02*
X-69666420Y43437291D01*
X-69666420Y43437291D02*
X-69714039Y43484910D01*
X-69714039Y43484910D02*
X-69809277Y43532529D01*
X-69809277Y43532529D02*
X-70047372Y43532529D01*
X-70047372Y43532529D02*
X-70142610Y43484910D01*
X-70142610Y43484910D02*
X-70190229Y43437291D01*
X-70190229Y43437291D02*
X-70237848Y43342053D01*
X-70237848Y43342053D02*
X-70237848Y43103958D01*
X-70237848Y43103958D02*
X-70190229Y43008720D01*
X-70190229Y43008720D02*
X-70142610Y42961100D01*
X-70142610Y42961100D02*
X-70047372Y42913481D01*
X-70047372Y42913481D02*
X-69809277Y42913481D01*
X-69809277Y42913481D02*
X-69714039Y42961100D01*
X-69714039Y42961100D02*
X-69666420Y43008720D01*
D10*
D11*
X-56561658Y42118243D02*
X-56609277Y42165862D01*
X-56609277Y42165862D02*
X-56704515Y42213481D01*
X-56704515Y42213481D02*
X-56942610Y42213481D01*
X-56942610Y42213481D02*
X-57037848Y42165862D01*
X-57037848Y42165862D02*
X-57085467Y42118243D01*
X-57085467Y42118243D02*
X-57133086Y42023005D01*
X-57133086Y42023005D02*
X-57133086Y41927767D01*
X-57133086Y41927767D02*
X-57085467Y41784910D01*
X-57085467Y41784910D02*
X-56514039Y41213481D01*
X-56514039Y41213481D02*
X-57133086Y41213481D01*
X-57752134Y42213481D02*
X-57847372Y42213481D01*
X-57847372Y42213481D02*
X-57942610Y42165862D01*
X-57942610Y42165862D02*
X-57990229Y42118243D01*
X-57990229Y42118243D02*
X-58037848Y42023005D01*
X-58037848Y42023005D02*
X-58085467Y41832529D01*
X-58085467Y41832529D02*
X-58085467Y41594434D01*
X-58085467Y41594434D02*
X-58037848Y41403958D01*
X-58037848Y41403958D02*
X-57990229Y41308720D01*
X-57990229Y41308720D02*
X-57942610Y41261100D01*
X-57942610Y41261100D02*
X-57847372Y41213481D01*
X-57847372Y41213481D02*
X-57752134Y41213481D01*
X-57752134Y41213481D02*
X-57656896Y41261100D01*
X-57656896Y41261100D02*
X-57609277Y41308720D01*
X-57609277Y41308720D02*
X-57561658Y41403958D01*
X-57561658Y41403958D02*
X-57514039Y41594434D01*
X-57514039Y41594434D02*
X-57514039Y41832529D01*
X-57514039Y41832529D02*
X-57561658Y42023005D01*
X-57561658Y42023005D02*
X-57609277Y42118243D01*
X-57609277Y42118243D02*
X-57656896Y42165862D01*
X-57656896Y42165862D02*
X-57752134Y42213481D01*
X-58466420Y42118243D02*
X-58514039Y42165862D01*
X-58514039Y42165862D02*
X-58609277Y42213481D01*
X-58609277Y42213481D02*
X-58847372Y42213481D01*
X-58847372Y42213481D02*
X-58942610Y42165862D01*
X-58942610Y42165862D02*
X-58990229Y42118243D01*
X-58990229Y42118243D02*
X-59037848Y42023005D01*
X-59037848Y42023005D02*
X-59037848Y41927767D01*
X-59037848Y41927767D02*
X-58990229Y41784910D01*
X-58990229Y41784910D02*
X-58418801Y41213481D01*
X-58418801Y41213481D02*
X-59037848Y41213481D01*
X-59371182Y42213481D02*
X-59990229Y42213481D01*
X-59990229Y42213481D02*
X-59656896Y41832529D01*
X-59656896Y41832529D02*
X-59799753Y41832529D01*
X-59799753Y41832529D02*
X-59894991Y41784910D01*
X-59894991Y41784910D02*
X-59942610Y41737291D01*
X-59942610Y41737291D02*
X-59990229Y41642053D01*
X-59990229Y41642053D02*
X-59990229Y41403958D01*
X-59990229Y41403958D02*
X-59942610Y41308720D01*
X-59942610Y41308720D02*
X-59894991Y41261100D01*
X-59894991Y41261100D02*
X-59799753Y41213481D01*
X-59799753Y41213481D02*
X-59514039Y41213481D01*
X-59514039Y41213481D02*
X-59418801Y41261100D01*
X-59418801Y41261100D02*
X-59371182Y41308720D01*
X-60418801Y41594434D02*
X-61180705Y41594434D01*
X-62180705Y41213481D02*
X-61609277Y41213481D01*
X-61894991Y41213481D02*
X-61894991Y42213481D01*
X-61894991Y42213481D02*
X-61799753Y42070624D01*
X-61799753Y42070624D02*
X-61704515Y41975386D01*
X-61704515Y41975386D02*
X-61609277Y41927767D01*
X-62799753Y42213481D02*
X-62894991Y42213481D01*
X-62894991Y42213481D02*
X-62990229Y42165862D01*
X-62990229Y42165862D02*
X-63037848Y42118243D01*
X-63037848Y42118243D02*
X-63085467Y42023005D01*
X-63085467Y42023005D02*
X-63133086Y41832529D01*
X-63133086Y41832529D02*
X-63133086Y41594434D01*
X-63133086Y41594434D02*
X-63085467Y41403958D01*
X-63085467Y41403958D02*
X-63037848Y41308720D01*
X-63037848Y41308720D02*
X-62990229Y41261100D01*
X-62990229Y41261100D02*
X-62894991Y41213481D01*
X-62894991Y41213481D02*
X-62799753Y41213481D01*
X-62799753Y41213481D02*
X-62704515Y41261100D01*
X-62704515Y41261100D02*
X-62656896Y41308720D01*
X-62656896Y41308720D02*
X-62609277Y41403958D01*
X-62609277Y41403958D02*
X-62561658Y41594434D01*
X-62561658Y41594434D02*
X-62561658Y41832529D01*
X-62561658Y41832529D02*
X-62609277Y42023005D01*
X-62609277Y42023005D02*
X-62656896Y42118243D01*
X-62656896Y42118243D02*
X-62704515Y42165862D01*
X-62704515Y42165862D02*
X-62799753Y42213481D01*
X-63561658Y41594434D02*
X-64323562Y41594434D01*
X-64990229Y42213481D02*
X-65085467Y42213481D01*
X-65085467Y42213481D02*
X-65180705Y42165862D01*
X-65180705Y42165862D02*
X-65228324Y42118243D01*
X-65228324Y42118243D02*
X-65275943Y42023005D01*
X-65275943Y42023005D02*
X-65323562Y41832529D01*
X-65323562Y41832529D02*
X-65323562Y41594434D01*
X-65323562Y41594434D02*
X-65275943Y41403958D01*
X-65275943Y41403958D02*
X-65228324Y41308720D01*
X-65228324Y41308720D02*
X-65180705Y41261100D01*
X-65180705Y41261100D02*
X-65085467Y41213481D01*
X-65085467Y41213481D02*
X-64990229Y41213481D01*
X-64990229Y41213481D02*
X-64894991Y41261100D01*
X-64894991Y41261100D02*
X-64847372Y41308720D01*
X-64847372Y41308720D02*
X-64799753Y41403958D01*
X-64799753Y41403958D02*
X-64752134Y41594434D01*
X-64752134Y41594434D02*
X-64752134Y41832529D01*
X-64752134Y41832529D02*
X-64799753Y42023005D01*
X-64799753Y42023005D02*
X-64847372Y42118243D01*
X-64847372Y42118243D02*
X-64894991Y42165862D01*
X-64894991Y42165862D02*
X-64990229Y42213481D01*
X-65799753Y41213481D02*
X-65990229Y41213481D01*
X-65990229Y41213481D02*
X-66085467Y41261100D01*
X-66085467Y41261100D02*
X-66133086Y41308720D01*
X-66133086Y41308720D02*
X-66228324Y41451577D01*
X-66228324Y41451577D02*
X-66275943Y41642053D01*
X-66275943Y41642053D02*
X-66275943Y42023005D01*
X-66275943Y42023005D02*
X-66228324Y42118243D01*
X-66228324Y42118243D02*
X-66180705Y42165862D01*
X-66180705Y42165862D02*
X-66085467Y42213481D01*
X-66085467Y42213481D02*
X-65894991Y42213481D01*
X-65894991Y42213481D02*
X-65799753Y42165862D01*
X-65799753Y42165862D02*
X-65752134Y42118243D01*
X-65752134Y42118243D02*
X-65704515Y42023005D01*
X-65704515Y42023005D02*
X-65704515Y41784910D01*
X-65704515Y41784910D02*
X-65752134Y41689672D01*
X-65752134Y41689672D02*
X-65799753Y41642053D01*
X-65799753Y41642053D02*
X-65894991Y41594434D01*
X-65894991Y41594434D02*
X-66085467Y41594434D01*
X-66085467Y41594434D02*
X-66180705Y41642053D01*
X-66180705Y41642053D02*
X-66228324Y41689672D01*
X-66228324Y41689672D02*
X-66275943Y41784910D01*
D10*
D11*
X-54514038Y44313481D02*
X-54514038Y45313481D01*
X-54514038Y45313481D02*
X-54752133Y45313481D01*
X-54752133Y45313481D02*
X-54894990Y45265862D01*
X-54894990Y45265862D02*
X-54990228Y45170624D01*
X-54990228Y45170624D02*
X-55037847Y45075386D01*
X-55037847Y45075386D02*
X-55085466Y44884910D01*
X-55085466Y44884910D02*
X-55085466Y44742053D01*
X-55085466Y44742053D02*
X-55037847Y44551577D01*
X-55037847Y44551577D02*
X-54990228Y44456339D01*
X-54990228Y44456339D02*
X-54894990Y44361100D01*
X-54894990Y44361100D02*
X-54752133Y44313481D01*
X-54752133Y44313481D02*
X-54514038Y44313481D01*
X-55942609Y44313481D02*
X-55942609Y44837291D01*
X-55942609Y44837291D02*
X-55894990Y44932529D01*
X-55894990Y44932529D02*
X-55799752Y44980148D01*
X-55799752Y44980148D02*
X-55609276Y44980148D01*
X-55609276Y44980148D02*
X-55514038Y44932529D01*
X-55942609Y44361100D02*
X-55847371Y44313481D01*
X-55847371Y44313481D02*
X-55609276Y44313481D01*
X-55609276Y44313481D02*
X-55514038Y44361100D01*
X-55514038Y44361100D02*
X-55466419Y44456339D01*
X-55466419Y44456339D02*
X-55466419Y44551577D01*
X-55466419Y44551577D02*
X-55514038Y44646815D01*
X-55514038Y44646815D02*
X-55609276Y44694434D01*
X-55609276Y44694434D02*
X-55847371Y44694434D01*
X-55847371Y44694434D02*
X-55942609Y44742053D01*
X-56323562Y44980148D02*
X-56561657Y44313481D01*
X-56561657Y44313481D02*
X-56799752Y44980148D01*
X-57561657Y44361100D02*
X-57466419Y44313481D01*
X-57466419Y44313481D02*
X-57275943Y44313481D01*
X-57275943Y44313481D02*
X-57180705Y44361100D01*
X-57180705Y44361100D02*
X-57133086Y44456339D01*
X-57133086Y44456339D02*
X-57133086Y44837291D01*
X-57133086Y44837291D02*
X-57180705Y44932529D01*
X-57180705Y44932529D02*
X-57275943Y44980148D01*
X-57275943Y44980148D02*
X-57466419Y44980148D01*
X-57466419Y44980148D02*
X-57561657Y44932529D01*
X-57561657Y44932529D02*
X-57609276Y44837291D01*
X-57609276Y44837291D02*
X-57609276Y44742053D01*
X-57609276Y44742053D02*
X-57133086Y44646815D01*
X-58704515Y45313481D02*
X-58942610Y44313481D01*
X-58942610Y44313481D02*
X-59133086Y45027767D01*
X-59133086Y45027767D02*
X-59323562Y44313481D01*
X-59323562Y44313481D02*
X-59561657Y45313481D01*
X-59942610Y44313481D02*
X-59942610Y44980148D01*
X-59942610Y45313481D02*
X-59894991Y45265862D01*
X-59894991Y45265862D02*
X-59942610Y45218243D01*
X-59942610Y45218243D02*
X-59990229Y45265862D01*
X-59990229Y45265862D02*
X-59942610Y45313481D01*
X-59942610Y45313481D02*
X-59942610Y45218243D01*
X-60275943Y44980148D02*
X-60656895Y44980148D01*
X-60418800Y45313481D02*
X-60418800Y44456339D01*
X-60418800Y44456339D02*
X-60466419Y44361100D01*
X-60466419Y44361100D02*
X-60561657Y44313481D01*
X-60561657Y44313481D02*
X-60656895Y44313481D01*
X-60847372Y44980148D02*
X-61228324Y44980148D01*
X-60990229Y45313481D02*
X-60990229Y44456339D01*
X-60990229Y44456339D02*
X-61037848Y44361100D01*
X-61037848Y44361100D02*
X-61133086Y44313481D01*
X-61133086Y44313481D02*
X-61228324Y44313481D01*
X-61942610Y44361100D02*
X-61847372Y44313481D01*
X-61847372Y44313481D02*
X-61656896Y44313481D01*
X-61656896Y44313481D02*
X-61561658Y44361100D01*
X-61561658Y44361100D02*
X-61514039Y44456339D01*
X-61514039Y44456339D02*
X-61514039Y44837291D01*
X-61514039Y44837291D02*
X-61561658Y44932529D01*
X-61561658Y44932529D02*
X-61656896Y44980148D01*
X-61656896Y44980148D02*
X-61847372Y44980148D01*
X-61847372Y44980148D02*
X-61942610Y44932529D01*
X-61942610Y44932529D02*
X-61990229Y44837291D01*
X-61990229Y44837291D02*
X-61990229Y44742053D01*
X-61990229Y44742053D02*
X-61514039Y44646815D01*
X-62418801Y44980148D02*
X-62418801Y44313481D01*
X-62418801Y44884910D02*
X-62466420Y44932529D01*
X-62466420Y44932529D02*
X-62561658Y44980148D01*
X-62561658Y44980148D02*
X-62704515Y44980148D01*
X-62704515Y44980148D02*
X-62799753Y44932529D01*
X-62799753Y44932529D02*
X-62847372Y44837291D01*
X-62847372Y44837291D02*
X-62847372Y44313481D01*
X-64085468Y44313481D02*
X-64085468Y45313481D01*
X-64656896Y44313481D02*
X-64228325Y44884910D01*
X-64656896Y45313481D02*
X-64085468Y44742053D01*
X-65085468Y44313481D02*
X-65085468Y45313481D01*
X-65085468Y45313481D02*
X-65323563Y45313481D01*
X-65323563Y45313481D02*
X-65466420Y45265862D01*
X-65466420Y45265862D02*
X-65561658Y45170624D01*
X-65561658Y45170624D02*
X-65609277Y45075386D01*
X-65609277Y45075386D02*
X-65656896Y44884910D01*
X-65656896Y44884910D02*
X-65656896Y44742053D01*
X-65656896Y44742053D02*
X-65609277Y44551577D01*
X-65609277Y44551577D02*
X-65561658Y44456339D01*
X-65561658Y44456339D02*
X-65466420Y44361100D01*
X-65466420Y44361100D02*
X-65323563Y44313481D01*
X-65323563Y44313481D02*
X-65085468Y44313481D01*
X-66275944Y45313481D02*
X-66371182Y45313481D01*
X-66371182Y45313481D02*
X-66466420Y45265862D01*
X-66466420Y45265862D02*
X-66514039Y45218243D01*
X-66514039Y45218243D02*
X-66561658Y45123005D01*
X-66561658Y45123005D02*
X-66609277Y44932529D01*
X-66609277Y44932529D02*
X-66609277Y44694434D01*
X-66609277Y44694434D02*
X-66561658Y44503958D01*
X-66561658Y44503958D02*
X-66514039Y44408720D01*
X-66514039Y44408720D02*
X-66466420Y44361100D01*
X-66466420Y44361100D02*
X-66371182Y44313481D01*
X-66371182Y44313481D02*
X-66275944Y44313481D01*
X-66275944Y44313481D02*
X-66180706Y44361100D01*
X-66180706Y44361100D02*
X-66133087Y44408720D01*
X-66133087Y44408720D02*
X-66085468Y44503958D01*
X-66085468Y44503958D02*
X-66037849Y44694434D01*
X-66037849Y44694434D02*
X-66037849Y44932529D01*
X-66037849Y44932529D02*
X-66085468Y45123005D01*
X-66085468Y45123005D02*
X-66133087Y45218243D01*
X-66133087Y45218243D02*
X-66180706Y45265862D01*
X-66180706Y45265862D02*
X-66275944Y45313481D01*
X-67037849Y44837291D02*
X-67371182Y44837291D01*
X-67514039Y44313481D02*
X-67037849Y44313481D01*
X-67037849Y44313481D02*
X-67037849Y45313481D01*
X-67037849Y45313481D02*
X-67514039Y45313481D01*
X-67894992Y44599196D02*
X-68371182Y44599196D01*
X-67799754Y44313481D02*
X-68133087Y45313481D01*
X-68133087Y45313481D02*
X-68466420Y44313481D01*
X-69323563Y45265862D02*
X-69228325Y45313481D01*
X-69228325Y45313481D02*
X-69085468Y45313481D01*
X-69085468Y45313481D02*
X-68942611Y45265862D01*
X-68942611Y45265862D02*
X-68847373Y45170624D01*
X-68847373Y45170624D02*
X-68799754Y45075386D01*
X-68799754Y45075386D02*
X-68752135Y44884910D01*
X-68752135Y44884910D02*
X-68752135Y44742053D01*
X-68752135Y44742053D02*
X-68799754Y44551577D01*
X-68799754Y44551577D02*
X-68847373Y44456339D01*
X-68847373Y44456339D02*
X-68942611Y44361100D01*
X-68942611Y44361100D02*
X-69085468Y44313481D01*
X-69085468Y44313481D02*
X-69180706Y44313481D01*
X-69180706Y44313481D02*
X-69323563Y44361100D01*
X-69323563Y44361100D02*
X-69371182Y44408720D01*
X-69371182Y44408720D02*
X-69371182Y44742053D01*
X-69371182Y44742053D02*
X-69180706Y44742053D01*
D12*
%TO.P,J3,1,Pin_1*%
%TO.N,unconnected-(J3-Pin_1-Pad1)*%
X-67310000Y59690000D03*
D13*
%TO.P,J3,2,Pin_2*%
%TO.N,Net-(J3-Pin_2)*%
X-67310000Y57150000D03*
%TO.P,J3,3,Pin_3*%
%TO.N,GND*%
X-67310000Y54610000D03*
%TD*%
D14*
%TO.P,J1,1*%
%TO.N,DSCL+*%
X-38865200Y59588400D03*
D15*
%TO.P,J1,2*%
%TO.N,DSCL-*%
X-40645200Y58572400D03*
%TO.P,J1,3*%
%TO.N,DSDA+*%
X-38865200Y57556400D03*
%TO.P,J1,4*%
%TO.N,VDDB*%
X-40645200Y56540400D03*
%TO.P,J1,5*%
X-38865200Y55524400D03*
%TO.P,J1,6*%
%TO.N,DSDA-*%
X-40645200Y54508400D03*
%TO.P,J1,7*%
%TO.N,GND*%
X-38865200Y53492400D03*
%TO.P,J1,8*%
X-40645200Y52476400D03*
D16*
%TO.P,J1,SH*%
%TO.N,Net-(JP10-A)*%
X-39755200Y64158400D03*
X-39755200Y47898400D03*
%TD*%
D12*
%TO.P,U3,1,SCL/SCK*%
%TO.N,SCL*%
X-87658800Y45373200D03*
D13*
%TO.P,U3,2,SA1/S0*%
%TO.N,Net-(JP5-A)*%
X-85118800Y45373200D03*
%TO.P,U3,3,SDA/SI*%
%TO.N,SDA*%
X-82578800Y45373200D03*
%TO.P,U3,4,SA0/SSN*%
%TO.N,Net-(JP4-A)*%
X-80038800Y45373200D03*
%TO.P,U3,5,DRDY*%
%TO.N,unconnected-(U3-DRDY-Pad5)*%
X-77498800Y45373200D03*
%TO.P,U3,6,NC*%
%TO.N,unconnected-(U3-NC-Pad6)*%
X-74958800Y45373200D03*
%TO.P,U3,7,AVSS*%
%TO.N,GND*%
X-72418800Y45373200D03*
%TO.P,U3,8,NC*%
%TO.N,unconnected-(U3-NC-Pad8)*%
X-72418800Y68423200D03*
%TO.P,U3,9,NC*%
%TO.N,unconnected-(U3-NC-Pad9)*%
X-74958800Y68423200D03*
%TO.P,U3,10,I2C_EN*%
%TO.N,VDDA*%
X-77498800Y68423200D03*
%TO.P,U3,11,NC*%
%TO.N,unconnected-(U3-NC-Pad11)*%
X-80038800Y68423200D03*
%TO.P,U3,12,DVDD*%
%TO.N,VDDA*%
X-82578800Y68423200D03*
%TO.P,U3,13,AVDD*%
X-85118800Y68423200D03*
%TO.P,U3,14,DVSS*%
%TO.N,GND*%
X-87579200Y68382000D03*
%TD*%
D12*
%TO.P,J4,1,Pin_1*%
%TO.N,VDDA*%
X-49318800Y67069600D03*
D13*
%TO.P,J4,2,Pin_2*%
%TO.N,SDA*%
X-49318800Y64529600D03*
%TO.P,J4,3,Pin_3*%
%TO.N,SCL*%
X-49318800Y61989600D03*
%TO.P,J4,4,Pin_4*%
%TO.N,DSDA-*%
X-49318800Y59449600D03*
%TO.P,J4,5,Pin_5*%
%TO.N,DSDA+*%
X-49318800Y56909600D03*
%TO.P,J4,6,Pin_6*%
%TO.N,DSCL-*%
X-49318800Y54369600D03*
%TO.P,J4,7,Pin_7*%
%TO.N,DSCL+*%
X-49318800Y51829600D03*
%TO.P,J4,8,Pin_8*%
%TO.N,VDDB*%
X-49318800Y49289600D03*
%TO.P,J4,9,Pin_9*%
%TO.N,GND*%
X-49318800Y46749600D03*
%TD*%
D17*
%TO.N,GND*%
X-38718800Y66769600D03*
X-38818800Y70769600D03*
X-68178800Y69449600D03*
X-62618800Y63269600D03*
X-77825600Y48666400D03*
X-45618800Y66369600D03*
X-67310000Y51448400D03*
X-57418800Y59269600D03*
X-87223600Y48666400D03*
X-92659200Y48717200D03*
X-55618800Y61769600D03*
X-51908800Y70669600D03*
%TO.N,Net-(D1-A)*%
X-55321200Y55168800D03*
X-53797200Y55880000D03*
%TO.N,Net-(U2-VDDB)*%
X-52768800Y65969100D03*
X-51318800Y64470100D03*
%TO.N,DSDA-*%
X-42672627Y55772927D03*
%TO.N,DSCL-*%
X-45418800Y53569600D03*
%TO.N,DSDA+*%
X-50998777Y53749577D03*
X-43864899Y60819600D03*
%TO.N,DSCL+*%
X-53261473Y51926927D03*
X-46228000Y72288400D03*
X-40487600Y61569600D03*
%TO.N,SCL*%
X-58940500Y61369600D03*
X-58518800Y53246400D03*
%TO.N,SDA*%
X-59304351Y54169600D03*
X-59690000Y62839600D03*
X-62179200Y50850800D03*
X-91795598Y53187600D03*
%TO.N,Net-(J3-Pin_2)*%
X-54897132Y64858188D03*
X-65501623Y63304891D03*
%TO.N,VDDB*%
X-62988800Y72274600D03*
X-44818800Y73029600D03*
X-43918800Y46469600D03*
X-53418800Y44369600D03*
%TO.N,VDDA*%
X-94386400Y51358800D03*
X-57805731Y58240430D03*
X-52818800Y58269600D03*
X-92710000Y52171600D03*
%TO.N,Net-(JP2-A)*%
X-69748400Y64312806D03*
X-56438800Y64878647D03*
%TO.N,Net-(JP3-A)*%
X-61620400Y62026800D03*
X-69576360Y62560429D03*
%TD*%
D18*
%TO.N,GND*%
X-77825600Y48666400D02*
X-75712000Y48666400D01*
X-75712000Y48666400D02*
X-72418800Y45373200D01*
X-38818800Y66869600D02*
X-38818800Y70769600D01*
X-87274400Y48717200D02*
X-87223600Y48666400D01*
X-38718800Y66769600D02*
X-38818800Y66869600D01*
X-67310000Y54610000D02*
X-67310000Y51448400D01*
X-92659200Y48717200D02*
X-87274400Y48717200D01*
X-39065200Y53492400D02*
X-40081200Y52476400D01*
X-39118800Y66369600D02*
X-45618800Y66369600D01*
X-38718800Y66769600D02*
X-39118800Y66369600D01*
%TO.N,Net-(D1-A)*%
X-54508400Y55168800D02*
X-55321200Y55168800D01*
X-53797200Y55880000D02*
X-54508400Y55168800D01*
%TO.N,Net-(U2-VDDB)*%
X-52768800Y65969100D02*
X-52768800Y65920100D01*
X-52768800Y65920100D02*
X-51318800Y64470100D01*
%TO.N,DSDA-*%
X-41857600Y54508400D02*
X-40845200Y54508400D01*
X-42672627Y55323427D02*
X-41857600Y54508400D01*
X-42672627Y55772927D02*
X-42672627Y55323427D01*
%TO.N,DSCL-*%
X-43616000Y58572400D02*
X-40845200Y58572400D01*
X-45418800Y53569600D02*
X-45418800Y56769600D01*
X-45418800Y56769600D02*
X-43616000Y58572400D01*
%TO.N,DSDA+*%
X-44685426Y60819600D02*
X-43864899Y60819600D01*
X-37618800Y60369600D02*
X-37618800Y58802800D01*
X-47835426Y57669600D02*
X-44685426Y60819600D01*
X-38068800Y60819600D02*
X-37618800Y60369600D01*
X-49018800Y57669600D02*
X-47835426Y57669600D01*
X-49318800Y57369600D02*
X-49018800Y57669600D01*
X-43864899Y60819600D02*
X-38068800Y60819600D01*
X-50998777Y54506249D02*
X-49318800Y56186226D01*
X-50998777Y53749577D02*
X-50998777Y54506249D01*
X-37618800Y58802800D02*
X-38865200Y57556400D01*
%TO.N,DSCL+*%
X-40487600Y61569600D02*
X-42018800Y61569600D01*
X-46518800Y54629600D02*
X-46518800Y56769103D01*
X-49318800Y51829600D02*
X-46518800Y54629600D01*
X-46518800Y56769103D02*
X-43665503Y59622400D01*
X-49898800Y51249600D02*
X-49318800Y51829600D01*
X-47418800Y71097600D02*
X-46228000Y72288400D01*
X-53261473Y51926927D02*
X-52584146Y51249600D01*
X-52584146Y51249600D02*
X-49898800Y51249600D01*
X-42018800Y61569600D02*
X-47418800Y66969600D01*
X-43665503Y59622400D02*
X-39099200Y59622400D01*
X-47418800Y66969600D02*
X-47418800Y71097600D01*
%TO.N,SCL*%
X-50497368Y60811032D02*
X-49318800Y61989600D01*
X-58998800Y55629600D02*
X-58518800Y55149600D01*
X-58381932Y60811032D02*
X-50497368Y60811032D01*
X-58940500Y61369600D02*
X-58998800Y61311300D01*
X-58518800Y55149600D02*
X-58518800Y53246400D01*
X-58940500Y61369600D02*
X-58381932Y60811032D01*
X-58998800Y61311300D02*
X-58998800Y55629600D01*
%TO.N,SDA*%
X-59304351Y54169600D02*
X-59690000Y54555249D01*
X-90393200Y53187600D02*
X-91795598Y53187600D01*
X-59304351Y54169600D02*
X-62179200Y51294751D01*
X-82578800Y45373200D02*
X-77253600Y50698400D01*
X-82578800Y45373200D02*
X-90393200Y53187600D01*
X-77253600Y50698400D02*
X-62331600Y50698400D01*
X-62179200Y51294751D02*
X-62179200Y50850800D01*
X-59690000Y54555249D02*
X-59690000Y62839600D01*
X-62331600Y50698400D02*
X-62179200Y50850800D01*
%TO.N,Net-(J3-Pin_2)*%
X-62418800Y66369600D02*
X-56408544Y66369600D01*
X-56408544Y66369600D02*
X-54897132Y64858188D01*
X-63967600Y64820800D02*
X-62418800Y66369600D01*
X-63985714Y64820800D02*
X-63967600Y64820800D01*
X-65501623Y63304891D02*
X-63985714Y64820800D01*
%TO.N,VDDB*%
X-40645200Y56540400D02*
X-39663200Y55558400D01*
X-53418800Y44369600D02*
X-53418800Y45590400D01*
X-39663200Y55558400D02*
X-39099200Y55558400D01*
X-45608800Y73819600D02*
X-62078800Y73819600D01*
X-62078800Y73819600D02*
X-62988800Y72909600D01*
X-43818800Y46469600D02*
X-43918800Y46469600D01*
X-44818800Y73029600D02*
X-45608800Y73819600D01*
X-37718800Y52569600D02*
X-43818800Y46469600D01*
X-44518800Y52869600D02*
X-44518800Y55830261D01*
X-53418800Y45590400D02*
X-49719600Y49289600D01*
X-39099200Y55558400D02*
X-37718800Y54178000D01*
X-44518800Y55830261D02*
X-43808661Y56540400D01*
X-62988800Y72909600D02*
X-62988800Y72274600D01*
X-37718800Y54178000D02*
X-37718800Y52569600D01*
X-48098800Y49289600D02*
X-44518800Y52869600D01*
X-49318800Y49289600D02*
X-48098800Y49289600D01*
X-43808661Y56540400D02*
X-40645200Y56540400D01*
%TO.N,VDDA*%
X-92710000Y52171600D02*
X-93573600Y52171600D01*
X-52818800Y58269600D02*
X-57776561Y58269600D01*
X-93573600Y52171600D02*
X-94386400Y51358800D01*
X-48501112Y58269600D02*
X-52818800Y58269600D01*
X-46859956Y64610756D02*
X-46859956Y59910756D01*
X-49318800Y67069600D02*
X-46859956Y64610756D01*
X-57776561Y58269600D02*
X-57805731Y58240430D01*
X-46859956Y59910756D02*
X-48501112Y58269600D01*
%TO.N,Net-(JP2-A)*%
X-61726912Y65969600D02*
X-65141622Y62554890D01*
X-56438800Y64878647D02*
X-57529753Y65969600D01*
X-57529753Y65969600D02*
X-61726912Y65969600D01*
X-67990484Y62554890D02*
X-69748400Y64312806D01*
X-65141622Y62554890D02*
X-67990484Y62554890D01*
%TO.N,Net-(JP3-A)*%
X-61620400Y62026800D02*
X-69042731Y62026800D01*
X-69042731Y62026800D02*
X-69576360Y62560429D01*
%TD*%
%TA.AperFunction,Conductor*%
%TO.N,GND*%
G36*
X-32197915Y74421638D02*
G01*
X-32137264Y74405916D01*
X-32069969Y74368724D01*
X-32063983Y74364962D01*
X-31799999Y74177656D01*
X-31794471Y74173248D01*
X-31553126Y73957568D01*
X-31548127Y73952569D01*
X-31404609Y73791972D01*
X-31332443Y73711219D01*
X-31328037Y73705693D01*
X-31140727Y73441703D01*
X-31136980Y73435740D01*
X-31105001Y73377879D01*
X-31101518Y73371576D01*
X-31085799Y73311398D01*
X-30891433Y41464392D01*
X-30899800Y41418469D01*
X-30945517Y41299369D01*
X-30948201Y41293341D01*
X-31091473Y41012148D01*
X-31094772Y41006433D01*
X-31266658Y40741750D01*
X-31270537Y40736411D01*
X-31469151Y40491143D01*
X-31473566Y40486239D01*
X-31696724Y40263079D01*
X-31701628Y40258663D01*
X-31946894Y40060049D01*
X-31952233Y40056171D01*
X-32216909Y39884287D01*
X-32222624Y39880987D01*
X-32503843Y39737699D01*
X-32509877Y39735015D01*
X-32512239Y39734108D01*
X-32514024Y39733423D01*
X-32559025Y39725074D01*
X-93568846Y39675968D01*
X-93614099Y39684337D01*
X-93719460Y39724781D01*
X-93725477Y39727460D01*
X-93995608Y39865099D01*
X-94001322Y39868399D01*
X-94255585Y40033519D01*
X-94260917Y40037392D01*
X-94496529Y40228187D01*
X-94501419Y40232590D01*
X-94715801Y40446972D01*
X-94720205Y40451861D01*
X-94911017Y40687494D01*
X-94914872Y40692800D01*
X-95006081Y40833250D01*
X-95026404Y40901086D01*
X-95028940Y41310188D01*
X-95035358Y42345265D01*
X-93899300Y42345265D01*
X-93876951Y42211331D01*
X-93858372Y42099991D01*
X-93858370Y42099982D01*
X-93777630Y41864793D01*
X-93777629Y41864791D01*
X-93686333Y41696092D01*
X-93659274Y41646091D01*
X-93545455Y41499856D01*
X-93506533Y41449850D01*
X-93323586Y41281436D01*
X-93115407Y41145427D01*
X-93115408Y41145427D01*
X-93001667Y41095536D01*
X-92887681Y41045537D01*
X-92887680Y41045537D01*
X-92887678Y41045536D01*
X-92733264Y41006433D01*
X-92646621Y40984492D01*
X-92481354Y40970798D01*
X-92460869Y40969100D01*
X-92460867Y40969100D01*
X-92336731Y40969100D01*
X-92317317Y40970709D01*
X-92150979Y40984492D01*
X-91909919Y41045537D01*
X-91682193Y41145427D01*
X-91474015Y41281436D01*
X-91419700Y41331436D01*
X-91291068Y41449850D01*
X-91291067Y41449852D01*
X-91291062Y41449856D01*
X-91138326Y41646091D01*
X-91019972Y41864790D01*
X-90939229Y42099986D01*
X-90898300Y42345265D01*
X-90898300Y42593935D01*
X-90939229Y42839214D01*
X-91019972Y43074410D01*
X-91138326Y43293109D01*
X-91291062Y43489344D01*
X-91291064Y43489346D01*
X-91291068Y43489351D01*
X-91474015Y43657765D01*
X-91682194Y43793774D01*
X-91682193Y43793774D01*
X-91909916Y43893662D01*
X-91909923Y43893665D01*
X-92150972Y43954707D01*
X-92150977Y43954708D01*
X-92150979Y43954708D01*
X-92284170Y43965745D01*
X-92336731Y43970100D01*
X-92336733Y43970100D01*
X-92460867Y43970100D01*
X-92460869Y43970100D01*
X-92522093Y43965027D01*
X-92646621Y43954708D01*
X-92646623Y43954708D01*
X-92646629Y43954707D01*
X-92887678Y43893665D01*
X-92887685Y43893662D01*
X-93115407Y43793774D01*
X-93323586Y43657765D01*
X-93506533Y43489351D01*
X-93659274Y43293110D01*
X-93659275Y43293109D01*
X-93777629Y43074410D01*
X-93777630Y43074408D01*
X-93858370Y42839219D01*
X-93858371Y42839214D01*
X-93899300Y42593935D01*
X-93899300Y42345265D01*
X-95035358Y42345265D01*
X-95085516Y50434661D01*
X-95065937Y50502899D01*
X-95012571Y50549724D01*
X-94942361Y50560263D01*
X-94900125Y50546560D01*
X-94754977Y50468977D01*
X-94574299Y50414168D01*
X-94574295Y50414168D01*
X-94574292Y50414167D01*
X-94386403Y50395662D01*
X-94386400Y50395662D01*
X-94386397Y50395662D01*
X-94198509Y50414167D01*
X-94198508Y50414168D01*
X-94198501Y50414168D01*
X-94017823Y50468977D01*
X-93851309Y50557980D01*
X-93705359Y50677759D01*
X-93585580Y50823709D01*
X-93496577Y50990223D01*
X-93441768Y51170901D01*
X-93431714Y51272989D01*
X-93405133Y51338819D01*
X-93347179Y51379830D01*
X-93276253Y51382998D01*
X-93246925Y51371760D01*
X-93078579Y51281778D01*
X-93078577Y51281777D01*
X-92897899Y51226968D01*
X-92897895Y51226968D01*
X-92897892Y51226967D01*
X-92710003Y51208462D01*
X-92710000Y51208462D01*
X-92709997Y51208462D01*
X-92522109Y51226967D01*
X-92522108Y51226968D01*
X-92522101Y51226968D01*
X-92341423Y51281777D01*
X-92174909Y51370780D01*
X-92028959Y51490559D01*
X-91909180Y51636509D01*
X-91820177Y51803023D01*
X-91765368Y51983701D01*
X-91751263Y52126920D01*
X-91724681Y52192750D01*
X-91666727Y52233761D01*
X-91638223Y52239962D01*
X-91607699Y52242968D01*
X-91427021Y52297777D01*
X-91260507Y52386780D01*
X-91114557Y52506559D01*
X-91092829Y52533035D01*
X-91034152Y52573003D01*
X-90995431Y52579100D01*
X-90697439Y52579100D01*
X-90629318Y52559098D01*
X-90608344Y52542195D01*
X-85012944Y46946795D01*
X-84978918Y46884483D01*
X-84983983Y46813668D01*
X-85026530Y46756832D01*
X-85093050Y46732021D01*
X-85102039Y46731700D01*
X-85231369Y46731700D01*
X-85375829Y46707594D01*
X-85453431Y46694645D01*
X-85453440Y46694643D01*
X-85666372Y46621544D01*
X-85666374Y46621542D01*
X-85864374Y46514390D01*
X-85864376Y46514389D01*
X-86042038Y46376109D01*
X-86103046Y46309837D01*
X-86163899Y46273267D01*
X-86234864Y46275402D01*
X-86293409Y46315564D01*
X-86313801Y46351143D01*
X-86357911Y46469403D01*
X-86357913Y46469408D01*
X-86445539Y46586462D01*
X-86562593Y46674088D01*
X-86562598Y46674090D01*
X-86699596Y46725189D01*
X-86699604Y46725191D01*
X-86760151Y46731700D01*
X-86760162Y46731700D01*
X-88557438Y46731700D01*
X-88557450Y46731700D01*
X-88617997Y46725191D01*
X-88618005Y46725189D01*
X-88755003Y46674090D01*
X-88755008Y46674088D01*
X-88872062Y46586462D01*
X-88959688Y46469408D01*
X-88959690Y46469403D01*
X-89010789Y46332405D01*
X-89010791Y46332397D01*
X-89017300Y46271850D01*
X-89017300Y44474551D01*
X-89010791Y44414004D01*
X-89010789Y44413996D01*
X-88959690Y44276998D01*
X-88959688Y44276993D01*
X-88872062Y44159939D01*
X-88755008Y44072313D01*
X-88755006Y44072312D01*
X-88755004Y44072311D01*
X-88701200Y44052243D01*
X-88618005Y44021212D01*
X-88617997Y44021210D01*
X-88557450Y44014701D01*
X-88557445Y44014701D01*
X-88557438Y44014700D01*
X-88557432Y44014700D01*
X-86760168Y44014700D01*
X-86760162Y44014700D01*
X-86760155Y44014701D01*
X-86760151Y44014701D01*
X-86699604Y44021210D01*
X-86699601Y44021211D01*
X-86699599Y44021211D01*
X-86562596Y44072311D01*
X-86492401Y44124858D01*
X-86445539Y44159939D01*
X-86357914Y44276992D01*
X-86357915Y44276992D01*
X-86357911Y44276996D01*
X-86313801Y44395261D01*
X-86271255Y44452093D01*
X-86204734Y44476904D01*
X-86135360Y44461812D01*
X-86103047Y44436565D01*
X-86082271Y44413996D01*
X-86042038Y44370292D01*
X-86041145Y44369597D01*
X-85864376Y44232011D01*
X-85666374Y44124858D01*
X-85666373Y44124858D01*
X-85666372Y44124857D01*
X-85554573Y44086477D01*
X-85453435Y44051756D01*
X-85231369Y44014700D01*
X-85231365Y44014700D01*
X-85006235Y44014700D01*
X-85006231Y44014700D01*
X-84784165Y44051756D01*
X-84571226Y44124858D01*
X-84373224Y44232011D01*
X-84195560Y44370294D01*
X-84043078Y44535932D01*
X-83954282Y44671846D01*
X-83900280Y44717932D01*
X-83829932Y44727508D01*
X-83765575Y44697531D01*
X-83743320Y44671847D01*
X-83710193Y44621142D01*
X-83654525Y44535935D01*
X-83654521Y44535930D01*
X-83502038Y44370292D01*
X-83501145Y44369597D01*
X-83324376Y44232011D01*
X-83126374Y44124858D01*
X-83126373Y44124858D01*
X-83126372Y44124857D01*
X-83014573Y44086477D01*
X-82913435Y44051756D01*
X-82691369Y44014700D01*
X-82691365Y44014700D01*
X-82466235Y44014700D01*
X-82466231Y44014700D01*
X-82244165Y44051756D01*
X-82031226Y44124858D01*
X-81833224Y44232011D01*
X-81655560Y44370294D01*
X-81503078Y44535932D01*
X-81414282Y44671846D01*
X-81360280Y44717932D01*
X-81289932Y44727508D01*
X-81225575Y44697531D01*
X-81203320Y44671847D01*
X-81170193Y44621142D01*
X-81114525Y44535935D01*
X-81114521Y44535930D01*
X-80962038Y44370292D01*
X-80961145Y44369597D01*
X-80784376Y44232011D01*
X-80586374Y44124858D01*
X-80586373Y44124858D01*
X-80586372Y44124857D01*
X-80474573Y44086477D01*
X-80373435Y44051756D01*
X-80151369Y44014700D01*
X-80151365Y44014700D01*
X-79926235Y44014700D01*
X-79926231Y44014700D01*
X-79704165Y44051756D01*
X-79491226Y44124858D01*
X-79293224Y44232011D01*
X-79115560Y44370294D01*
X-78963078Y44535932D01*
X-78874282Y44671846D01*
X-78820280Y44717932D01*
X-78749932Y44727508D01*
X-78685575Y44697531D01*
X-78663320Y44671847D01*
X-78630193Y44621142D01*
X-78574525Y44535935D01*
X-78574521Y44535930D01*
X-78422038Y44370292D01*
X-78421145Y44369597D01*
X-78244376Y44232011D01*
X-78046374Y44124858D01*
X-78046373Y44124858D01*
X-78046372Y44124857D01*
X-77934573Y44086477D01*
X-77833435Y44051756D01*
X-77611369Y44014700D01*
X-77611365Y44014700D01*
X-77386235Y44014700D01*
X-77386231Y44014700D01*
X-77164165Y44051756D01*
X-76951226Y44124858D01*
X-76753224Y44232011D01*
X-76575560Y44370294D01*
X-76423078Y44535932D01*
X-76334282Y44671846D01*
X-76280280Y44717932D01*
X-76209932Y44727508D01*
X-76145575Y44697531D01*
X-76123320Y44671847D01*
X-76090193Y44621142D01*
X-76034525Y44535935D01*
X-76034521Y44535930D01*
X-75882038Y44370292D01*
X-75881145Y44369597D01*
X-75704376Y44232011D01*
X-75506374Y44124858D01*
X-75506373Y44124858D01*
X-75506372Y44124857D01*
X-75394573Y44086477D01*
X-75293435Y44051756D01*
X-75071369Y44014700D01*
X-75071365Y44014700D01*
X-74846235Y44014700D01*
X-74846231Y44014700D01*
X-74624165Y44051756D01*
X-74411226Y44124858D01*
X-74213224Y44232011D01*
X-74035560Y44370294D01*
X-73883078Y44535932D01*
X-73793984Y44672302D01*
X-73739981Y44718390D01*
X-73669633Y44727965D01*
X-73605276Y44697988D01*
X-73583018Y44672302D01*
X-73494126Y44536242D01*
X-73341703Y44370666D01*
X-73164102Y44232433D01*
X-73164101Y44232432D01*
X-72966172Y44125318D01*
X-72966170Y44125317D01*
X-72753317Y44052245D01*
X-72753308Y44052243D01*
X-72672800Y44038809D01*
X-72672800Y44939526D01*
X-72561115Y44888520D01*
X-72454563Y44873200D01*
X-72383037Y44873200D01*
X-72276485Y44888520D01*
X-72164800Y44939526D01*
X-72164800Y44038810D01*
X-72084293Y44052243D01*
X-72084284Y44052245D01*
X-71871431Y44125317D01*
X-71871429Y44125318D01*
X-71673500Y44232432D01*
X-71673499Y44232433D01*
X-71495898Y44370666D01*
X-71343475Y44536242D01*
X-71220381Y44724652D01*
X-71129980Y44930744D01*
X-71129977Y44930751D01*
X-71082256Y45119200D01*
X-71987684Y45119200D01*
X-71959307Y45163356D01*
X-71918800Y45301311D01*
X-71918800Y45445089D01*
X-71959307Y45583044D01*
X-71987684Y45627200D01*
X-71082256Y45627200D01*
X-71082256Y45627201D01*
X-71129977Y45815650D01*
X-71129980Y45815657D01*
X-71220381Y46021749D01*
X-71343475Y46210159D01*
X-71495898Y46375735D01*
X-71673499Y46513968D01*
X-71673500Y46513969D01*
X-71871429Y46621083D01*
X-71871431Y46621084D01*
X-72084288Y46694157D01*
X-72084299Y46694160D01*
X-72164800Y46707594D01*
X-72164800Y45806875D01*
X-72276485Y45857880D01*
X-72383037Y45873200D01*
X-72454563Y45873200D01*
X-72561115Y45857880D01*
X-72672800Y45806875D01*
X-72672800Y46707593D01*
X-72672801Y46707594D01*
X-72753302Y46694160D01*
X-72753313Y46694157D01*
X-72966170Y46621084D01*
X-72966172Y46621083D01*
X-73164101Y46513969D01*
X-73164102Y46513968D01*
X-73341703Y46375735D01*
X-73494130Y46210155D01*
X-73583020Y46074099D01*
X-73637024Y46028011D01*
X-73707372Y46018436D01*
X-73771729Y46048414D01*
X-73793984Y46074099D01*
X-73832916Y46133689D01*
X-73883076Y46210466D01*
X-73883080Y46210471D01*
X-74012580Y46351143D01*
X-74035560Y46376106D01*
X-74035561Y46376107D01*
X-74035563Y46376109D01*
X-74158708Y46471957D01*
X-74213224Y46514389D01*
X-74411226Y46621542D01*
X-74411228Y46621543D01*
X-74411229Y46621544D01*
X-74624161Y46694643D01*
X-74624170Y46694645D01*
X-74701771Y46707594D01*
X-74846231Y46731700D01*
X-75071369Y46731700D01*
X-75215829Y46707594D01*
X-75293431Y46694645D01*
X-75293440Y46694643D01*
X-75506372Y46621544D01*
X-75506374Y46621542D01*
X-75704374Y46514390D01*
X-75704376Y46514389D01*
X-75882038Y46376109D01*
X-76034521Y46210471D01*
X-76123317Y46074557D01*
X-76177321Y46028469D01*
X-76247669Y46018894D01*
X-76312026Y46048871D01*
X-76334283Y46074557D01*
X-76423080Y46210471D01*
X-76552580Y46351143D01*
X-76575560Y46376106D01*
X-76575561Y46376107D01*
X-76575563Y46376109D01*
X-76698708Y46471957D01*
X-76753224Y46514389D01*
X-76951226Y46621542D01*
X-76951228Y46621543D01*
X-76951229Y46621544D01*
X-77164161Y46694643D01*
X-77164170Y46694645D01*
X-77241771Y46707594D01*
X-77386231Y46731700D01*
X-77611369Y46731700D01*
X-77755829Y46707594D01*
X-77833431Y46694645D01*
X-77833440Y46694643D01*
X-78046372Y46621544D01*
X-78046374Y46621542D01*
X-78244374Y46514390D01*
X-78244376Y46514389D01*
X-78422038Y46376109D01*
X-78574521Y46210471D01*
X-78663317Y46074557D01*
X-78717321Y46028469D01*
X-78787669Y46018894D01*
X-78852026Y46048871D01*
X-78874283Y46074557D01*
X-78963080Y46210471D01*
X-79092580Y46351143D01*
X-79115560Y46376106D01*
X-79115561Y46376107D01*
X-79115563Y46376109D01*
X-79238708Y46471957D01*
X-79293224Y46514389D01*
X-79491226Y46621542D01*
X-79491228Y46621543D01*
X-79491229Y46621544D01*
X-79704161Y46694643D01*
X-79704170Y46694645D01*
X-79781771Y46707594D01*
X-79926231Y46731700D01*
X-80055562Y46731700D01*
X-80123683Y46751702D01*
X-80170176Y46805358D01*
X-80180280Y46875632D01*
X-80150786Y46940212D01*
X-80144657Y46946795D01*
X-78678964Y48412487D01*
X-77038456Y50052995D01*
X-76976144Y50087021D01*
X-76949361Y50089900D01*
X-62808017Y50089900D01*
X-62739896Y50069898D01*
X-62728084Y50061300D01*
X-62714291Y50049980D01*
X-62547777Y49960977D01*
X-62367099Y49906168D01*
X-62367095Y49906168D01*
X-62367092Y49906167D01*
X-62179203Y49887662D01*
X-62179200Y49887662D01*
X-62179197Y49887662D01*
X-61991309Y49906167D01*
X-61991308Y49906168D01*
X-61991301Y49906168D01*
X-61810623Y49960977D01*
X-61644109Y50049980D01*
X-61498159Y50169759D01*
X-61378380Y50315709D01*
X-61289377Y50482223D01*
X-61234568Y50662901D01*
X-61233828Y50670414D01*
X-61216062Y50850797D01*
X-61216062Y50850804D01*
X-61234567Y51038692D01*
X-61234568Y51038695D01*
X-61234568Y51038699D01*
X-61289377Y51219377D01*
X-61289378Y51219379D01*
X-61291174Y51225300D01*
X-61288923Y51225984D01*
X-61295405Y51286157D01*
X-61263640Y51349650D01*
X-61260525Y51352879D01*
X-59633365Y52980039D01*
X-59571055Y53014063D01*
X-59500240Y53008998D01*
X-59443404Y52966451D01*
X-59423698Y52927518D01*
X-59408624Y52877824D01*
X-59408623Y52877822D01*
X-59348018Y52764438D01*
X-59319620Y52711309D01*
X-59199841Y52565359D01*
X-59053891Y52445580D01*
X-58887377Y52356577D01*
X-58706699Y52301768D01*
X-58706695Y52301768D01*
X-58706692Y52301767D01*
X-58518803Y52283262D01*
X-58518800Y52283262D01*
X-58518797Y52283262D01*
X-58330909Y52301767D01*
X-58330908Y52301768D01*
X-58330901Y52301768D01*
X-58150223Y52356577D01*
X-57983709Y52445580D01*
X-57837759Y52565359D01*
X-57717980Y52711309D01*
X-57628977Y52877823D01*
X-57574168Y53058501D01*
X-57573787Y53062367D01*
X-57555662Y53246397D01*
X-57555662Y53246404D01*
X-57574167Y53434292D01*
X-57574168Y53434295D01*
X-57574168Y53434299D01*
X-57628977Y53614977D01*
X-57717980Y53781491D01*
X-57837759Y53927441D01*
X-57849986Y53937476D01*
X-57864235Y53949170D01*
X-57904203Y54007847D01*
X-57910300Y54046568D01*
X-57910300Y55105582D01*
X-57909760Y55113814D01*
X-57905049Y55149600D01*
X-57905049Y55149601D01*
X-57907576Y55168797D01*
X-56284338Y55168797D01*
X-56265834Y54980909D01*
X-56265832Y54980901D01*
X-56211023Y54800222D01*
X-56123929Y54637281D01*
X-56122020Y54633709D01*
X-56002241Y54487759D01*
X-55856291Y54367980D01*
X-55689777Y54278977D01*
X-55509099Y54224168D01*
X-55509095Y54224168D01*
X-55509092Y54224167D01*
X-55321203Y54205662D01*
X-55321200Y54205662D01*
X-55321197Y54205662D01*
X-55133309Y54224167D01*
X-55133308Y54224168D01*
X-55133301Y54224168D01*
X-54952623Y54278977D01*
X-54786109Y54367980D01*
X-54640159Y54487759D01*
X-54621892Y54510018D01*
X-54563217Y54549984D01*
X-54516658Y54554221D01*
X-54516658Y54555050D01*
X-54508402Y54555050D01*
X-54508402Y54555051D01*
X-54508400Y54555050D01*
X-54468520Y54560300D01*
X-54468515Y54560300D01*
X-54390609Y54570557D01*
X-54368943Y54573409D01*
X-54365065Y54573920D01*
X-54349549Y54575962D01*
X-54201524Y54637276D01*
X-54106328Y54710323D01*
X-54106328Y54710324D01*
X-54098109Y54716630D01*
X-54098100Y54716638D01*
X-54074413Y54734813D01*
X-54052435Y54763456D01*
X-54047016Y54769637D01*
X-53932730Y54883923D01*
X-53870420Y54917947D01*
X-53831287Y54920219D01*
X-53797203Y54916862D01*
X-53797200Y54916862D01*
X-53797197Y54916862D01*
X-53609309Y54935367D01*
X-53609308Y54935368D01*
X-53609301Y54935368D01*
X-53428623Y54990177D01*
X-53262109Y55079180D01*
X-53116159Y55198959D01*
X-52996380Y55344909D01*
X-52907377Y55511423D01*
X-52852568Y55692101D01*
X-52851407Y55703891D01*
X-52834062Y55879997D01*
X-52834062Y55880004D01*
X-52852567Y56067892D01*
X-52852568Y56067895D01*
X-52852568Y56067899D01*
X-52907377Y56248577D01*
X-52996380Y56415091D01*
X-53116159Y56561041D01*
X-53262109Y56680820D01*
X-53311807Y56707384D01*
X-53428622Y56769823D01*
X-53609301Y56824632D01*
X-53609309Y56824634D01*
X-53797197Y56843138D01*
X-53797203Y56843138D01*
X-53985092Y56824634D01*
X-53985100Y56824632D01*
X-54165779Y56769823D01*
X-54332292Y56680820D01*
X-54478241Y56561041D01*
X-54598020Y56415092D01*
X-54687023Y56248579D01*
X-54729096Y56109887D01*
X-54768012Y56050506D01*
X-54832854Y56021591D01*
X-54903035Y56032323D01*
X-54909065Y56035341D01*
X-54914886Y56038452D01*
X-54952623Y56058623D01*
X-55133301Y56113432D01*
X-55133309Y56113434D01*
X-55321197Y56131938D01*
X-55321203Y56131938D01*
X-55509092Y56113434D01*
X-55509100Y56113432D01*
X-55689779Y56058623D01*
X-55856292Y55969620D01*
X-56002241Y55849841D01*
X-56122020Y55703892D01*
X-56211023Y55537379D01*
X-56265832Y55356700D01*
X-56265834Y55356692D01*
X-56284338Y55168804D01*
X-56284338Y55168797D01*
X-57907576Y55168797D01*
X-57911547Y55198959D01*
X-57925962Y55308450D01*
X-57965684Y55404349D01*
X-57987275Y55456476D01*
X-58061899Y55553727D01*
X-58061929Y55553764D01*
X-58084813Y55583587D01*
X-58094610Y55591105D01*
X-58113454Y55605565D01*
X-58119647Y55610996D01*
X-58353395Y55844744D01*
X-58387421Y55907056D01*
X-58390300Y55933839D01*
X-58390300Y57255839D01*
X-58370298Y57323960D01*
X-58316642Y57370453D01*
X-58246368Y57380557D01*
X-58204905Y57366962D01*
X-58174308Y57350607D01*
X-57993630Y57295798D01*
X-57993626Y57295798D01*
X-57993623Y57295797D01*
X-57805734Y57277292D01*
X-57805731Y57277292D01*
X-57805728Y57277292D01*
X-57617840Y57295797D01*
X-57617839Y57295798D01*
X-57617832Y57295798D01*
X-57437154Y57350607D01*
X-57270640Y57439610D01*
X-57124690Y57559389D01*
X-57079023Y57615035D01*
X-57020346Y57655003D01*
X-56981624Y57661100D01*
X-53618967Y57661100D01*
X-53550846Y57641098D01*
X-53521570Y57615036D01*
X-53499841Y57588559D01*
X-53499839Y57588558D01*
X-53499839Y57588557D01*
X-53407003Y57512368D01*
X-53353891Y57468780D01*
X-53187377Y57379777D01*
X-53006699Y57324968D01*
X-53006695Y57324968D01*
X-53006692Y57324967D01*
X-52818803Y57306462D01*
X-52818800Y57306462D01*
X-52818797Y57306462D01*
X-52630909Y57324967D01*
X-52630908Y57324968D01*
X-52630901Y57324968D01*
X-52450223Y57379777D01*
X-52283709Y57468780D01*
X-52137759Y57588559D01*
X-52116031Y57615035D01*
X-52057354Y57655003D01*
X-52018633Y57661100D01*
X-50665465Y57661100D01*
X-50597344Y57641098D01*
X-50550851Y57587442D01*
X-50540747Y57517168D01*
X-50550077Y57484487D01*
X-50608097Y57352214D01*
X-50608098Y57352213D01*
X-50663363Y57133976D01*
X-50663364Y57133970D01*
X-50663364Y57133968D01*
X-50681956Y56909600D01*
X-50665200Y56707384D01*
X-50663363Y56685225D01*
X-50608098Y56466988D01*
X-50608097Y56466987D01*
X-50608096Y56466984D01*
X-50540435Y56312732D01*
X-50517659Y56260807D01*
X-50410465Y56096734D01*
X-50389952Y56028766D01*
X-50409441Y55960497D01*
X-50426853Y55938724D01*
X-51397925Y54967651D01*
X-51404126Y54962213D01*
X-51432766Y54940235D01*
X-51458317Y54906938D01*
X-51458337Y54906910D01*
X-51530303Y54813123D01*
X-51582787Y54686412D01*
X-51591615Y54665100D01*
X-51591616Y54665099D01*
X-51607815Y54542048D01*
X-51609039Y54532742D01*
X-51637759Y54467814D01*
X-51654027Y54451785D01*
X-51679814Y54430622D01*
X-51679816Y54430620D01*
X-51799597Y54284669D01*
X-51888600Y54118156D01*
X-51943409Y53937477D01*
X-51943411Y53937469D01*
X-51961915Y53749581D01*
X-51961915Y53749574D01*
X-51943411Y53561686D01*
X-51943409Y53561678D01*
X-51888600Y53380999D01*
X-51816655Y53246400D01*
X-51799597Y53214486D01*
X-51679818Y53068536D01*
X-51533868Y52948757D01*
X-51367354Y52859754D01*
X-51186676Y52804945D01*
X-51186672Y52804945D01*
X-51186669Y52804944D01*
X-50998780Y52786439D01*
X-50998777Y52786439D01*
X-50998774Y52786439D01*
X-50810886Y52804944D01*
X-50810885Y52804945D01*
X-50810878Y52804945D01*
X-50630200Y52859754D01*
X-50472129Y52944245D01*
X-50402625Y52958716D01*
X-50336329Y52933312D01*
X-50294291Y52876099D01*
X-50289858Y52805241D01*
X-50320034Y52747784D01*
X-50394520Y52666872D01*
X-50394525Y52666866D01*
X-50517659Y52478394D01*
X-50608097Y52272214D01*
X-50608098Y52272213D01*
X-50663363Y52053976D01*
X-50663364Y52053970D01*
X-50663364Y52053968D01*
X-50670016Y51973694D01*
X-50695574Y51907459D01*
X-50752886Y51865555D01*
X-50795585Y51858100D01*
X-52177356Y51858100D01*
X-52245477Y51878102D01*
X-52291970Y51931758D01*
X-52302749Y51971750D01*
X-52316840Y52114819D01*
X-52316841Y52114822D01*
X-52316841Y52114826D01*
X-52371650Y52295504D01*
X-52460653Y52462018D01*
X-52580432Y52607968D01*
X-52726382Y52727747D01*
X-52763869Y52747784D01*
X-52892895Y52816750D01*
X-53073574Y52871559D01*
X-53073582Y52871561D01*
X-53261470Y52890065D01*
X-53261476Y52890065D01*
X-53449365Y52871561D01*
X-53449373Y52871559D01*
X-53630052Y52816750D01*
X-53796565Y52727747D01*
X-53942514Y52607968D01*
X-54062293Y52462019D01*
X-54151296Y52295506D01*
X-54206105Y52114827D01*
X-54206107Y52114819D01*
X-54224611Y51926931D01*
X-54224611Y51926924D01*
X-54206107Y51739036D01*
X-54206105Y51739028D01*
X-54151296Y51558349D01*
X-54080128Y51425203D01*
X-54062293Y51391836D01*
X-53942514Y51245886D01*
X-53796564Y51126107D01*
X-53630050Y51037104D01*
X-53449372Y50982295D01*
X-53449368Y50982295D01*
X-53449365Y50982294D01*
X-53261476Y50963789D01*
X-53261473Y50963789D01*
X-53261471Y50963789D01*
X-53238548Y50966047D01*
X-53227389Y50967146D01*
X-53157635Y50953918D01*
X-53125943Y50930848D01*
X-53045541Y50850446D01*
X-53040109Y50844252D01*
X-53018132Y50815612D01*
X-52987941Y50792446D01*
X-52987930Y50792437D01*
X-52986220Y50791125D01*
X-52986218Y50791123D01*
X-52891022Y50718076D01*
X-52742997Y50656762D01*
X-52723603Y50654209D01*
X-52624031Y50641100D01*
X-52624026Y50641100D01*
X-52584146Y50635850D01*
X-52548365Y50640560D01*
X-52540134Y50641100D01*
X-50161194Y50641100D01*
X-50093073Y50621098D01*
X-50046580Y50567442D01*
X-50036476Y50497168D01*
X-50065970Y50432588D01*
X-50083803Y50415669D01*
X-50242035Y50292512D01*
X-50394521Y50126871D01*
X-50394525Y50126866D01*
X-50517659Y49938394D01*
X-50608097Y49732214D01*
X-50608098Y49732213D01*
X-50663363Y49513976D01*
X-50663364Y49513970D01*
X-50663364Y49513968D01*
X-50666781Y49472729D01*
X-50681956Y49289599D01*
X-50678989Y49253784D01*
X-50693299Y49184245D01*
X-50715464Y49154287D01*
X-53817948Y46051802D01*
X-53824149Y46046364D01*
X-53852789Y46024386D01*
X-53878340Y45991089D01*
X-53878360Y45991062D01*
X-53918363Y45938928D01*
X-53975700Y45897060D01*
X-54018326Y45889631D01*
X-69947332Y45889631D01*
X-69947332Y44615631D01*
X-69967334Y44547510D01*
X-70020990Y44501017D01*
X-70073332Y44489631D01*
X-70810527Y44489631D01*
X-70810527Y42337331D01*
X-66974622Y42337331D01*
X-66906501Y42317329D01*
X-66860008Y42263673D01*
X-66848622Y42211331D01*
X-66848622Y40637331D01*
X-55937889Y40637331D01*
X-55937889Y42211331D01*
X-55917887Y42279452D01*
X-55864231Y42325945D01*
X-55811889Y42337331D01*
X-53474693Y42337331D01*
X-53474693Y42395265D01*
X-35179300Y42395265D01*
X-35151148Y42226558D01*
X-35138372Y42149991D01*
X-35138370Y42149982D01*
X-35057630Y41914793D01*
X-35057629Y41914791D01*
X-34939275Y41696092D01*
X-34939274Y41696091D01*
X-34786533Y41499850D01*
X-34603586Y41331436D01*
X-34395407Y41195427D01*
X-34395408Y41195427D01*
X-34281419Y41145427D01*
X-34167681Y41095537D01*
X-34167680Y41095537D01*
X-34167678Y41095536D01*
X-33970233Y41045536D01*
X-33926621Y41034492D01*
X-33761354Y41020798D01*
X-33740869Y41019100D01*
X-33740867Y41019100D01*
X-33616731Y41019100D01*
X-33597317Y41020709D01*
X-33430979Y41034492D01*
X-33189919Y41095537D01*
X-32962193Y41195427D01*
X-32754015Y41331436D01*
X-32625383Y41449850D01*
X-32571068Y41499850D01*
X-32571067Y41499852D01*
X-32571062Y41499856D01*
X-32418326Y41696091D01*
X-32299972Y41914790D01*
X-32219229Y42149986D01*
X-32178300Y42395265D01*
X-32178300Y42643935D01*
X-32219229Y42889214D01*
X-32299972Y43124410D01*
X-32418326Y43343109D01*
X-32571062Y43539344D01*
X-32571064Y43539346D01*
X-32571068Y43539351D01*
X-32754015Y43707765D01*
X-32962194Y43843774D01*
X-32962193Y43843774D01*
X-33189916Y43943662D01*
X-33189923Y43943665D01*
X-33430972Y44004707D01*
X-33430977Y44004708D01*
X-33430979Y44004708D01*
X-33564170Y44015745D01*
X-33616731Y44020100D01*
X-33616733Y44020100D01*
X-33740867Y44020100D01*
X-33740869Y44020100D01*
X-33802093Y44015027D01*
X-33926621Y44004708D01*
X-33926623Y44004708D01*
X-33926629Y44004707D01*
X-34167678Y43943665D01*
X-34167685Y43943662D01*
X-34395407Y43843774D01*
X-34603586Y43707765D01*
X-34786533Y43539351D01*
X-34939274Y43343110D01*
X-34939275Y43343109D01*
X-35057629Y43124410D01*
X-35057630Y43124408D01*
X-35138370Y42889219D01*
X-35138371Y42889214D01*
X-35179300Y42643935D01*
X-35179300Y42395265D01*
X-53474693Y42395265D01*
X-53474693Y43286758D01*
X-53454691Y43354879D01*
X-53401035Y43401372D01*
X-53361045Y43412151D01*
X-53256345Y43422463D01*
X-53230910Y43424967D01*
X-53230910Y43424968D01*
X-53230901Y43424968D01*
X-53050223Y43479777D01*
X-52883709Y43568780D01*
X-52737759Y43688559D01*
X-52617980Y43834509D01*
X-52528977Y44001023D01*
X-52474168Y44181701D01*
X-52469213Y44232012D01*
X-52455662Y44369597D01*
X-52455662Y44369604D01*
X-52474167Y44557492D01*
X-52474168Y44557495D01*
X-52474168Y44557499D01*
X-52528977Y44738177D01*
X-52617980Y44904691D01*
X-52737759Y45050641D01*
X-52764235Y45072370D01*
X-52804203Y45131047D01*
X-52810300Y45169768D01*
X-52810300Y45286162D01*
X-52790298Y45354283D01*
X-52773400Y45375252D01*
X-50808364Y47340289D01*
X-50746054Y47374312D01*
X-50675239Y47369248D01*
X-50618403Y47326701D01*
X-50593592Y47260181D01*
X-50603880Y47200586D01*
X-50607622Y47192056D01*
X-50607624Y47192050D01*
X-50655345Y47003601D01*
X-50655344Y47003600D01*
X-49749916Y47003600D01*
X-49778293Y46959444D01*
X-49818800Y46821489D01*
X-49818800Y46677711D01*
X-49778293Y46539756D01*
X-49749916Y46495600D01*
X-50655345Y46495600D01*
X-50607624Y46307151D01*
X-50607621Y46307144D01*
X-50517220Y46101052D01*
X-50394126Y45912642D01*
X-50241703Y45747066D01*
X-50064102Y45608833D01*
X-50064101Y45608832D01*
X-49866172Y45501718D01*
X-49866170Y45501717D01*
X-49653317Y45428645D01*
X-49653308Y45428643D01*
X-49572800Y45415209D01*
X-49572800Y46315926D01*
X-49461115Y46264920D01*
X-49354563Y46249600D01*
X-49283037Y46249600D01*
X-49176485Y46264920D01*
X-49064800Y46315926D01*
X-49064800Y45415210D01*
X-48984293Y45428643D01*
X-48984284Y45428645D01*
X-48771431Y45501717D01*
X-48771429Y45501718D01*
X-48573500Y45608832D01*
X-48573499Y45608833D01*
X-48395898Y45747066D01*
X-48243475Y45912642D01*
X-48120381Y46101052D01*
X-48029980Y46307144D01*
X-48029977Y46307151D01*
X-47982256Y46495600D01*
X-48887684Y46495600D01*
X-48859307Y46539756D01*
X-48818800Y46677711D01*
X-48818800Y46821489D01*
X-48859307Y46959444D01*
X-48887684Y47003600D01*
X-47982256Y47003600D01*
X-47982256Y47003601D01*
X-48029977Y47192050D01*
X-48029980Y47192057D01*
X-48120381Y47398149D01*
X-48243475Y47586559D01*
X-48395898Y47752135D01*
X-48573499Y47890368D01*
X-48573500Y47890369D01*
X-48607009Y47908503D01*
X-48657399Y47958517D01*
X-48672750Y48027834D01*
X-48648188Y48094447D01*
X-48607010Y48130128D01*
X-48573224Y48148411D01*
X-48395560Y48286694D01*
X-48243078Y48452332D01*
X-48128537Y48627652D01*
X-48074535Y48673738D01*
X-48039507Y48683656D01*
X-47977148Y48691866D01*
X-47959342Y48694209D01*
X-47953803Y48694939D01*
X-47939949Y48696762D01*
X-47791924Y48758076D01*
X-47696728Y48831123D01*
X-47696728Y48831124D01*
X-47688509Y48837430D01*
X-47688500Y48837438D01*
X-47664813Y48855613D01*
X-47642835Y48884256D01*
X-47637416Y48890437D01*
X-44119640Y52408213D01*
X-44113459Y52413634D01*
X-44084813Y52435613D01*
X-44065565Y52460699D01*
X-44065559Y52460705D01*
X-44060324Y52467528D01*
X-44060322Y52467529D01*
X-43987276Y52562724D01*
X-43925962Y52710749D01*
X-43909932Y52832506D01*
X-43905049Y52869599D01*
X-43905049Y52869602D01*
X-43909760Y52905389D01*
X-43910300Y52913620D01*
X-43910300Y55526022D01*
X-43890298Y55594143D01*
X-43873395Y55615117D01*
X-43831299Y55657213D01*
X-43768987Y55691239D01*
X-43698172Y55686174D01*
X-43641336Y55643627D01*
X-43620757Y55590650D01*
X-43618468Y55591105D01*
X-43617259Y55585028D01*
X-43562450Y55404349D01*
X-43511191Y55308451D01*
X-43473447Y55237836D01*
X-43353668Y55091886D01*
X-43207718Y54972107D01*
X-43167855Y54950800D01*
X-43127289Y54916384D01*
X-43106613Y54889439D01*
X-43077976Y54867465D01*
X-43071783Y54862034D01*
X-42318995Y54109246D01*
X-42313563Y54103052D01*
X-42291587Y54074413D01*
X-42259675Y54049926D01*
X-42259672Y54049923D01*
X-42164476Y53976876D01*
X-42103162Y53951480D01*
X-42016450Y53915562D01*
X-41897485Y53899900D01*
X-41897478Y53899900D01*
X-41857600Y53894650D01*
X-41836527Y53897425D01*
X-41766383Y53886487D01*
X-41716869Y53844774D01*
X-41612949Y53696362D01*
X-41612946Y53696358D01*
X-41457243Y53540655D01*
X-41457239Y53540652D01*
X-41457238Y53540651D01*
X-41305342Y53434292D01*
X-41276855Y53414345D01*
X-41276854Y53414344D01*
X-41197831Y53377496D01*
X-41161986Y53352396D01*
X-40724121Y52914531D01*
X-40777847Y52906433D01*
X-40898709Y52848229D01*
X-40997044Y52756987D01*
X-41064117Y52640813D01*
X-41083575Y52555565D01*
X-41696399Y53168389D01*
X-41738822Y53107802D01*
X-41831848Y52908308D01*
X-41831850Y52908304D01*
X-41888820Y52695688D01*
X-41908005Y52476400D01*
X-41888820Y52257113D01*
X-41831850Y52044497D01*
X-41831848Y52044493D01*
X-41738822Y51844998D01*
X-41696399Y51784414D01*
X-41085380Y52395433D01*
X-41083943Y52376260D01*
X-41034934Y52251387D01*
X-40951295Y52146508D01*
X-40840459Y52070941D01*
X-40726580Y52035813D01*
X-41337188Y51425204D01*
X-41337188Y51425203D01*
X-41276600Y51382778D01*
X-41077108Y51289753D01*
X-41077104Y51289751D01*
X-40864488Y51232781D01*
X-40645200Y51213596D01*
X-40425913Y51232781D01*
X-40213297Y51289751D01*
X-40213288Y51289755D01*
X-40197445Y51297142D01*
X-40127253Y51307805D01*
X-40062440Y51278827D01*
X-40023582Y51219408D01*
X-40023017Y51148414D01*
X-40055097Y51093854D01*
X-43692237Y47456714D01*
X-43754549Y47422688D01*
X-43793681Y47420416D01*
X-43918797Y47432738D01*
X-43918803Y47432738D01*
X-44106692Y47414234D01*
X-44106700Y47414232D01*
X-44287379Y47359423D01*
X-44453892Y47270420D01*
X-44599841Y47150641D01*
X-44719620Y47004692D01*
X-44808623Y46838179D01*
X-44863432Y46657500D01*
X-44863434Y46657492D01*
X-44881938Y46469604D01*
X-44881938Y46469597D01*
X-44863434Y46281709D01*
X-44863432Y46281701D01*
X-44808623Y46101022D01*
X-44749848Y45991062D01*
X-44719620Y45934509D01*
X-44599841Y45788559D01*
X-44453891Y45668780D01*
X-44287377Y45579777D01*
X-44106699Y45524968D01*
X-44106695Y45524968D01*
X-44106692Y45524967D01*
X-43918803Y45506462D01*
X-43918800Y45506462D01*
X-43918797Y45506462D01*
X-43730909Y45524967D01*
X-43730908Y45524968D01*
X-43730901Y45524968D01*
X-43550223Y45579777D01*
X-43383709Y45668780D01*
X-43237759Y45788559D01*
X-43117980Y45934509D01*
X-43028977Y46101023D01*
X-42974168Y46281701D01*
X-42959798Y46427608D01*
X-42933216Y46493440D01*
X-42923509Y46504344D01*
X-41620160Y47807693D01*
X-41557850Y47841717D01*
X-41487035Y47836652D01*
X-41430199Y47794105D01*
X-41405455Y47728482D01*
X-41398346Y47638152D01*
X-41344588Y47414232D01*
X-41337404Y47384311D01*
X-41237503Y47143129D01*
X-41113156Y46940212D01*
X-41101102Y46920543D01*
X-41101101Y46920541D01*
X-40931564Y46722037D01*
X-40733060Y46552500D01*
X-40733056Y46552497D01*
X-40510471Y46416097D01*
X-40269289Y46316196D01*
X-40015449Y46255254D01*
X-39755200Y46234772D01*
X-39494951Y46255254D01*
X-39241111Y46316196D01*
X-38999929Y46416097D01*
X-38777344Y46552497D01*
X-38578837Y46722037D01*
X-38409297Y46920544D01*
X-38272897Y47143129D01*
X-38172996Y47384311D01*
X-38112054Y47638151D01*
X-38091572Y47898400D01*
X-38112054Y48158649D01*
X-38172996Y48412489D01*
X-38272897Y48653671D01*
X-38409297Y48876256D01*
X-38409300Y48876260D01*
X-38578837Y49074764D01*
X-38777341Y49244301D01*
X-38777343Y49244302D01*
X-38777344Y49244303D01*
X-38999929Y49380703D01*
X-39241111Y49480604D01*
X-39241113Y49480605D01*
X-39241114Y49480605D01*
X-39380114Y49513976D01*
X-39494951Y49541546D01*
X-39585283Y49548656D01*
X-39651624Y49573941D01*
X-39678011Y49609720D01*
X-38204462Y49609720D01*
X-38174438Y49336834D01*
X-38104996Y49071216D01*
X-38050476Y48942921D01*
X-37997623Y48818548D01*
X-37854605Y48584204D01*
X-37678991Y48373182D01*
X-37678989Y48373180D01*
X-37678987Y48373178D01*
X-37474534Y48189986D01*
X-37474528Y48189981D01*
X-37474523Y48189977D01*
X-37245559Y48038496D01*
X-36996979Y47921967D01*
X-36734081Y47842873D01*
X-36734078Y47842873D01*
X-36734076Y47842872D01*
X-36462473Y47802900D01*
X-36462469Y47802900D01*
X-36256651Y47802900D01*
X-36224233Y47805273D01*
X-36051395Y47817923D01*
X-35783425Y47877616D01*
X-35527002Y47975689D01*
X-35287591Y48110053D01*
X-35070296Y48277843D01*
X-34879746Y48475484D01*
X-34720004Y48698763D01*
X-34594473Y48942921D01*
X-34594473Y48942922D01*
X-34594471Y48942925D01*
X-34522365Y49154287D01*
X-34505830Y49202754D01*
X-34455964Y49472726D01*
X-34445938Y49747080D01*
X-34469473Y49960978D01*
X-34475963Y50019967D01*
X-34503911Y50126868D01*
X-34545404Y50285582D01*
X-34548348Y50292509D01*
X-34599923Y50413876D01*
X-34652777Y50538252D01*
X-34795795Y50772596D01*
X-34971409Y50983618D01*
X-34971413Y50983621D01*
X-34971414Y50983623D01*
X-35175867Y51166815D01*
X-35175880Y51166825D01*
X-35404841Y51318304D01*
X-35448604Y51338819D01*
X-35653421Y51434833D01*
X-35838650Y51490560D01*
X-35916325Y51513929D01*
X-36187928Y51553900D01*
X-36187931Y51553900D01*
X-36393747Y51553900D01*
X-36393749Y51553900D01*
X-36599009Y51538877D01*
X-36866969Y51479186D01*
X-36866981Y51479182D01*
X-37123399Y51381111D01*
X-37362803Y51246751D01*
X-37362807Y51246749D01*
X-37580106Y51078956D01*
X-37580107Y51078955D01*
X-37770652Y50881319D01*
X-37930393Y50658042D01*
X-37930397Y50658036D01*
X-38055930Y50413876D01*
X-38144569Y50154052D01*
X-38144572Y50154039D01*
X-38194436Y49884083D01*
X-38194437Y49884072D01*
X-38204462Y49609720D01*
X-39678011Y49609720D01*
X-39693763Y49631079D01*
X-39698322Y49701929D01*
X-39664493Y49763360D01*
X-37319640Y52108213D01*
X-37313459Y52113634D01*
X-37284813Y52135613D01*
X-37265565Y52160699D01*
X-37265559Y52160705D01*
X-37260324Y52167528D01*
X-37260322Y52167529D01*
X-37187276Y52262724D01*
X-37125962Y52410749D01*
X-37119682Y52458451D01*
X-37110300Y52529715D01*
X-37110300Y52529721D01*
X-37105050Y52569600D01*
X-37109762Y52605391D01*
X-37110300Y52613615D01*
X-37110300Y54133990D01*
X-37109760Y54142222D01*
X-37106156Y54169600D01*
X-37105050Y54178000D01*
X-37110300Y54217878D01*
X-37110300Y54217885D01*
X-37125962Y54336850D01*
X-37187276Y54484875D01*
X-37189490Y54487760D01*
X-37237236Y54549984D01*
X-37245152Y54560300D01*
X-37257169Y54575962D01*
X-37261670Y54581829D01*
X-37261703Y54581869D01*
X-37271878Y54595129D01*
X-37284813Y54611987D01*
X-37313454Y54633965D01*
X-37319647Y54639396D01*
X-37646610Y54966359D01*
X-37680636Y55028671D01*
X-37679222Y55088066D01*
X-37678083Y55092319D01*
X-37678080Y55092324D01*
X-37621085Y55305029D01*
X-37601893Y55524400D01*
X-37621085Y55743771D01*
X-37678080Y55956476D01*
X-37771144Y56156053D01*
X-37897451Y56336438D01*
X-38012318Y56451305D01*
X-38046344Y56513617D01*
X-38041279Y56584432D01*
X-38012320Y56629494D01*
X-37897451Y56744362D01*
X-37771144Y56924746D01*
X-37678080Y57124324D01*
X-37621085Y57337029D01*
X-37601893Y57556400D01*
X-37621085Y57775771D01*
X-37636956Y57835002D01*
X-37635267Y57905977D01*
X-37604347Y57956706D01*
X-37219640Y58341413D01*
X-37213459Y58346834D01*
X-37184813Y58368813D01*
X-37165565Y58393899D01*
X-37165559Y58393905D01*
X-37160324Y58400728D01*
X-37160322Y58400729D01*
X-37087276Y58495924D01*
X-37025962Y58643949D01*
X-37022014Y58673937D01*
X-37010300Y58762915D01*
X-37010300Y58762921D01*
X-37005050Y58802800D01*
X-37009760Y58838581D01*
X-37010300Y58846812D01*
X-37010300Y60325589D01*
X-37009760Y60333821D01*
X-37005050Y60369600D01*
X-37005050Y60369601D01*
X-37010300Y60409479D01*
X-37010300Y60409480D01*
X-37010300Y60409485D01*
X-37014534Y60441644D01*
X-37003594Y60511790D01*
X-36956466Y60564888D01*
X-36888112Y60584078D01*
X-36853319Y60578747D01*
X-36734081Y60542873D01*
X-36734074Y60542872D01*
X-36462473Y60502900D01*
X-36462469Y60502900D01*
X-36256651Y60502900D01*
X-36224233Y60505273D01*
X-36051395Y60517923D01*
X-35783425Y60577616D01*
X-35527002Y60675689D01*
X-35287591Y60810053D01*
X-35070296Y60977843D01*
X-34879746Y61175484D01*
X-34720004Y61398763D01*
X-34594473Y61642921D01*
X-34594473Y61642922D01*
X-34594471Y61642925D01*
X-34527611Y61838909D01*
X-34505830Y61902754D01*
X-34469577Y62099026D01*
X-34455965Y62172718D01*
X-34455964Y62172729D01*
X-34453117Y62250644D01*
X-34445938Y62447080D01*
X-34461852Y62591712D01*
X-34475963Y62719967D01*
X-34503911Y62826868D01*
X-34545404Y62985582D01*
X-34548348Y62992509D01*
X-34599923Y63113876D01*
X-34652777Y63238252D01*
X-34795795Y63472596D01*
X-34971409Y63683618D01*
X-34971413Y63683621D01*
X-34971414Y63683623D01*
X-35175867Y63866815D01*
X-35175880Y63866825D01*
X-35404841Y64018304D01*
X-35653421Y64134833D01*
X-35812977Y64182836D01*
X-35916325Y64213929D01*
X-36187928Y64253900D01*
X-36187931Y64253900D01*
X-36393747Y64253900D01*
X-36393749Y64253900D01*
X-36599009Y64238877D01*
X-36866969Y64179186D01*
X-36866981Y64179182D01*
X-37123399Y64081111D01*
X-37362803Y63946751D01*
X-37362807Y63946749D01*
X-37580106Y63778956D01*
X-37580107Y63778955D01*
X-37770652Y63581319D01*
X-37930393Y63358042D01*
X-37930397Y63358036D01*
X-38055930Y63113876D01*
X-38144569Y62854052D01*
X-38144572Y62854039D01*
X-38194436Y62584083D01*
X-38194437Y62584072D01*
X-38204462Y62309720D01*
X-38174438Y62036834D01*
X-38104996Y61771216D01*
X-38033672Y61603379D01*
X-38025439Y61532862D01*
X-38056637Y61469087D01*
X-38117362Y61432304D01*
X-38149636Y61428100D01*
X-39399379Y61428100D01*
X-39467500Y61448102D01*
X-39513993Y61501758D01*
X-39524265Y61563410D01*
X-39524462Y61563410D01*
X-39524462Y61564591D01*
X-39524772Y61566451D01*
X-39524462Y61569599D01*
X-39524462Y61569604D01*
X-39542967Y61757492D01*
X-39542968Y61757495D01*
X-39542968Y61757499D01*
X-39597777Y61938177D01*
X-39686780Y62104691D01*
X-39806559Y62250641D01*
X-39831822Y62271374D01*
X-39871789Y62330050D01*
X-39873690Y62401021D01*
X-39836919Y62461753D01*
X-39773151Y62492965D01*
X-39760111Y62494074D01*
X-39760135Y62494384D01*
X-39755203Y62494773D01*
X-39755200Y62494772D01*
X-39494951Y62515254D01*
X-39241111Y62576196D01*
X-38999929Y62676097D01*
X-38777344Y62812497D01*
X-38578837Y62982037D01*
X-38409297Y63180544D01*
X-38272897Y63403129D01*
X-38172996Y63644311D01*
X-38112054Y63898151D01*
X-38091572Y64158400D01*
X-38112054Y64418649D01*
X-38172996Y64672489D01*
X-38272897Y64913671D01*
X-38409297Y65136256D01*
X-38409300Y65136260D01*
X-38578837Y65334764D01*
X-38777341Y65504301D01*
X-38777343Y65504302D01*
X-38777344Y65504303D01*
X-38999929Y65640703D01*
X-39241111Y65740604D01*
X-39241113Y65740605D01*
X-39241114Y65740605D01*
X-39442544Y65788964D01*
X-39494951Y65801546D01*
X-39755200Y65822028D01*
X-40015449Y65801546D01*
X-40269287Y65740605D01*
X-40510470Y65640704D01*
X-40733058Y65504302D01*
X-40733060Y65504301D01*
X-40931564Y65334764D01*
X-41101101Y65136260D01*
X-41101102Y65136258D01*
X-41237504Y64913670D01*
X-41337405Y64672487D01*
X-41381310Y64489610D01*
X-41398346Y64418649D01*
X-41418828Y64158400D01*
X-41398346Y63898151D01*
X-41394182Y63880807D01*
X-41348933Y63692330D01*
X-41337404Y63644311D01*
X-41237503Y63403129D01*
X-41118038Y63208179D01*
X-41101102Y63180543D01*
X-41101101Y63180541D01*
X-40931564Y62982037D01*
X-40733060Y62812500D01*
X-40733056Y62812497D01*
X-40625681Y62746698D01*
X-40578050Y62694050D01*
X-40566443Y62624009D01*
X-40594546Y62558811D01*
X-40653436Y62519157D01*
X-40669505Y62515855D01*
X-40669422Y62515441D01*
X-40675500Y62514232D01*
X-40856179Y62459423D01*
X-41022692Y62370420D01*
X-41168639Y62250644D01*
X-41168639Y62250643D01*
X-41168641Y62250641D01*
X-41190370Y62224166D01*
X-41249046Y62184197D01*
X-41287767Y62178100D01*
X-41714561Y62178100D01*
X-41782682Y62198102D01*
X-41803656Y62215005D01*
X-46773395Y67184744D01*
X-46807421Y67247056D01*
X-46810300Y67273839D01*
X-46810300Y70793361D01*
X-46790298Y70861482D01*
X-46773400Y70882452D01*
X-46363530Y71292323D01*
X-46301219Y71326346D01*
X-46262085Y71328619D01*
X-46228002Y71325262D01*
X-46228000Y71325262D01*
X-46227997Y71325262D01*
X-46040109Y71343767D01*
X-46040108Y71343768D01*
X-46040101Y71343768D01*
X-45859423Y71398577D01*
X-45692909Y71487580D01*
X-45546959Y71607359D01*
X-45532264Y71625265D01*
X-35129300Y71625265D01*
X-35108112Y71498289D01*
X-35088372Y71379991D01*
X-35088370Y71379982D01*
X-35007630Y71144793D01*
X-35007629Y71144791D01*
X-34889275Y70926092D01*
X-34889274Y70926091D01*
X-34736533Y70729850D01*
X-34553586Y70561436D01*
X-34345407Y70425427D01*
X-34345408Y70425427D01*
X-34199389Y70361378D01*
X-34117681Y70325537D01*
X-34117680Y70325537D01*
X-34117678Y70325536D01*
X-33876629Y70264494D01*
X-33876621Y70264492D01*
X-33711354Y70250798D01*
X-33690869Y70249100D01*
X-33690867Y70249100D01*
X-33566731Y70249100D01*
X-33547317Y70250709D01*
X-33380979Y70264492D01*
X-33139919Y70325537D01*
X-32912193Y70425427D01*
X-32704015Y70561436D01*
X-32521068Y70729850D01*
X-32521067Y70729852D01*
X-32521062Y70729856D01*
X-32368326Y70926091D01*
X-32249972Y71144790D01*
X-32169229Y71379986D01*
X-32128300Y71625265D01*
X-32128300Y71873935D01*
X-32169229Y72119214D01*
X-32222573Y72274600D01*
X-32249971Y72354408D01*
X-32249972Y72354410D01*
X-32368326Y72573109D01*
X-32368327Y72573110D01*
X-32416039Y72634410D01*
X-32521062Y72769344D01*
X-32521064Y72769346D01*
X-32521068Y72769351D01*
X-32704015Y72937765D01*
X-32912194Y73073774D01*
X-32912193Y73073774D01*
X-33139916Y73173662D01*
X-33139923Y73173665D01*
X-33380972Y73234707D01*
X-33380977Y73234708D01*
X-33380979Y73234708D01*
X-33514170Y73245745D01*
X-33566731Y73250100D01*
X-33566733Y73250100D01*
X-33690867Y73250100D01*
X-33690869Y73250100D01*
X-33752093Y73245027D01*
X-33876621Y73234708D01*
X-33876623Y73234708D01*
X-33876629Y73234707D01*
X-34117678Y73173665D01*
X-34117685Y73173662D01*
X-34345407Y73073774D01*
X-34553586Y72937765D01*
X-34736533Y72769351D01*
X-34889274Y72573110D01*
X-34889275Y72573109D01*
X-35007629Y72354410D01*
X-35007630Y72354408D01*
X-35088370Y72119219D01*
X-35088372Y72119210D01*
X-35094086Y72084968D01*
X-35129300Y71873935D01*
X-35129300Y71625265D01*
X-45532264Y71625265D01*
X-45427180Y71753309D01*
X-45338177Y71919823D01*
X-45300945Y72042560D01*
X-45262030Y72101940D01*
X-45197188Y72130856D01*
X-45143799Y72126558D01*
X-45006699Y72084968D01*
X-45006694Y72084968D01*
X-45006692Y72084967D01*
X-44818803Y72066462D01*
X-44818800Y72066462D01*
X-44818797Y72066462D01*
X-44630909Y72084967D01*
X-44630908Y72084968D01*
X-44630901Y72084968D01*
X-44450223Y72139777D01*
X-44283709Y72228780D01*
X-44137759Y72348559D01*
X-44017980Y72494509D01*
X-43928977Y72661023D01*
X-43874168Y72841701D01*
X-43874167Y72841709D01*
X-43855662Y73029597D01*
X-43855662Y73029604D01*
X-43874167Y73217492D01*
X-43874168Y73217495D01*
X-43874168Y73217499D01*
X-43928977Y73398177D01*
X-44017980Y73564691D01*
X-44137759Y73710641D01*
X-44283709Y73830420D01*
X-44450222Y73919423D01*
X-44630901Y73974232D01*
X-44630909Y73974234D01*
X-44818797Y73992738D01*
X-44818799Y73992738D01*
X-44818800Y73992738D01*
X-44852889Y73989381D01*
X-44922642Y74002612D01*
X-44954331Y74025680D01*
X-44980535Y74051884D01*
X-45147410Y74218759D01*
X-45152837Y74224947D01*
X-45171411Y74249154D01*
X-45197010Y74315372D01*
X-45182745Y74384920D01*
X-45133144Y74435716D01*
X-45071155Y74451855D01*
X-32197915Y74421638D01*
G37*
%TD.AperFunction*%
%TA.AperFunction,Conductor*%
G36*
X-62571753Y74492932D02*
G01*
X-62503683Y74472771D01*
X-62457316Y74419006D01*
X-62447377Y74348709D01*
X-62477021Y74284197D01*
X-62495342Y74266975D01*
X-62512788Y74253587D01*
X-62534765Y74224947D01*
X-62540203Y74218747D01*
X-63387948Y73371002D01*
X-63394149Y73365564D01*
X-63422789Y73343586D01*
X-63448340Y73310289D01*
X-63448360Y73310261D01*
X-63520327Y73216473D01*
X-63548134Y73149337D01*
X-63579432Y73073774D01*
X-63579433Y73073772D01*
X-63581639Y73068448D01*
X-63583777Y73060469D01*
X-63586143Y73061104D01*
X-63609842Y73007555D01*
X-63626092Y72991546D01*
X-63669840Y72955642D01*
X-63789620Y72809692D01*
X-63878623Y72643179D01*
X-63933432Y72462500D01*
X-63933434Y72462492D01*
X-63951938Y72274604D01*
X-63951938Y72274597D01*
X-63933434Y72086709D01*
X-63933432Y72086701D01*
X-63878623Y71906022D01*
X-63796996Y71753309D01*
X-63789620Y71739509D01*
X-63669841Y71593559D01*
X-63523891Y71473780D01*
X-63357377Y71384777D01*
X-63176699Y71329968D01*
X-63176695Y71329968D01*
X-63176692Y71329967D01*
X-62988803Y71311462D01*
X-62988800Y71311462D01*
X-62988797Y71311462D01*
X-62800909Y71329967D01*
X-62800908Y71329968D01*
X-62800901Y71329968D01*
X-62620223Y71384777D01*
X-62453709Y71473780D01*
X-62307759Y71593559D01*
X-62187980Y71739509D01*
X-62098977Y71906023D01*
X-62044168Y72086701D01*
X-62042809Y72100501D01*
X-62025662Y72274597D01*
X-62025662Y72274604D01*
X-62044167Y72462492D01*
X-62044168Y72462495D01*
X-62044168Y72462499D01*
X-62098977Y72643177D01*
X-62157927Y72753465D01*
X-62172398Y72822968D01*
X-62146995Y72889264D01*
X-62135908Y72901945D01*
X-61863655Y73174196D01*
X-61801343Y73208221D01*
X-61774560Y73211100D01*
X-46966725Y73211100D01*
X-46898604Y73191098D01*
X-46852111Y73137442D01*
X-46842007Y73067168D01*
X-46871501Y73002588D01*
X-46886792Y72987701D01*
X-46909040Y72969444D01*
X-47028820Y72823492D01*
X-47117823Y72656979D01*
X-47172632Y72476300D01*
X-47172634Y72476292D01*
X-47185322Y72347457D01*
X-47191138Y72288400D01*
X-47187781Y72254314D01*
X-47201012Y72184561D01*
X-47224080Y72152871D01*
X-47817948Y71559002D01*
X-47824149Y71553564D01*
X-47852789Y71531586D01*
X-47878340Y71498289D01*
X-47878360Y71498261D01*
X-47950327Y71404473D01*
X-47988851Y71311462D01*
X-48011639Y71256449D01*
X-48018268Y71206092D01*
X-48027300Y71137485D01*
X-48027300Y71137480D01*
X-48027300Y71137479D01*
X-48032550Y71097601D01*
X-48032550Y71097600D01*
X-48027840Y71061821D01*
X-48027300Y71053589D01*
X-48027300Y68476009D01*
X-48047302Y68407888D01*
X-48100958Y68361395D01*
X-48171232Y68351291D01*
X-48213295Y68368709D01*
X-48214682Y68366168D01*
X-48222598Y68370490D01*
X-48359596Y68421589D01*
X-48359604Y68421591D01*
X-48420151Y68428100D01*
X-48420162Y68428100D01*
X-50217438Y68428100D01*
X-50217450Y68428100D01*
X-50277997Y68421591D01*
X-50278005Y68421589D01*
X-50415003Y68370490D01*
X-50415008Y68370488D01*
X-50532062Y68282862D01*
X-50619688Y68165808D01*
X-50619690Y68165803D01*
X-50670789Y68028805D01*
X-50670791Y68028797D01*
X-50677300Y67968250D01*
X-50677300Y66170951D01*
X-50670791Y66110404D01*
X-50670789Y66110396D01*
X-50619690Y65973398D01*
X-50619688Y65973393D01*
X-50532062Y65856339D01*
X-50415009Y65768714D01*
X-50415008Y65768714D01*
X-50415004Y65768711D01*
X-50299990Y65725813D01*
X-50243158Y65683268D01*
X-50218347Y65616748D01*
X-50233438Y65547374D01*
X-50251325Y65522421D01*
X-50394520Y65366871D01*
X-50394521Y65366871D01*
X-50494338Y65214089D01*
X-50548342Y65168001D01*
X-50618690Y65158426D01*
X-50679754Y65185606D01*
X-50783709Y65270920D01*
X-50883380Y65324195D01*
X-50950222Y65359923D01*
X-51130901Y65414732D01*
X-51130909Y65414734D01*
X-51318797Y65433238D01*
X-51318799Y65433238D01*
X-51318800Y65433238D01*
X-51352889Y65429881D01*
X-51422642Y65443112D01*
X-51454331Y65466180D01*
X-51777115Y65788964D01*
X-51811141Y65851276D01*
X-51813413Y65890410D01*
X-51805662Y65969099D01*
X-51805662Y65969104D01*
X-51824167Y66156992D01*
X-51824168Y66156995D01*
X-51824168Y66156999D01*
X-51878977Y66337677D01*
X-51967980Y66504191D01*
X-52087759Y66650141D01*
X-52233709Y66769920D01*
X-52296696Y66803587D01*
X-52400222Y66858923D01*
X-52580901Y66913732D01*
X-52580909Y66913734D01*
X-52768797Y66932238D01*
X-52768803Y66932238D01*
X-52956692Y66913734D01*
X-52956700Y66913732D01*
X-53137379Y66858923D01*
X-53303892Y66769920D01*
X-53449841Y66650141D01*
X-53569620Y66504192D01*
X-53658623Y66337679D01*
X-53713432Y66157000D01*
X-53713434Y66156992D01*
X-53731938Y65969104D01*
X-53731938Y65969097D01*
X-53713434Y65781209D01*
X-53713432Y65781201D01*
X-53658623Y65600522D01*
X-53616877Y65522421D01*
X-53569620Y65434009D01*
X-53449841Y65288059D01*
X-53303891Y65168280D01*
X-53137377Y65079277D01*
X-52956699Y65024468D01*
X-52956695Y65024468D01*
X-52956692Y65024467D01*
X-52768803Y65005962D01*
X-52767401Y65005962D01*
X-52766694Y65005755D01*
X-52762640Y65005355D01*
X-52762716Y65004587D01*
X-52699280Y64985960D01*
X-52678306Y64969057D01*
X-52314880Y64605631D01*
X-52280854Y64543319D01*
X-52278582Y64504190D01*
X-52280016Y64489611D01*
X-52281938Y64470097D01*
X-52263434Y64282209D01*
X-52263432Y64282201D01*
X-52208623Y64101522D01*
X-52185022Y64057368D01*
X-52119620Y63935009D01*
X-51999841Y63789059D01*
X-51853891Y63669280D01*
X-51708880Y63591770D01*
X-51689327Y63581319D01*
X-51687377Y63580277D01*
X-51506699Y63525468D01*
X-51506695Y63525468D01*
X-51506692Y63525467D01*
X-51318803Y63506962D01*
X-51318800Y63506962D01*
X-51318797Y63506962D01*
X-51130909Y63525467D01*
X-51130908Y63525468D01*
X-51130901Y63525468D01*
X-50950223Y63580277D01*
X-50783709Y63669280D01*
X-50637759Y63789059D01*
X-50637759Y63789060D01*
X-50632974Y63792986D01*
X-50632017Y63791820D01*
X-50576283Y63822263D01*
X-50505466Y63817208D01*
X-50448624Y63774669D01*
X-50443999Y63768062D01*
X-50394521Y63692330D01*
X-50242038Y63526692D01*
X-50216689Y63506962D01*
X-50064376Y63388411D01*
X-50031120Y63370414D01*
X-49980729Y63320400D01*
X-49965377Y63251084D01*
X-49989938Y63184471D01*
X-50031120Y63148787D01*
X-50064374Y63130790D01*
X-50064376Y63130789D01*
X-50242038Y62992509D01*
X-50394521Y62826871D01*
X-50394525Y62826866D01*
X-50517659Y62638394D01*
X-50608097Y62432214D01*
X-50608098Y62432213D01*
X-50663363Y62213976D01*
X-50663364Y62213970D01*
X-50663364Y62213968D01*
X-50674618Y62078154D01*
X-50681956Y61989600D01*
X-50663364Y61765231D01*
X-50628474Y61627454D01*
X-50631142Y61556507D01*
X-50661522Y61507429D01*
X-50712511Y61456438D01*
X-50774822Y61422412D01*
X-50801608Y61419532D01*
X-57868080Y61419532D01*
X-57936201Y61439534D01*
X-57982694Y61493190D01*
X-57993474Y61533182D01*
X-57995868Y61557499D01*
X-58050677Y61738177D01*
X-58139680Y61904691D01*
X-58259459Y62050641D01*
X-58405409Y62170420D01*
X-58445504Y62191851D01*
X-58571922Y62259423D01*
X-58719530Y62304200D01*
X-58778911Y62343115D01*
X-58807826Y62407957D01*
X-58800449Y62464638D01*
X-58801974Y62465100D01*
X-58793521Y62492965D01*
X-58745368Y62651701D01*
X-58739839Y62707841D01*
X-58726862Y62839597D01*
X-58726862Y62839604D01*
X-58745367Y63027492D01*
X-58745368Y63027495D01*
X-58745368Y63027499D01*
X-58800177Y63208177D01*
X-58889180Y63374691D01*
X-59008959Y63520641D01*
X-59154909Y63640420D01*
X-59162194Y63644314D01*
X-59321422Y63729423D01*
X-59502101Y63784232D01*
X-59502109Y63784234D01*
X-59689997Y63802738D01*
X-59690003Y63802738D01*
X-59877892Y63784234D01*
X-59877900Y63784232D01*
X-60058579Y63729423D01*
X-60225092Y63640420D01*
X-60371041Y63520641D01*
X-60490820Y63374692D01*
X-60579823Y63208179D01*
X-60634632Y63027500D01*
X-60634634Y63027492D01*
X-60653138Y62839604D01*
X-60653138Y62839596D01*
X-60640071Y62706914D01*
X-60653300Y62637161D01*
X-60702140Y62585633D01*
X-60771086Y62568690D01*
X-60838246Y62591712D01*
X-60862863Y62614631D01*
X-60881353Y62637161D01*
X-60939359Y62707841D01*
X-61085309Y62827620D01*
X-61107715Y62839596D01*
X-61251822Y62916623D01*
X-61432501Y62971432D01*
X-61432509Y62971434D01*
X-61620397Y62989938D01*
X-61620403Y62989938D01*
X-61808292Y62971434D01*
X-61808300Y62971432D01*
X-61988979Y62916623D01*
X-62155492Y62827620D01*
X-62301439Y62707844D01*
X-62301439Y62707843D01*
X-62301441Y62707841D01*
X-62323170Y62681366D01*
X-62381846Y62641397D01*
X-62420567Y62635300D01*
X-63896473Y62635300D01*
X-63964594Y62655302D01*
X-64011087Y62708958D01*
X-64021191Y62779232D01*
X-63991697Y62843812D01*
X-63985568Y62850395D01*
X-61511768Y65324195D01*
X-61449456Y65358221D01*
X-61422673Y65361100D01*
X-57833992Y65361100D01*
X-57765871Y65341098D01*
X-57744897Y65324195D01*
X-57434880Y65014178D01*
X-57400854Y64951866D01*
X-57398581Y64912736D01*
X-57401938Y64878644D01*
X-57383434Y64690756D01*
X-57383432Y64690748D01*
X-57328623Y64510069D01*
X-57279758Y64418649D01*
X-57239620Y64343556D01*
X-57119841Y64197606D01*
X-56973891Y64077827D01*
X-56807377Y63988824D01*
X-56626699Y63934015D01*
X-56626695Y63934015D01*
X-56626692Y63934014D01*
X-56438803Y63915509D01*
X-56438800Y63915509D01*
X-56438797Y63915509D01*
X-56250909Y63934014D01*
X-56250908Y63934015D01*
X-56250901Y63934015D01*
X-56070223Y63988824D01*
X-55903709Y64077827D01*
X-55757881Y64197507D01*
X-55692534Y64225260D01*
X-55622556Y64213278D01*
X-55580549Y64180042D01*
X-55578173Y64177147D01*
X-55432223Y64057368D01*
X-55265709Y63968365D01*
X-55085031Y63913556D01*
X-55085027Y63913556D01*
X-55085024Y63913555D01*
X-54897135Y63895050D01*
X-54897132Y63895050D01*
X-54897129Y63895050D01*
X-54709241Y63913555D01*
X-54709240Y63913556D01*
X-54709233Y63913556D01*
X-54528555Y63968365D01*
X-54362041Y64057368D01*
X-54216091Y64177147D01*
X-54096312Y64323097D01*
X-54007309Y64489611D01*
X-53952500Y64670289D01*
X-53952499Y64670297D01*
X-53933994Y64858185D01*
X-53933994Y64858192D01*
X-53952499Y65046080D01*
X-53952500Y65046083D01*
X-53952500Y65046087D01*
X-54007309Y65226765D01*
X-54096312Y65393279D01*
X-54216091Y65539229D01*
X-54362041Y65659008D01*
X-54384082Y65670789D01*
X-54528554Y65748011D01*
X-54709233Y65802820D01*
X-54709241Y65802822D01*
X-54897129Y65821326D01*
X-54897131Y65821326D01*
X-54897132Y65821326D01*
X-54931221Y65817969D01*
X-55000974Y65831200D01*
X-55032663Y65854268D01*
X-55349357Y66170962D01*
X-55947154Y66768759D01*
X-55952581Y66774947D01*
X-55974557Y66803587D01*
X-56006470Y66828075D01*
X-56006472Y66828077D01*
X-56047895Y66859862D01*
X-56101662Y66901120D01*
X-56101670Y66901125D01*
X-56249693Y66962438D01*
X-56249701Y66962439D01*
X-56269088Y66964992D01*
X-56304342Y66969633D01*
X-56370503Y66978343D01*
X-56370524Y66978345D01*
X-56408542Y66983350D01*
X-56408545Y66983350D01*
X-56444325Y66978640D01*
X-56452556Y66978100D01*
X-62374788Y66978100D01*
X-62383019Y66978640D01*
X-62418799Y66983350D01*
X-62418803Y66983350D01*
X-62456527Y66978384D01*
X-62456546Y66978382D01*
X-62533749Y66968219D01*
X-62558257Y66964992D01*
X-62560810Y66964656D01*
X-62577650Y66962439D01*
X-62577653Y66962438D01*
X-62695233Y66913734D01*
X-62725673Y66901125D01*
X-62725678Y66901123D01*
X-62725679Y66901123D01*
X-62763763Y66871899D01*
X-62852789Y66803586D01*
X-62874768Y66774944D01*
X-62880206Y66768743D01*
X-64307006Y65341944D01*
X-64313208Y65336505D01*
X-64385541Y65281001D01*
X-64385554Y65280991D01*
X-64419702Y65254787D01*
X-64441679Y65226147D01*
X-64447117Y65219947D01*
X-65366094Y64300971D01*
X-65428406Y64266945D01*
X-65467536Y64264673D01*
X-65501623Y64268029D01*
X-65501626Y64268029D01*
X-65501628Y64268029D01*
X-65689515Y64249525D01*
X-65689523Y64249523D01*
X-65870202Y64194714D01*
X-66036715Y64105711D01*
X-66182664Y63985932D01*
X-66302443Y63839983D01*
X-66391446Y63673470D01*
X-66446255Y63492791D01*
X-66446257Y63492783D01*
X-66464761Y63304895D01*
X-66464761Y63304887D01*
X-66464451Y63301739D01*
X-66464761Y63300105D01*
X-66464761Y63298701D01*
X-66465027Y63298701D01*
X-66477680Y63231986D01*
X-66526520Y63180458D01*
X-66589844Y63163390D01*
X-67686245Y63163390D01*
X-67754366Y63183392D01*
X-67775340Y63200295D01*
X-68752321Y64177276D01*
X-68786347Y64239588D01*
X-68788619Y64278722D01*
X-68788275Y64282209D01*
X-68786963Y64295536D01*
X-68785262Y64312805D01*
X-68785262Y64312809D01*
X-68803767Y64500698D01*
X-68803768Y64500701D01*
X-68803768Y64500705D01*
X-68858577Y64681383D01*
X-68947580Y64847897D01*
X-69067359Y64993847D01*
X-69213309Y65113626D01*
X-69255651Y65136258D01*
X-69379822Y65202629D01*
X-69560501Y65257438D01*
X-69560509Y65257440D01*
X-69748397Y65275944D01*
X-69748403Y65275944D01*
X-69936292Y65257440D01*
X-69936300Y65257438D01*
X-70116979Y65202629D01*
X-70283492Y65113626D01*
X-70429441Y64993847D01*
X-70549220Y64847898D01*
X-70638223Y64681385D01*
X-70693032Y64500706D01*
X-70693034Y64500698D01*
X-70711538Y64312810D01*
X-70711538Y64312803D01*
X-70693034Y64124915D01*
X-70693032Y64124907D01*
X-70638223Y63944228D01*
X-70556759Y63791820D01*
X-70549220Y63777715D01*
X-70429441Y63631765D01*
X-70367969Y63581316D01*
X-70283494Y63511988D01*
X-70283493Y63511988D01*
X-70283491Y63511986D01*
X-70234382Y63485737D01*
X-70183735Y63435987D01*
X-70168025Y63366750D01*
X-70192240Y63300011D01*
X-70213844Y63277218D01*
X-70257401Y63241471D01*
X-70377180Y63095521D01*
X-70466183Y62929008D01*
X-70520992Y62748329D01*
X-70520994Y62748321D01*
X-70539498Y62560433D01*
X-70539498Y62560426D01*
X-70520994Y62372538D01*
X-70520992Y62372530D01*
X-70466183Y62191851D01*
X-70419595Y62104691D01*
X-70377180Y62025338D01*
X-70257401Y61879388D01*
X-70111451Y61759609D01*
X-69944937Y61670606D01*
X-69764259Y61615797D01*
X-69764255Y61615797D01*
X-69764252Y61615796D01*
X-69576363Y61597291D01*
X-69576360Y61597291D01*
X-69542778Y61600599D01*
X-69473026Y61587371D01*
X-69453726Y61575171D01*
X-69449490Y61571920D01*
X-69448076Y61570835D01*
X-69446465Y61569599D01*
X-69444806Y61568326D01*
X-69444803Y61568323D01*
X-69375413Y61515079D01*
X-69349606Y61495276D01*
X-69201581Y61433962D01*
X-69082616Y61418300D01*
X-69082609Y61418300D01*
X-69042731Y61413050D01*
X-69042731Y61413051D01*
X-69042730Y61413050D01*
X-69006950Y61417760D01*
X-68998719Y61418300D01*
X-62420567Y61418300D01*
X-62352446Y61398298D01*
X-62323170Y61372236D01*
X-62301441Y61345759D01*
X-62301439Y61345758D01*
X-62301439Y61345757D01*
X-62216820Y61276312D01*
X-62155491Y61225980D01*
X-61988977Y61136977D01*
X-61808299Y61082168D01*
X-61808295Y61082168D01*
X-61808292Y61082167D01*
X-61620403Y61063662D01*
X-61620400Y61063662D01*
X-61620397Y61063662D01*
X-61432509Y61082167D01*
X-61432508Y61082168D01*
X-61432501Y61082168D01*
X-61251823Y61136977D01*
X-61085309Y61225980D01*
X-60939359Y61345759D01*
X-60819580Y61491709D01*
X-60730577Y61658223D01*
X-60675768Y61838901D01*
X-60671780Y61879389D01*
X-60657262Y62026797D01*
X-60657262Y62026804D01*
X-60670330Y62159486D01*
X-60657101Y62229239D01*
X-60608261Y62280767D01*
X-60539316Y62297711D01*
X-60472155Y62274689D01*
X-60447538Y62251770D01*
X-60371041Y62158559D01*
X-60344566Y62136831D01*
X-60304597Y62078154D01*
X-60298500Y62039433D01*
X-60298500Y54599261D01*
X-60299040Y54591030D01*
X-60303750Y54555251D01*
X-60303750Y54555248D01*
X-60302550Y54546129D01*
X-60298500Y54515370D01*
X-60298500Y54515364D01*
X-60294865Y54487757D01*
X-60287343Y54430618D01*
X-60282838Y54396398D01*
X-60264470Y54352052D01*
X-60255486Y54291486D01*
X-60265968Y54185048D01*
X-60267489Y54169600D01*
X-60265631Y54150738D01*
X-60264132Y54135514D01*
X-60277363Y54065761D01*
X-60300431Y54034071D01*
X-62578348Y51756153D01*
X-62584549Y51750715D01*
X-62613188Y51728738D01*
X-62626645Y51711201D01*
X-62667206Y51676789D01*
X-62714290Y51651622D01*
X-62860241Y51531841D01*
X-62980019Y51385894D01*
X-62986641Y51373503D01*
X-63036394Y51322855D01*
X-63097763Y51306900D01*
X-77209588Y51306900D01*
X-77217819Y51307440D01*
X-77253599Y51312150D01*
X-77253602Y51312150D01*
X-77288703Y51307529D01*
X-77288707Y51307529D01*
X-77293480Y51306900D01*
X-77293485Y51306900D01*
X-77385766Y51294751D01*
X-77412450Y51291239D01*
X-77560475Y51229925D01*
X-77560478Y51229923D01*
X-77654261Y51157960D01*
X-77654289Y51157940D01*
X-77687588Y51132388D01*
X-77709565Y51103747D01*
X-77715003Y51097547D01*
X-82094558Y46717993D01*
X-82156870Y46683967D01*
X-82224564Y46687915D01*
X-82244165Y46694644D01*
X-82244170Y46694645D01*
X-82321771Y46707594D01*
X-82466231Y46731700D01*
X-82691369Y46731700D01*
X-82818393Y46710504D01*
X-82913432Y46694645D01*
X-82913441Y46694643D01*
X-82933041Y46687914D01*
X-83003965Y46684715D01*
X-83063044Y46717993D01*
X-86472815Y50127764D01*
X-89931810Y53586759D01*
X-89937237Y53592947D01*
X-89959213Y53621587D01*
X-89991126Y53646075D01*
X-89991128Y53646077D01*
X-90035424Y53680067D01*
X-90086318Y53719120D01*
X-90086326Y53719125D01*
X-90234349Y53780438D01*
X-90253744Y53782992D01*
X-90288998Y53787633D01*
X-90355159Y53796343D01*
X-90355180Y53796345D01*
X-90393198Y53801350D01*
X-90393201Y53801350D01*
X-90428981Y53796640D01*
X-90437212Y53796100D01*
X-90995431Y53796100D01*
X-91063552Y53816102D01*
X-91092829Y53842165D01*
X-91114557Y53868641D01*
X-91114560Y53868644D01*
X-91260507Y53988420D01*
X-91427020Y54077423D01*
X-91607699Y54132232D01*
X-91607707Y54132234D01*
X-91795595Y54150738D01*
X-91795601Y54150738D01*
X-91983490Y54132234D01*
X-91983498Y54132232D01*
X-92164177Y54077423D01*
X-92330690Y53988420D01*
X-92476639Y53868641D01*
X-92596418Y53722692D01*
X-92685421Y53556179D01*
X-92740230Y53375500D01*
X-92740232Y53375492D01*
X-92754336Y53232282D01*
X-92780918Y53166450D01*
X-92838873Y53125440D01*
X-92867378Y53119239D01*
X-92897892Y53116234D01*
X-92897900Y53116232D01*
X-93078579Y53061423D01*
X-93245092Y52972420D01*
X-93391039Y52852644D01*
X-93391039Y52852643D01*
X-93391041Y52852641D01*
X-93412770Y52826166D01*
X-93471446Y52786197D01*
X-93510167Y52780100D01*
X-93529588Y52780100D01*
X-93537819Y52780640D01*
X-93573599Y52785350D01*
X-93573603Y52785350D01*
X-93611327Y52780384D01*
X-93611346Y52780382D01*
X-93688549Y52770219D01*
X-93713057Y52766992D01*
X-93715610Y52766656D01*
X-93732450Y52764439D01*
X-93732453Y52764438D01*
X-93880475Y52703125D01*
X-93880483Y52703120D01*
X-93957118Y52644315D01*
X-93975671Y52630078D01*
X-93975675Y52630075D01*
X-93977972Y52628312D01*
X-93977979Y52628308D01*
X-94007589Y52605587D01*
X-94029565Y52576947D01*
X-94035003Y52570747D01*
X-94250871Y52354880D01*
X-94313183Y52320854D01*
X-94352313Y52318582D01*
X-94386400Y52321938D01*
X-94386403Y52321938D01*
X-94386405Y52321938D01*
X-94574292Y52303434D01*
X-94574300Y52303432D01*
X-94754979Y52248623D01*
X-94754984Y52248621D01*
X-94911537Y52164942D01*
X-94981043Y52150470D01*
X-95047339Y52175874D01*
X-95089376Y52233088D01*
X-95096929Y52275274D01*
X-95127154Y57150000D01*
X-68673156Y57150000D01*
X-68654798Y56928450D01*
X-68654563Y56925625D01*
X-68599298Y56707388D01*
X-68599297Y56707387D01*
X-68599296Y56707384D01*
X-68508860Y56501209D01*
X-68508859Y56501207D01*
X-68385725Y56312735D01*
X-68385721Y56312730D01*
X-68233238Y56147092D01*
X-68213768Y56131938D01*
X-68055576Y56008811D01*
X-68021795Y55990530D01*
X-67971404Y55940518D01*
X-67956051Y55871201D01*
X-67980611Y55804588D01*
X-68021791Y55768904D01*
X-68055296Y55750772D01*
X-68055302Y55750768D01*
X-68232903Y55612535D01*
X-68385326Y55446959D01*
X-68508420Y55258549D01*
X-68598821Y55052457D01*
X-68598824Y55052450D01*
X-68646545Y54864001D01*
X-68646544Y54864000D01*
X-67741116Y54864000D01*
X-67769493Y54819844D01*
X-67810000Y54681889D01*
X-67810000Y54538111D01*
X-67769493Y54400156D01*
X-67741116Y54356000D01*
X-68646545Y54356000D01*
X-68598824Y54167551D01*
X-68598821Y54167544D01*
X-68508420Y53961452D01*
X-68385326Y53773042D01*
X-68232903Y53607466D01*
X-68055302Y53469233D01*
X-68055301Y53469232D01*
X-67857372Y53362118D01*
X-67857370Y53362117D01*
X-67644517Y53289045D01*
X-67644508Y53289043D01*
X-67564000Y53275609D01*
X-67564000Y54176326D01*
X-67452315Y54125320D01*
X-67345763Y54110000D01*
X-67274237Y54110000D01*
X-67167685Y54125320D01*
X-67056000Y54176326D01*
X-67056000Y53275610D01*
X-66975493Y53289043D01*
X-66975484Y53289045D01*
X-66762631Y53362117D01*
X-66762629Y53362118D01*
X-66564700Y53469232D01*
X-66564699Y53469233D01*
X-66387098Y53607466D01*
X-66234675Y53773042D01*
X-66111581Y53961452D01*
X-66021180Y54167544D01*
X-66021177Y54167551D01*
X-65973456Y54356000D01*
X-66878884Y54356000D01*
X-66850507Y54400156D01*
X-66810000Y54538111D01*
X-66810000Y54681889D01*
X-66850507Y54819844D01*
X-66878884Y54864000D01*
X-65973456Y54864000D01*
X-65973456Y54864001D01*
X-66021177Y55052450D01*
X-66021180Y55052457D01*
X-66111581Y55258549D01*
X-66234675Y55446959D01*
X-66387098Y55612535D01*
X-66564699Y55750768D01*
X-66564700Y55750769D01*
X-66598209Y55768903D01*
X-66648599Y55818917D01*
X-66663950Y55888234D01*
X-66639388Y55954847D01*
X-66598210Y55990528D01*
X-66564424Y56008811D01*
X-66386760Y56147094D01*
X-66234278Y56312732D01*
X-66111140Y56501209D01*
X-66020704Y56707384D01*
X-65965436Y56925632D01*
X-65946844Y57150000D01*
X-65965436Y57374368D01*
X-65967003Y57380557D01*
X-66020703Y57592613D01*
X-66020704Y57592614D01*
X-66020704Y57592616D01*
X-66111140Y57798791D01*
X-66134797Y57835001D01*
X-66234276Y57987266D01*
X-66234281Y57987271D01*
X-66377476Y58142821D01*
X-66408897Y58206486D01*
X-66400910Y58277032D01*
X-66356052Y58332061D01*
X-66328817Y58346211D01*
X-66213796Y58389111D01*
X-66096739Y58476739D01*
X-66009111Y58593796D01*
X-65958011Y58730799D01*
X-65954558Y58762911D01*
X-65951501Y58791351D01*
X-65951500Y58791368D01*
X-65951500Y60588633D01*
X-65951501Y60588650D01*
X-65958010Y60649197D01*
X-65958012Y60649205D01*
X-66009111Y60786203D01*
X-66009113Y60786208D01*
X-66096739Y60903262D01*
X-66213793Y60990888D01*
X-66213798Y60990890D01*
X-66350796Y61041989D01*
X-66350804Y61041991D01*
X-66411351Y61048500D01*
X-66411362Y61048500D01*
X-68208638Y61048500D01*
X-68208650Y61048500D01*
X-68269197Y61041991D01*
X-68269205Y61041989D01*
X-68406203Y60990890D01*
X-68406208Y60990888D01*
X-68523262Y60903262D01*
X-68610888Y60786208D01*
X-68610890Y60786203D01*
X-68661989Y60649205D01*
X-68661991Y60649197D01*
X-68668500Y60588650D01*
X-68668500Y58791351D01*
X-68661991Y58730804D01*
X-68661989Y58730796D01*
X-68610890Y58593798D01*
X-68610888Y58593793D01*
X-68523262Y58476739D01*
X-68406209Y58389114D01*
X-68406208Y58389114D01*
X-68406204Y58389111D01*
X-68291190Y58346213D01*
X-68234358Y58303668D01*
X-68209547Y58237148D01*
X-68224638Y58167774D01*
X-68242525Y58142821D01*
X-68385720Y57987271D01*
X-68385725Y57987266D01*
X-68508859Y57798794D01*
X-68599297Y57592614D01*
X-68599298Y57592613D01*
X-68654563Y57374376D01*
X-68654564Y57374370D01*
X-68654564Y57374368D01*
X-68673156Y57150000D01*
X-95127154Y57150000D01*
X-95195223Y68128000D01*
X-88915745Y68128000D01*
X-88868024Y67939551D01*
X-88868021Y67939544D01*
X-88777620Y67733452D01*
X-88654526Y67545042D01*
X-88502103Y67379466D01*
X-88324502Y67241233D01*
X-88324501Y67241232D01*
X-88126572Y67134118D01*
X-88126570Y67134117D01*
X-87913717Y67061045D01*
X-87913708Y67061043D01*
X-87833200Y67047609D01*
X-87833200Y67948326D01*
X-87721515Y67897320D01*
X-87614963Y67882000D01*
X-87543437Y67882000D01*
X-87436885Y67897320D01*
X-87325200Y67948326D01*
X-87325200Y67047609D01*
X-87244693Y67061043D01*
X-87244684Y67061045D01*
X-87031831Y67134117D01*
X-87031829Y67134118D01*
X-86833900Y67241232D01*
X-86833899Y67241233D01*
X-86656298Y67379466D01*
X-86503873Y67545045D01*
X-86441324Y67640783D01*
X-86387321Y67686871D01*
X-86316973Y67696447D01*
X-86252616Y67666470D01*
X-86230358Y67640783D01*
X-86194525Y67585935D01*
X-86194521Y67585930D01*
X-86042038Y67420292D01*
X-85989585Y67379466D01*
X-85864376Y67282011D01*
X-85666374Y67174858D01*
X-85666373Y67174858D01*
X-85666372Y67174857D01*
X-85554573Y67136477D01*
X-85453435Y67101756D01*
X-85231369Y67064700D01*
X-85231365Y67064700D01*
X-85006235Y67064700D01*
X-85006231Y67064700D01*
X-84784165Y67101756D01*
X-84571226Y67174858D01*
X-84373224Y67282011D01*
X-84195560Y67420294D01*
X-84043078Y67585932D01*
X-83954282Y67721846D01*
X-83900280Y67767932D01*
X-83829932Y67777508D01*
X-83765575Y67747531D01*
X-83743320Y67721847D01*
X-83710193Y67671142D01*
X-83654525Y67585935D01*
X-83654521Y67585930D01*
X-83502038Y67420292D01*
X-83449585Y67379466D01*
X-83324376Y67282011D01*
X-83126374Y67174858D01*
X-83126373Y67174858D01*
X-83126372Y67174857D01*
X-83014573Y67136477D01*
X-82913435Y67101756D01*
X-82691369Y67064700D01*
X-82691365Y67064700D01*
X-82466235Y67064700D01*
X-82466231Y67064700D01*
X-82244165Y67101756D01*
X-82031226Y67174858D01*
X-81833224Y67282011D01*
X-81655560Y67420294D01*
X-81503078Y67585932D01*
X-81414282Y67721846D01*
X-81360280Y67767932D01*
X-81289932Y67777508D01*
X-81225575Y67747531D01*
X-81203320Y67721847D01*
X-81170193Y67671142D01*
X-81114525Y67585935D01*
X-81114521Y67585930D01*
X-80962038Y67420292D01*
X-80909585Y67379466D01*
X-80784376Y67282011D01*
X-80586374Y67174858D01*
X-80586373Y67174858D01*
X-80586372Y67174857D01*
X-80474573Y67136477D01*
X-80373435Y67101756D01*
X-80151369Y67064700D01*
X-80151365Y67064700D01*
X-79926235Y67064700D01*
X-79926231Y67064700D01*
X-79704165Y67101756D01*
X-79491226Y67174858D01*
X-79293224Y67282011D01*
X-79115560Y67420294D01*
X-78963078Y67585932D01*
X-78874282Y67721846D01*
X-78820280Y67767932D01*
X-78749932Y67777508D01*
X-78685575Y67747531D01*
X-78663320Y67721847D01*
X-78630193Y67671142D01*
X-78574525Y67585935D01*
X-78574521Y67585930D01*
X-78422038Y67420292D01*
X-78369585Y67379466D01*
X-78244376Y67282011D01*
X-78046374Y67174858D01*
X-78046373Y67174858D01*
X-78046372Y67174857D01*
X-77934573Y67136477D01*
X-77833435Y67101756D01*
X-77611369Y67064700D01*
X-77611365Y67064700D01*
X-77386235Y67064700D01*
X-77386231Y67064700D01*
X-77164165Y67101756D01*
X-76951226Y67174858D01*
X-76753224Y67282011D01*
X-76575560Y67420294D01*
X-76423078Y67585932D01*
X-76334282Y67721846D01*
X-76280280Y67767932D01*
X-76209932Y67777508D01*
X-76145575Y67747531D01*
X-76123320Y67721847D01*
X-76090193Y67671142D01*
X-76034525Y67585935D01*
X-76034521Y67585930D01*
X-75882038Y67420292D01*
X-75829585Y67379466D01*
X-75704376Y67282011D01*
X-75506374Y67174858D01*
X-75506373Y67174858D01*
X-75506372Y67174857D01*
X-75394573Y67136477D01*
X-75293435Y67101756D01*
X-75071369Y67064700D01*
X-75071365Y67064700D01*
X-74846235Y67064700D01*
X-74846231Y67064700D01*
X-74624165Y67101756D01*
X-74411226Y67174858D01*
X-74213224Y67282011D01*
X-74035560Y67420294D01*
X-73883078Y67585932D01*
X-73794282Y67721846D01*
X-73740280Y67767932D01*
X-73669932Y67777508D01*
X-73605575Y67747531D01*
X-73583320Y67721847D01*
X-73550193Y67671142D01*
X-73494525Y67585935D01*
X-73494521Y67585930D01*
X-73342038Y67420292D01*
X-73289585Y67379466D01*
X-73164376Y67282011D01*
X-72966374Y67174858D01*
X-72966373Y67174858D01*
X-72966372Y67174857D01*
X-72854573Y67136477D01*
X-72753435Y67101756D01*
X-72531369Y67064700D01*
X-72531365Y67064700D01*
X-72306235Y67064700D01*
X-72306231Y67064700D01*
X-72084165Y67101756D01*
X-71871226Y67174858D01*
X-71673224Y67282011D01*
X-71495560Y67420294D01*
X-71343078Y67585932D01*
X-71219940Y67774409D01*
X-71129504Y67980584D01*
X-71074236Y68198832D01*
X-71055644Y68423200D01*
X-71074236Y68647568D01*
X-71074238Y68647576D01*
X-71129503Y68865813D01*
X-71129504Y68865814D01*
X-71129504Y68865816D01*
X-71219940Y69071991D01*
X-71226660Y69082276D01*
X-71343076Y69260466D01*
X-71343080Y69260471D01*
X-71495563Y69426109D01*
X-71619750Y69522768D01*
X-71673224Y69564389D01*
X-71871226Y69671542D01*
X-71871228Y69671543D01*
X-71871229Y69671544D01*
X-72084161Y69744643D01*
X-72084170Y69744645D01*
X-72128324Y69752013D01*
X-72306231Y69781700D01*
X-72531369Y69781700D01*
X-72679589Y69756967D01*
X-72753431Y69744645D01*
X-72753440Y69744643D01*
X-72966372Y69671544D01*
X-72966374Y69671542D01*
X-73164374Y69564390D01*
X-73164376Y69564389D01*
X-73342038Y69426109D01*
X-73494521Y69260471D01*
X-73583317Y69124557D01*
X-73637321Y69078469D01*
X-73707669Y69068894D01*
X-73772026Y69098871D01*
X-73794283Y69124557D01*
X-73883080Y69260471D01*
X-74035563Y69426109D01*
X-74159750Y69522768D01*
X-74213224Y69564389D01*
X-74411226Y69671542D01*
X-74411228Y69671543D01*
X-74411229Y69671544D01*
X-74624161Y69744643D01*
X-74624170Y69744645D01*
X-74668324Y69752013D01*
X-74846231Y69781700D01*
X-75071369Y69781700D01*
X-75219589Y69756967D01*
X-75293431Y69744645D01*
X-75293440Y69744643D01*
X-75506372Y69671544D01*
X-75506374Y69671542D01*
X-75704374Y69564390D01*
X-75704376Y69564389D01*
X-75882038Y69426109D01*
X-76034521Y69260471D01*
X-76123317Y69124557D01*
X-76177321Y69078469D01*
X-76247669Y69068894D01*
X-76312026Y69098871D01*
X-76334283Y69124557D01*
X-76423080Y69260471D01*
X-76575563Y69426109D01*
X-76699750Y69522768D01*
X-76753224Y69564389D01*
X-76951226Y69671542D01*
X-76951228Y69671543D01*
X-76951229Y69671544D01*
X-77164161Y69744643D01*
X-77164170Y69744645D01*
X-77208324Y69752013D01*
X-77386231Y69781700D01*
X-77611369Y69781700D01*
X-77759589Y69756967D01*
X-77833431Y69744645D01*
X-77833440Y69744643D01*
X-78046372Y69671544D01*
X-78046374Y69671542D01*
X-78244374Y69564390D01*
X-78244376Y69564389D01*
X-78422038Y69426109D01*
X-78574521Y69260471D01*
X-78663317Y69124557D01*
X-78717321Y69078469D01*
X-78787669Y69068894D01*
X-78852026Y69098871D01*
X-78874283Y69124557D01*
X-78963080Y69260471D01*
X-79115563Y69426109D01*
X-79239750Y69522768D01*
X-79293224Y69564389D01*
X-79491226Y69671542D01*
X-79491228Y69671543D01*
X-79491229Y69671544D01*
X-79704161Y69744643D01*
X-79704170Y69744645D01*
X-79748324Y69752013D01*
X-79926231Y69781700D01*
X-80151369Y69781700D01*
X-80299589Y69756967D01*
X-80373431Y69744645D01*
X-80373440Y69744643D01*
X-80586372Y69671544D01*
X-80586374Y69671542D01*
X-80784374Y69564390D01*
X-80784376Y69564389D01*
X-80962038Y69426109D01*
X-81114521Y69260471D01*
X-81203317Y69124557D01*
X-81257321Y69078469D01*
X-81327669Y69068894D01*
X-81392026Y69098871D01*
X-81414283Y69124557D01*
X-81503080Y69260471D01*
X-81655563Y69426109D01*
X-81779750Y69522768D01*
X-81833224Y69564389D01*
X-82031226Y69671542D01*
X-82031228Y69671543D01*
X-82031229Y69671544D01*
X-82244161Y69744643D01*
X-82244170Y69744645D01*
X-82288324Y69752013D01*
X-82466231Y69781700D01*
X-82691369Y69781700D01*
X-82839589Y69756967D01*
X-82913431Y69744645D01*
X-82913440Y69744643D01*
X-83126372Y69671544D01*
X-83126374Y69671542D01*
X-83324374Y69564390D01*
X-83324376Y69564389D01*
X-83502038Y69426109D01*
X-83654521Y69260471D01*
X-83743317Y69124557D01*
X-83797321Y69078469D01*
X-83867669Y69068894D01*
X-83932026Y69098871D01*
X-83954283Y69124557D01*
X-84043080Y69260471D01*
X-84195563Y69426109D01*
X-84319750Y69522768D01*
X-84373224Y69564389D01*
X-84571226Y69671542D01*
X-84571228Y69671543D01*
X-84571229Y69671544D01*
X-84784161Y69744643D01*
X-84784170Y69744645D01*
X-84828324Y69752013D01*
X-85006231Y69781700D01*
X-85231369Y69781700D01*
X-85379589Y69756967D01*
X-85453431Y69744645D01*
X-85453440Y69744643D01*
X-85666372Y69671544D01*
X-85666374Y69671542D01*
X-85864374Y69564390D01*
X-85864376Y69564389D01*
X-86042038Y69426109D01*
X-86194521Y69260471D01*
X-86194525Y69260466D01*
X-86257275Y69164418D01*
X-86311279Y69118329D01*
X-86381626Y69108754D01*
X-86445984Y69138731D01*
X-86468241Y69164417D01*
X-86503875Y69218959D01*
X-86656298Y69384535D01*
X-86833899Y69522768D01*
X-86833900Y69522769D01*
X-87031829Y69629883D01*
X-87031831Y69629884D01*
X-87244688Y69702957D01*
X-87244699Y69702960D01*
X-87325200Y69716394D01*
X-87325200Y68815675D01*
X-87436885Y68866680D01*
X-87543437Y68882000D01*
X-87614963Y68882000D01*
X-87721515Y68866680D01*
X-87833200Y68815675D01*
X-87833200Y69716393D01*
X-87833201Y69716394D01*
X-87913702Y69702960D01*
X-87913713Y69702957D01*
X-88126570Y69629884D01*
X-88126572Y69629883D01*
X-88324501Y69522769D01*
X-88324502Y69522768D01*
X-88502103Y69384535D01*
X-88654526Y69218959D01*
X-88777620Y69030549D01*
X-88868021Y68824457D01*
X-88868024Y68824450D01*
X-88915745Y68636001D01*
X-88915744Y68636000D01*
X-88010316Y68636000D01*
X-88038693Y68591844D01*
X-88079200Y68453889D01*
X-88079200Y68310111D01*
X-88038693Y68172156D01*
X-88010316Y68128000D01*
X-88915745Y68128000D01*
X-95195223Y68128000D01*
X-95218644Y71905265D01*
X-94149300Y71905265D01*
X-94121641Y71739509D01*
X-94108372Y71659991D01*
X-94108370Y71659982D01*
X-94027630Y71424793D01*
X-94027629Y71424791D01*
X-93909275Y71206092D01*
X-93909274Y71206091D01*
X-93756533Y71009850D01*
X-93573586Y70841436D01*
X-93365407Y70705427D01*
X-93365408Y70705427D01*
X-93219389Y70641378D01*
X-93137681Y70605537D01*
X-93137680Y70605537D01*
X-93137678Y70605536D01*
X-92963531Y70561436D01*
X-92896621Y70544492D01*
X-92731354Y70530798D01*
X-92710869Y70529100D01*
X-92710867Y70529100D01*
X-92586731Y70529100D01*
X-92567317Y70530709D01*
X-92400979Y70544492D01*
X-92159919Y70605537D01*
X-91932193Y70705427D01*
X-91724015Y70841436D01*
X-91632054Y70926092D01*
X-91541068Y71009850D01*
X-91541067Y71009852D01*
X-91541062Y71009856D01*
X-91388326Y71206091D01*
X-91269972Y71424790D01*
X-91189229Y71659986D01*
X-91148300Y71905265D01*
X-91148300Y72153935D01*
X-91189229Y72399214D01*
X-91248927Y72573109D01*
X-91269971Y72634408D01*
X-91269972Y72634410D01*
X-91388326Y72853109D01*
X-91388327Y72853110D01*
X-91454216Y72937764D01*
X-91541062Y73049344D01*
X-91541064Y73049346D01*
X-91541068Y73049351D01*
X-91724015Y73217765D01*
X-91932194Y73353774D01*
X-91932193Y73353774D01*
X-92159916Y73453662D01*
X-92159923Y73453665D01*
X-92400972Y73514707D01*
X-92400977Y73514708D01*
X-92400979Y73514708D01*
X-92534170Y73525745D01*
X-92586731Y73530100D01*
X-92586733Y73530100D01*
X-92710867Y73530100D01*
X-92710869Y73530100D01*
X-92772093Y73525027D01*
X-92896621Y73514708D01*
X-92896623Y73514708D01*
X-92896629Y73514707D01*
X-93137678Y73453665D01*
X-93137685Y73453662D01*
X-93365407Y73353774D01*
X-93573586Y73217765D01*
X-93756533Y73049351D01*
X-93909274Y72853110D01*
X-93909275Y72853109D01*
X-94027629Y72634410D01*
X-94027630Y72634408D01*
X-94108370Y72399219D01*
X-94108372Y72399210D01*
X-94116824Y72348559D01*
X-94149300Y72153935D01*
X-94149300Y71905265D01*
X-95218644Y71905265D01*
X-95226081Y73104766D01*
X-95216493Y73153752D01*
X-95201777Y73189280D01*
X-95198718Y73195633D01*
X-95046276Y73471461D01*
X-95042523Y73477431D01*
X-95002884Y73533298D01*
X-94860160Y73734454D01*
X-94855764Y73739965D01*
X-94809288Y73791972D01*
X-94645774Y73974948D01*
X-94640788Y73979934D01*
X-94405801Y74189936D01*
X-94400291Y74194330D01*
X-94143263Y74376706D01*
X-94137306Y74380448D01*
X-93861476Y74532898D01*
X-93855131Y74535953D01*
X-93805432Y74556540D01*
X-93756921Y74566131D01*
X-62571753Y74492932D01*
G37*
%TD.AperFunction*%
%TA.AperFunction,Conductor*%
G36*
X-50596716Y60182530D02*
G01*
X-50550223Y60128874D01*
X-50540119Y60058600D01*
X-50549449Y60025919D01*
X-50608097Y59892214D01*
X-50608098Y59892213D01*
X-50663363Y59673976D01*
X-50681956Y59449600D01*
X-50663363Y59225225D01*
X-50615199Y59035031D01*
X-50617866Y58964085D01*
X-50658466Y58905843D01*
X-50724109Y58878797D01*
X-50737343Y58878100D01*
X-52018633Y58878100D01*
X-52086754Y58898102D01*
X-52116031Y58924165D01*
X-52137759Y58950641D01*
X-52137762Y58950644D01*
X-52283709Y59070420D01*
X-52450222Y59159423D01*
X-52630901Y59214232D01*
X-52630909Y59214234D01*
X-52818797Y59232738D01*
X-52818803Y59232738D01*
X-53006692Y59214234D01*
X-53006700Y59214232D01*
X-53187379Y59159423D01*
X-53353892Y59070420D01*
X-53499839Y58950644D01*
X-53499839Y58950643D01*
X-53499841Y58950641D01*
X-53521570Y58924166D01*
X-53580246Y58884197D01*
X-53618967Y58878100D01*
X-57029503Y58878100D01*
X-57097624Y58898102D01*
X-57119675Y58917734D01*
X-57120313Y58917095D01*
X-57124685Y58921467D01*
X-57270640Y59041250D01*
X-57437153Y59130253D01*
X-57617832Y59185062D01*
X-57617840Y59185064D01*
X-57805728Y59203568D01*
X-57805734Y59203568D01*
X-57993623Y59185064D01*
X-57993631Y59185062D01*
X-58174310Y59130253D01*
X-58174311Y59130252D01*
X-58204906Y59113899D01*
X-58274412Y59099428D01*
X-58340708Y59124833D01*
X-58382745Y59182047D01*
X-58390300Y59225022D01*
X-58390300Y60076532D01*
X-58370298Y60144653D01*
X-58316642Y60191146D01*
X-58264300Y60202532D01*
X-50664837Y60202532D01*
X-50596716Y60182530D01*
G37*
%TD.AperFunction*%
%TD*%
M02*
